# 3ds Max Wavefront OBJ Exporter v0.99 - (c)2007 guruware
# File Created: 08.12.2022 21:09:22

mtllib Player_Sword.mtl

#
# object Box001
#

v  -17.1215 0.0000 11.3818
v  -17.1215 0.0000 -11.3818
v  -10.9637 0.0000 -11.3818
v  -10.9637 0.0000 11.3818
v  -17.1215 7.4668 11.3818
v  -10.9637 7.4668 11.3818
v  -10.9637 7.4668 -11.3818
v  -17.1215 7.4668 -11.3818
v  16.0336 0.6868 3.4071
v  16.0336 0.6868 -3.4071
v  16.0336 6.7800 -3.4071
v  16.0336 6.7800 3.4071
v  -76.2825 2.1256 -9.2561
v  -76.2825 2.1256 -1.5154
v  -76.2825 2.7036 -9.2561
v  -10.9637 1.9382 -2.1558
v  -10.9637 1.9382 2.1558
v  -10.9637 5.5286 -2.1558
v  -10.9637 5.5286 2.1558
v  10.6694 1.9382 -2.1558
v  10.6694 1.9382 2.1558
v  10.6694 5.5286 -2.1558
v  10.6694 5.5286 2.1558
v  -17.1215 2.1256 9.2561
v  -17.1215 2.1256 -9.2561
v  -17.1215 5.3412 9.2561
v  -17.1215 5.3412 -9.2561
v  -58.6311 2.1256 8.6985
v  -58.6311 2.7036 8.6985
v  11.6632 0.6868 -3.4071
v  11.6632 0.6868 3.4071
v  11.6632 6.7800 -3.4071
v  11.6632 6.7800 3.4071
# 33 vertices

vn 0.0000 -1.0000 -0.0000
vn 0.0000 1.0000 -0.0000
vn 0.0000 0.0000 1.0000
vn 1.0000 0.0000 -0.0000
vn 0.0000 0.0000 -1.0000
vn -1.0000 0.0000 -0.0000
vn -0.0134 0.0000 0.9999
vn -0.0445 0.9990 -0.0000
vn -0.0755 0.9944 0.0742
vn -0.0641 0.9959 0.0630
vn -0.5008 0.0000 0.8655
vn -0.7831 -0.6219 -0.0000
vn -0.7831 0.0000 -0.6219
vn -0.7831 0.6219 -0.0000
vn -0.7831 0.0000 0.6219
# 15 vertex normals

vt 0.3713 0.7083 0.0000
vt 0.6357 0.7083 0.0000
vt 0.6357 0.7799 0.0000
vt 0.3713 0.7799 0.0000
vt 0.2845 0.7083 0.0000
vt 0.2845 0.7799 0.0000
vt 0.0200 0.7799 0.0000
vt 0.0200 0.7083 0.0000
vt 0.8182 0.7791 0.0000
vt 0.7390 0.7791 -0.5545
vt 0.7390 0.7083 0.0000
vt 0.8182 0.7083 0.5545
vt 0.7225 0.7083 0.0000
vt 0.7225 0.7799 0.0000
vt 0.3768 0.9130 -0.5312
vt 0.2879 0.8996 0.3041
vt 0.3778 0.9064 0.5312
vt 0.2879 0.7964 0.0000
vt 0.5524 0.7964 0.0000
vt 0.4452 0.8189 0.0000
vt 0.3951 0.8189 0.0000
vt 0.5524 0.8831 0.0000
vt 0.4452 0.8606 0.0000
vt 0.2879 0.8831 0.0000
vt 0.3951 0.8606 0.0000
vt 0.0200 0.8882 -1.5119
vt 0.0200 0.8381 1.5119
vt 0.2714 0.8381 1.5119
vt 0.2714 0.8882 -1.5119
vt 0.0200 0.7964 -1.5119
vt 0.2714 0.7964 -1.5119
vt 0.0200 0.9800 -1.5119
vt 0.0200 0.9299 -1.5119
vt 0.2714 0.9299 -1.5119
vt 0.2714 0.9800 -1.5119
vt 0.5689 0.7964 0.0000
vt 0.8334 0.7964 0.0000
vt 0.8087 0.8211 0.0000
vt 0.5936 0.8211 0.0000
vt 0.8334 0.8831 0.0000
vt 0.8087 0.8584 0.0000
vt 0.5689 0.8831 0.0000
vt 0.5936 0.8584 0.0000
vt 0.5679 0.0495 -4.9669
vt 0.7056 0.2730 4.9669
vt 0.3251 0.4329 -4.9669
vt 0.0846 0.5559 -4.9669
vt 0.0276 0.4852 4.9669
vt 0.7199 0.3070 -4.9669
vt 0.3282 0.4395 -4.9669
vt 0.7730 0.5219 -4.9669
vt 0.0855 0.6918 -4.9669
vt 0.5444 0.0200 -4.9669
vt 0.0200 0.4758 -4.9669
vt 0.8210 0.1070 -0.2411
vt 0.8711 0.1070 -0.2411
vt 0.8856 0.1256 0.2411
vt 0.8065 0.1256 0.2411
vt 0.8811 0.0665 -0.2411
vt 0.9026 0.0569 -0.2411
vt 0.8553 0.0432 -0.2411
vt 0.8110 0.0665 -0.2411
vt 0.7895 0.0569 -0.2411
vt 0.8596 0.0200 -0.2411
vt 0.7189 0.8996 -0.6393
vt 0.7980 0.8996 0.6393
vt 0.7980 0.9504 -0.6393
vt 0.7189 0.9504 0.6393
vt 0.8688 0.8996 -0.6393
vt 0.8688 0.9504 -0.6393
vt 0.5689 0.8996 -0.6393
vt 0.6481 0.8996 -0.6393
vt 0.6481 0.9504 -0.6393
vt 0.5689 0.9504 -0.6393
# 74 texture coords

o Box001
g Box001
usemtl PhysicalMaterial
s 2
f 1/1/1 2/2/1 3/3/1 
f 3/3/1 4/4/1 1/1/1 
s 4
f 5/5/2 6/6/2 7/7/2 
f 7/7/2 8/8/2 5/5/2 
s 8
f 1/1/3 4/4/3 6/6/3 
f 6/6/3 5/5/3 1/1/3 
s 16
f 9/9/4 10/10/4 11/11/4 
f 11/11/4 12/12/4 9/9/4 
s 32
f 3/3/5 2/2/5 8/13/5 
f 8/13/5 7/14/5 3/3/5 
s 64
f 13/15/6 14/16/6 15/17/6 
s off
f 4/18/4 3/19/4 16/20/4 
f 16/20/4 17/21/4 4/18/4 
f 3/19/4 7/22/4 18/23/4 
f 18/23/4 16/20/4 3/19/4 
f 7/22/4 6/24/4 19/25/4 
f 19/25/4 18/23/4 7/22/4 
f 6/24/4 4/18/4 17/21/4 
f 17/21/4 19/25/4 6/24/4 
f 17/26/1 16/27/1 20/28/1 
f 20/28/1 21/29/1 17/26/1 
f 16/27/5 18/30/5 22/31/5 
f 22/31/5 20/28/5 16/27/5 
f 18/32/2 19/33/2 23/34/2 
f 23/34/2 22/35/2 18/32/2 
f 19/33/3 17/26/3 21/29/3 
f 21/29/3 23/34/3 19/33/3 
f 2/36/6 1/37/6 24/38/6 
f 24/38/6 25/39/6 2/36/6 
f 1/37/6 5/40/6 26/41/6 
f 26/41/6 24/38/6 1/37/6 
f 5/40/6 8/42/6 27/43/6 
f 27/43/6 26/41/6 5/40/6 
f 8/42/6 2/36/6 25/39/6 
f 25/39/6 27/43/6 8/42/6 
f 25/44/1 24/45/1 28/46/1 
f 25/44/1 28/46/1 14/47/1 
f 25/44/1 14/47/1 13/48/1 
f 26/49/7 29/50/7 28/46/7 
f 28/46/7 24/45/7 26/49/7 
f 26/49/8 27/51/8 15/52/8 
f 15/52/9 14/47/9 29/50/9 
f 26/49/10 15/52/10 29/50/10 
f 27/53/5 25/44/5 13/48/5 
f 13/48/5 15/54/5 27/53/5 
f 29/50/11 14/47/11 28/46/11 
f 21/55/12 20/56/12 30/57/12 
f 30/57/12 31/58/12 21/55/12 
f 20/56/13 22/59/13 32/60/13 
f 32/60/13 30/57/13 20/56/13 
f 22/61/14 23/62/14 33/63/14 
f 33/63/14 32/64/14 22/61/14 
f 23/62/15 21/55/15 31/58/15 
f 31/58/15 33/63/15 23/62/15 
f 31/65/1 30/66/1 10/67/1 
f 10/67/1 9/68/1 31/65/1 
f 30/66/5 32/69/5 11/70/5 
f 11/70/5 10/67/5 30/66/5 
f 32/71/2 33/72/2 12/73/2 
f 12/73/2 11/74/2 32/71/2 
f 33/72/3 31/65/3 9/68/3 
f 9/68/3 12/73/3 33/72/3 
# 62 faces

