# 3ds Max Wavefront OBJ Exporter v0.99 - (c)2007 guruware
# File Created: 13.11.2022 22:43:34

mtllib heiRock5.mtl

#
# object Icosphere
#

v  17.4462 49.4182 23.4019
v  15.5828 52.4844 25.2550
v  15.1508 50.8945 25.2550
v  31.2479 91.3099 7.9657
v  21.2242 115.9719 17.7176
v  11.3342 104.4214 28.2898
v  10.4371 84.4595 29.7496
v  27.4669 39.2534 13.2692
v  27.8830 39.0713 12.8421
v  30.6374 42.9720 9.8797
v  32.2129 49.4543 8.0725
v  2.6304 89.9874 31.9626
v  6.9950 106.0530 29.6041
v  -1.5645 118.9508 27.3943
v  -13.2354 160.6442 6.3435
v  -9.1818 160.6442 7.6606
v  -13.2308 161.5629 5.1357
v  0.7452 108.9538 -38.8361
v  19.7916 102.0717 -33.5165
v  22.5127 53.3386 -33.8439
v  15.7164 40.3708 -36.0933
v  -8.8088 93.5606 -41.9337
v  -8.0480 100.6735 -41.5530
v  17.3774 10.5322 -20.2887
v  12.7951 31.3809 -34.3923
v  15.6635 38.9971 -35.8731
v  23.8201 42.1592 -30.8580
v  18.1345 11.2123 -20.0161
v  -0.9950 15.6993 -29.3848
v  -6.6422 19.5005 -30.5708
v  2.2900 21.4079 -31.7715
v  25.2185 46.7572 -30.7555
v  -14.4183 155.1930 9.2575
v  -10.4502 137.1390 21.4705
v  -8.9792 136.6740 22.2298
v  -5.8760 159.8855 9.1938
v  -1.7593 73.8296 31.2136
v  -1.7357 73.9164 31.2264
v  -1.7700 73.8778 31.2130
v  -3.2346 47.5133 27.2015
v  1.8073 41.4683 26.1388
v  8.8918 49.1394 27.1337
v  1.7896 81.4522 32.2939
v  -22.3431 127.9120 16.4609
v  -3.1008 158.9527 -7.6704
v  -14.0807 161.7101 1.8112
v  4.7585 157.3006 5.2710
v  2.0440 157.7924 -4.0292
v  -16.4762 159.1500 -3.5927
v  -22.5270 148.6349 -11.8445
v  -34.2795 108.1153 -1.0794
v  -27.0038 115.9749 15.2212
v  -18.7101 155.2679 -12.1646
v  -21.7573 149.9726 -13.1059
v  2.4373 84.4595 32.3489
v  27.6114 38.2358 12.6448
v  32.5820 40.2379 1.8321
v  22.2313 107.2711 -29.8243
v  31.9491 89.3587 -18.2659
v  32.6680 59.8266 -19.7102
v  23.2143 20.5335 4.9209
v  10.2851 9.3842 4.6702
v  9.8101 7.7724 3.0461
v  15.7190 8.9935 -2.0436
v  21.0406 13.7786 -1.6770
v  23.6141 18.2508 1.3992
v  32.6706 38.5904 -0.1874
v  28.5252 26.7854 -2.1688
v  21.0765 13.8409 -13.3266
v  -11.5305 46.2454 22.0916
v  -23.5498 61.0866 16.6720
v  -25.5816 45.4905 10.6826
v  -16.6916 41.9715 16.7811
v  -23.3644 94.9204 19.6653
v  -19.8295 16.9661 -0.1516
v  -11.9954 6.5791 -2.4111
v  -7.3673 3.7569 -1.7190
v  3.3629 17.1446 12.0753
v  -17.1905 85.8901 -39.8875
v  -20.1818 91.1985 -38.4469
v  -16.3855 105.1717 -38.4469
v  -19.8673 144.8877 -19.7398
v  -16.4671 153.8933 -16.0188
v  -8.8090 154.4795 -16.7011
v  -1.5215 146.6766 -21.1973
v  -19.3050 111.1825 -35.3182
v  -3.1587 157.4300 -11.2534
v  1.8230 154.4646 -11.9759
v  4.4149 146.8243 -18.4040
v  21.5522 111.7619 -27.9119
v  31.3603 103.6154 -7.9050
v  22.4752 128.3284 10.9742
v  30.9854 108.9832 2.1245
v  -19.9674 17.0958 -0.2039
v  -14.4717 8.4276 -4.1835
v  -9.0393 9.7376 -22.5211
v  -1.8953 5.3540 -21.3403
v  1.7359 1.8832 -15.5915
v  -5.3793 2.8198 -2.5614
v  -11.8584 10.6289 -19.5136
v  -27.3065 44.9290 -23.6974
v  -23.9993 55.0898 -31.2258
v  -19.0597 51.5146 -34.3229
v  -11.0991 27.4579 -31.3650
v  -12.0418 17.7991 -26.2808
v  -16.3701 21.2562 -23.7079
v  -26.7348 40.4733 -22.2996
v  -31.4739 51.9325 -1.1451
v  -27.0854 39.0144 -17.7701
v  -21.9275 20.7306 0.0613
v  -27.8243 39.5093 5.2762
v  -36.0060 83.4913 -7.3886
v  -23.6700 87.8778 -34.8086
v  -22.0595 91.4983 -37.1005
v  -21.7324 90.0606 -37.5938
v  -22.1785 79.8228 -37.0771
v  -22.0866 77.6320 -37.0659
v  -20.3969 75.2259 -37.8958
v  -34.7995 79.8187 -11.8040
v  -10.1857 15.1897 -26.2808
v  -6.6672 19.5087 -30.5696
v  0.7600 8.2749 -24.3223
v  6.8010 1.2729 -13.1425
v  7.0177 1.2554 -11.2558
v  2.5606 1.8417 -3.1769
v  7.6213 1.7404 -13.4913
v  7.1924 1.3489 -11.2449
v  14.8691 8.2749 -19.7379
# 128 vertices

vn 0.5346 -0.3304 0.7779
vn 0.7196 0.0418 0.6932
vn -0.0247 0.3304 0.9435
vn -0.1024 0.9435 0.3151
vn 0.2760 0.0497 -0.9599
vn 0.4713 -0.6617 -0.5831
vn -0.0385 -0.6617 -0.7488
vn 0.5346 -0.3304 -0.7779
vn -0.1876 0.7947 0.5773
vn -0.3066 -0.1256 0.9435
vn 0.0247 -0.3304 0.9435
vn -0.4713 0.6617 0.5831
vn 0.1036 0.9946 -0.0071
vn -0.7553 0.6224 0.2052
vn -0.6071 0.7947 -0.0000
vn 0.3035 -0.1876 0.9342
vn 0.3066 0.1256 0.9435
vn 0.4713 -0.6617 0.5831
vn 0.9050 -0.3304 0.2680
vn 0.7965 0.1103 -0.5945
vn 0.3339 -0.8959 0.2932
vn 0.8005 -0.5407 -0.2586
vn -0.5578 -0.4461 0.6999
vn -0.5097 -0.1936 0.8383
vn -0.4201 0.1934 0.8866
vn -0.2917 -0.7767 0.5583
vn -0.3035 0.1876 -0.9342
vn -0.0856 0.7204 -0.6883
vn 0.1777 0.8998 -0.3985
vn 0.2240 0.9573 -0.1825
vn -0.4754 0.7838 -0.3995
vn -0.0493 0.9819 -0.1826
vn 0.2910 0.7154 -0.6352
vn 0.7856 0.5482 -0.2870
vn 0.6096 0.7764 -0.1599
vn 0.9983 0.0525 0.0250
vn 0.8209 0.3607 0.4428
vn 0.3087 0.7119 0.6307
vn -0.4429 -0.8690 0.2204
vn -0.2433 -0.9645 -0.1024
vn -0.5564 -0.5841 -0.5910
vn -0.8197 -0.5724 -0.0209
vn -0.4881 -0.6880 0.5371
vn -0.8967 -0.1025 0.4306
vn -0.8234 0.0165 -0.5672
vn -0.5746 -0.3304 -0.7488
vn -0.8910 -0.0903 -0.4450
vn -0.4677 -0.0549 -0.8822
vn -0.5346 0.3304 -0.7779
vn -0.8633 0.3497 -0.3638
vn -0.9259 -0.3575 -0.1223
vn -0.6367 -0.7551 -0.1562
vn -0.4911 -0.7947 -0.3568
vn -0.1478 -0.8538 -0.4992
vn -0.4089 -0.6617 -0.6284
vn -0.0539 -0.9985 0.0021
vn 0.2307 -0.9726 -0.0305
vn 0.3677 -0.9300 -0.0011
vn 0.2174 -0.9644 0.1507
vn -0.0182 -0.9145 0.4043
vn 0.2730 -0.7510 0.6012
vn 0.7002 -0.6617 0.2680
vn 0.6071 -0.7947 0.0000
vn 0.1876 -0.7947 -0.5773
vn 0.1024 -0.9435 -0.3151
vn -0.0947 -0.3337 -0.9379
# 66 vertex normals

vt 0.5717 0.8158 0.0000
vt 0.5730 0.7939 0.0000
vt 0.5782 0.7945 0.0000
vt 0.4135 0.8525 0.0000
vt 0.4020 0.7187 0.0000
vt 0.4730 0.6564 0.0000
vt 0.5229 0.6876 0.0000
vt 0.5499 0.9215 0.0000
vt 0.5484 0.9254 0.0000
vt 0.5271 0.9414 0.0000
vt 0.5051 0.9423 0.0000
vt 0.5400 0.6240 0.0000
vt 0.4859 0.6238 0.0000
vt 0.4850 0.5517 0.0000
vt 0.6374 0.2719 0.0000
vt 0.6430 0.2397 0.0000
vt 0.6437 0.2775 0.0000
vt 0.3297 0.3181 0.0000
vt 0.2977 0.1696 0.0000
vt 0.3376 0.0716 0.0000
vt 0.3634 0.0998 0.0000
vt 0.3634 0.3624 0.0000
vt 0.3552 0.3683 0.0000
vt 0.9016 0.1264 0.0000
vt 0.9943 0.1726 0.0000
vt 0.9988 0.2091 0.0000
vt 0.9557 0.2544 0.0000
vt 0.8988 0.1319 0.0000
vt 0.9845 0.0516 0.0000
vt 1.0000 0.0318 0.0000
vt 0.9941 0.0869 0.0000
vt 1.0000 0.2131 0.0000
vt 0.9755 0.2790 0.0000
vt 0.9528 0.2732 0.0000
vt 0.6130 0.2663 0.0000
vt 0.5427 0.1850 0.0000
vt 0.5428 0.1720 0.0000
vt 0.6443 0.2113 0.0000
vt 0.5916 0.6319 0.0000
vt 0.5913 0.6318 0.0000
vt 0.5915 0.6318 0.0000
vt 0.6529 0.6858 0.0000
vt 0.6477 0.7309 0.0000
vt 0.6061 0.7557 0.0000
vt 0.5627 0.6353 0.0000
vt 0.5126 0.2855 0.0000
vt 0.1022 0.4019 0.0000
vt 0.0456 0.4758 0.0000
vt 0.0253 0.4670 0.0000
vt 0.0096 0.4352 0.0000
vt 0.0000 0.4097 0.0000
vt 0.0229 0.3342 0.0000
vt 0.0796 0.3612 0.0000
vt 0.6540 0.2984 0.0000
vt 0.6627 0.3392 0.0000
vt 0.6569 0.4174 0.0000
vt 0.5075 0.4455 0.0000
vt 0.4817 0.3221 0.0000
vt 0.6809 0.3939 0.0000
vt 0.6661 0.4182 0.0000
vt 0.5536 0.6330 0.0000
vt 0.5511 0.9259 0.0000
vt 0.6949 0.2363 0.0000
vt 0.7416 0.2516 0.0000
vt 0.7033 0.2635 0.0000
vt 0.2705 0.1580 0.0000
vt 0.2120 0.0519 0.0000
vt 0.2439 0.0000 0.0000
vt 0.3233 0.0395 0.0000
vt 0.7374 0.1475 0.0000
vt 0.7585 0.0497 0.0000
vt 0.7693 0.0455 0.0000
vt 0.7918 0.0879 0.0000
vt 0.7815 0.1283 0.0000
vt 0.7586 0.1490 0.0000
vt 0.8732 0.3306 0.0000
vt 0.7540 0.2508 0.0000
vt 0.7729 0.2019 0.0000
vt 0.8532 0.1450 0.0000
vt 0.8885 0.9101 0.0000
vt 0.7969 0.9241 0.0000
vt 0.7813 0.8692 0.0000
vt 0.8491 0.8824 0.0000
vt 0.6098 0.4877 0.0000
vt 0.6845 0.5619 0.0000
vt 0.6805 0.6509 0.0000
vt 0.4247 0.0593 0.0000
vt 0.4321 0.0547 0.0000
vt 0.4449 0.0549 0.0000
vt 0.5079 0.1013 0.0000
vt 0.4333 0.2793 0.0000
vt 0.4047 0.0878 0.0000
vt 0.4048 0.0875 0.0000
vt 0.8037 0.7434 0.0000
vt 0.8474 0.6934 0.0000
vt 0.8763 0.6819 0.0000
vt 0.9626 0.7640 0.0000
vt 0.9752 0.8954 0.0000
vt 0.9465 0.9241 0.0000
vt 0.2340 0.8223 0.0000
vt 0.2309 0.7945 0.0000
vt 0.2705 0.7712 0.0000
vt 0.2969 0.8197 0.0000
vt 0.2816 0.8366 0.0000
vt 0.1912 0.5058 0.0000
vt 0.1605 0.4938 0.0000
vt 0.1621 0.4417 0.0000
vt 0.1935 0.3815 0.0000
vt 0.3351 0.4315 0.0000
vt 0.3122 0.4593 0.0000
vt 0.1252 0.4027 0.0000
vt 0.1305 0.3636 0.0000
vt 0.1748 0.3381 0.0000
vt 0.2636 0.5183 0.0000
vt 0.2806 0.5087 0.0000
vt 0.2969 0.5379 0.0000
vt 0.2802 0.5700 0.0000
vt 0.1367 0.5087 0.0000
vt 0.0810 0.4926 0.0000
vt 0.2556 0.1686 0.0000
vt 0.1380 0.0711 0.0000
vt 0.0064 0.1587 0.0000
vt 0.0731 0.0746 0.0000
vt 0.8640 0.3974 0.0000
vt 0.8005 0.4147 0.0000
vt 0.7390 0.4117 0.0000
vt 0.7035 0.3614 0.0000
vt 0.3689 0.8297 0.0000
vt 0.3634 0.7179 0.0000
vt 0.6809 0.1613 0.0000
vt 0.4964 0.0368 0.0000
vt 0.5091 0.0151 0.0000
vt 0.5960 0.0000 0.0000
vt 0.6483 0.0226 0.0000
vt 0.8027 0.7436 0.0000
vt 0.8276 0.6902 0.0000
vt 0.8029 0.5500 0.0000
vt 0.8480 0.5331 0.0000
vt 0.8867 0.5585 0.0000
vt 0.8853 0.6694 0.0000
vt 0.7958 0.5797 0.0000
vt 0.0700 0.8082 0.0000
vt 0.1242 0.8322 0.0000
vt 0.1420 0.8697 0.0000
vt 0.1090 0.9317 0.0000
vt 0.0707 0.9254 0.0000
vt 0.0562 0.8925 0.0000
vt 0.0584 0.8129 0.0000
vt 0.7107 0.8116 0.0000
vt 0.6968 0.6687 0.0000
vt 0.7901 0.7553 0.0000
vt 0.7585 0.8307 0.0000
vt 0.4778 0.4877 0.0000
vt 0.4044 0.4314 0.0000
vt 0.3657 0.3788 0.0000
vt 0.3634 0.3387 0.0000
vt 0.3772 0.2967 0.0000
vt 0.2021 0.7742 0.0000
vt 0.2215 0.7819 0.0000
vt 0.2212 0.7887 0.0000
vt 0.1977 0.8091 0.0000
vt 0.1936 0.8144 0.0000
vt 0.1966 0.8289 0.0000
vt 0.0792 0.6438 0.0000
vt 0.2637 0.7330 0.0000
vt 0.1035 0.5219 0.0000
vt 0.2546 0.5128 0.0000
vt 0.0689 0.6088 0.0000
vt 0.0000 0.6625 0.0000
vt 0.0401 0.7916 0.0000
vt 0.6845 0.6382 0.0000
vt 0.7512 0.5762 0.0000
vt 0.7697 0.5422 0.0000
vt 0.7817 0.5339 0.0000
vt 0.7847 0.4998 0.0000
vt 0.7849 0.4997 0.0000
vt 0.8215 0.4877 0.0000
vt 0.8513 0.5087 0.0000
vt 0.7524 0.5163 0.0000
vt 0.9213 0.5607 0.0000
vt 0.9278 0.5731 0.0000
vt 0.9267 0.6420 0.0000
vt 0.8737 0.0358 0.0000
vt 0.8746 0.0419 0.0000
vt 0.8614 0.0354 0.0000
vt 0.8618 0.0343 0.0000
vt 0.9021 0.1064 0.0000
vt 0.8186 0.0000 0.0000
vt 0.9786 0.6723 0.0000
vt 0.9845 0.6842 0.0000
vt 0.6845 0.8237 0.0000
vt 0.6707 0.8992 0.0000
vt 0.5998 0.9540 0.0000
vt 0.6809 0.2075 0.0000
vt 0.6825 0.2043 0.0000
vt 0.9511 0.0358 0.0000
vt 0.8962 0.0131 0.0000
vt 0.9368 0.0099 0.0000
vt 0.2321 0.9952 0.0000
vt 0.2285 0.9972 0.0000
vt 0.1997 1.0000 0.0000
vt 0.1393 0.9827 0.0000
vt 0.1042 0.9578 0.0000
# 203 texture coords

o Icosphere
g Icosphere
usemtl Material
s off
f 1/1/1 2/2/1 3/3/1 
f 4/4/2 5/5/2 6/6/2 
f 4/4/2 6/6/2 7/7/2 
f 4/4/2 7/7/2 2/2/2 
f 4/4/2 2/2/2 1/1/2 
f 4/4/2 1/1/2 8/8/2 
f 4/4/2 8/8/2 9/9/2 
f 4/4/2 9/9/2 10/10/2 
f 4/4/2 10/10/2 11/11/2 
f 12/12/3 13/13/3 14/14/3 
f 15/15/4 16/16/4 17/17/4 
f 18/18/5 19/19/5 20/20/5 
f 18/18/5 20/20/5 21/21/5 
f 18/18/5 21/21/5 22/22/5 
f 18/18/5 22/22/5 23/23/5 
f 24/24/6 25/25/6 26/26/6 
f 24/24/6 26/26/6 27/27/6 
f 24/24/6 27/27/6 28/28/6 
f 29/29/7 30/30/7 31/31/7 
f 27/27/8 26/26/8 21/32/8 
f 27/27/8 21/32/8 20/33/8 
f 27/27/8 20/33/8 32/34/8 
f 33/35/9 34/36/9 35/37/9 
f 33/35/9 35/37/9 36/38/9 
f 33/35/9 36/38/9 16/16/9 
f 33/35/9 16/16/9 15/15/9 
f 37/39/10 38/40/10 39/41/10 
f 40/42/11 41/43/11 42/44/11 
f 40/42/11 42/44/11 43/45/11 
f 40/42/11 43/45/11 38/40/11 
f 40/42/11 38/40/11 37/39/11 
f 33/35/12 44/46/12 34/36/12 
f 45/47/13 46/48/13 17/49/13 
f 45/47/13 17/49/13 16/50/13 
f 45/47/13 16/50/13 36/51/13 
f 45/47/13 36/51/13 47/52/13 
f 45/47/13 47/52/13 48/53/13 
f 46/54/14 49/55/14 50/56/14 
f 46/54/14 50/56/14 51/57/14 
f 46/54/14 51/57/14 52/58/14 
f 46/54/14 52/58/14 44/46/14 
f 46/54/14 44/46/14 33/35/14 
f 46/54/14 33/35/14 15/15/14 
f 46/54/14 15/15/14 17/17/14 
f 53/59/15 54/60/15 50/56/15 
f 50/56/15 49/55/15 53/59/15 
f 43/45/16 42/44/16 3/3/16 
f 43/45/16 3/3/16 2/2/16 
f 43/45/16 2/2/16 7/7/16 
f 43/45/16 7/7/16 55/61/16 
f 55/61/17 7/7/17 6/6/17 
f 55/61/17 6/6/17 13/13/17 
f 55/61/17 13/13/17 12/12/17 
f 56/62/18 9/9/18 8/8/18 
f 10/63/19 57/64/19 11/65/19 
f 58/66/20 59/67/20 60/68/20 
f 58/66/20 60/68/20 32/69/20 
f 58/66/20 32/69/20 20/20/20 
f 58/66/20 20/20/20 19/19/20 
f 61/70/21 62/71/21 63/72/21 
f 61/70/21 63/72/21 64/73/21 
f 61/70/21 64/73/21 65/74/21 
f 61/70/21 65/74/21 66/75/21 
f 28/28/22 27/27/22 32/34/22 
f 28/28/22 32/34/22 60/76/22 
f 28/28/22 60/76/22 67/77/22 
f 28/28/22 67/77/22 68/78/22 
f 28/28/22 68/78/22 69/79/22 
f 70/80/23 71/81/23 72/82/23 
f 72/82/23 73/83/23 70/80/23 
f 37/39/24 39/41/24 74/84/24 
f 37/39/24 74/84/24 71/85/24 
f 37/39/24 71/85/24 70/86/24 
f 37/39/24 70/86/24 40/42/24 
f 43/87/25 55/88/25 12/89/25 
f 43/87/25 12/89/25 14/90/25 
f 43/87/25 14/90/25 35/37/25 
f 43/87/25 35/37/25 34/36/25 
f 43/87/25 34/36/25 44/46/25 
f 43/87/25 44/46/25 52/58/25 
f 43/87/25 52/58/25 74/91/25 
f 43/87/25 74/91/25 39/92/25 
f 43/87/25 39/92/25 38/93/25 
f 75/94/26 76/95/26 77/96/26 
f 75/94/26 77/96/26 78/97/26 
f 75/94/26 78/97/26 41/98/26 
f 75/94/26 41/98/26 40/99/26 
f 75/94/26 40/99/26 70/80/26 
f 75/94/26 70/80/26 73/83/26 
f 79/100/27 80/101/27 81/102/27 
f 79/100/27 81/102/27 23/103/27 
f 79/100/27 23/103/27 22/104/27 
f 82/105/28 83/106/28 84/107/28 
f 82/105/28 84/107/28 85/108/28 
f 82/105/28 85/108/28 18/18/28 
f 82/105/28 18/18/28 23/23/28 
f 82/105/28 23/23/28 81/109/28 
f 82/105/28 81/109/28 86/110/28 
f 84/107/29 87/111/29 88/112/29 
f 84/107/29 88/112/29 89/113/29 
f 84/107/29 89/113/29 85/108/29 
f 87/111/30 45/47/30 48/53/30 
f 48/53/30 88/112/30 87/111/30 
f 54/114/31 53/115/31 83/116/31 
f 83/116/31 82/117/31 54/114/31 
f 46/48/32 45/47/32 87/111/32 
f 46/48/32 87/111/32 84/107/32 
f 46/48/32 84/107/32 83/106/32 
f 46/48/32 83/106/32 53/118/32 
f 46/48/32 53/118/32 49/119/32 
f 18/18/33 85/108/33 89/113/33 
f 18/18/33 89/113/33 90/120/33 
f 18/18/33 90/120/33 58/66/33 
f 18/18/33 58/66/33 19/19/33 
f 90/120/34 91/121/34 59/67/34 
f 59/67/34 58/66/34 90/120/34 
f 92/122/35 93/123/35 91/121/35 
f 92/122/35 91/121/35 90/120/35 
f 92/122/35 90/120/35 89/113/35 
f 92/122/35 89/113/35 88/112/35 
f 92/122/35 88/112/35 48/53/35 
f 92/122/35 48/53/35 47/52/35 
f 60/76/36 59/124/36 91/125/36 
f 60/76/36 91/125/36 93/126/36 
f 60/76/36 93/126/36 4/127/36 
f 60/76/36 4/127/36 11/65/36 
f 60/76/36 11/65/36 57/64/36 
f 60/76/36 57/64/36 67/77/36 
f 93/128/37 92/129/37 5/5/37 
f 5/5/37 4/4/37 93/128/37 
f 47/130/38 36/38/38 35/37/38 
f 47/130/38 35/37/38 14/90/38 
f 47/130/38 14/90/38 13/131/38 
f 47/130/38 13/131/38 6/132/38 
f 47/130/38 6/132/38 5/133/38 
f 47/130/38 5/133/38 92/134/38 
f 75/94/39 94/135/39 95/136/39 
f 95/136/39 76/95/39 75/94/39 
f 96/137/40 97/138/40 98/139/40 
f 96/137/40 98/139/40 99/140/40 
f 96/137/40 99/140/40 77/96/40 
f 96/137/40 77/96/40 76/95/40 
f 96/137/40 76/95/40 95/136/40 
f 96/137/40 95/136/40 100/141/40 
f 101/142/41 102/143/41 103/144/41 
f 101/142/41 103/144/41 104/145/41 
f 101/142/41 104/145/41 105/146/41 
f 101/142/41 105/146/41 106/147/41 
f 101/142/41 106/147/41 107/148/41 
f 108/149/42 109/150/42 110/151/42 
f 110/151/42 111/152/42 108/149/42 
f 72/82/43 111/152/43 110/151/43 
f 72/82/43 110/151/43 94/135/43 
f 72/82/43 94/135/43 75/94/43 
f 72/82/43 75/94/43 73/83/43 
f 52/58/44 51/57/44 112/153/44 
f 52/58/44 112/153/44 108/154/44 
f 52/58/44 108/154/44 111/155/44 
f 52/58/44 111/155/44 72/156/44 
f 52/58/44 72/156/44 71/157/44 
f 52/58/44 71/157/44 74/91/44 
f 113/158/45 114/159/45 115/160/45 
f 115/160/45 116/161/45 113/158/45 
f 103/144/46 102/143/46 117/162/46 
f 117/162/46 118/163/46 103/144/46 
f 101/142/47 119/164/47 113/158/47 
f 101/142/47 113/158/47 116/161/47 
f 101/142/47 116/161/47 117/162/47 
f 101/142/47 117/162/47 102/143/47 
f 80/101/48 79/100/48 118/163/48 
f 80/101/48 118/163/48 117/162/48 
f 80/101/48 117/162/48 116/161/48 
f 80/101/48 116/161/48 115/160/48 
f 80/101/49 115/160/49 114/159/49 
f 80/101/49 114/159/49 86/165/49 
f 80/101/49 86/165/49 81/102/49 
f 51/166/50 50/167/50 54/114/50 
f 51/166/50 54/114/50 82/117/50 
f 51/166/50 82/117/50 86/165/50 
f 51/166/50 86/165/50 114/159/50 
f 51/166/50 114/159/50 113/158/50 
f 51/166/50 113/158/50 119/164/50 
f 51/166/50 119/164/50 112/168/50 
f 108/169/51 112/168/51 119/164/51 
f 108/169/51 119/164/51 101/142/51 
f 108/169/51 101/142/51 107/148/51 
f 108/169/51 107/148/51 109/170/51 
f 110/151/52 109/150/52 107/171/52 
f 110/151/52 107/171/52 106/172/52 
f 110/151/52 106/172/52 100/141/52 
f 110/151/52 100/141/52 95/136/52 
f 110/151/52 95/136/52 94/135/52 
f 96/137/53 100/141/53 106/172/53 
f 96/137/53 106/172/53 105/173/53 
f 96/137/53 105/173/53 120/174/53 
f 96/137/54 120/174/54 121/175/54 
f 96/137/54 121/175/54 30/176/54 
f 96/137/54 30/176/54 29/177/54 
f 96/137/54 29/177/54 122/178/54 
f 96/137/54 122/178/54 97/138/54 
f 120/174/55 105/173/55 104/179/55 
f 104/179/55 121/175/55 120/174/55 
f 99/140/56 98/139/56 123/180/56 
f 99/140/56 123/180/56 124/181/56 
f 99/140/56 124/181/56 125/182/56 
f 123/183/57 126/184/57 127/185/57 
f 127/185/57 124/186/57 123/183/57 
f 128/187/58 24/24/58 28/28/58 
f 128/187/58 28/28/58 69/79/58 
f 128/187/58 69/79/58 65/74/58 
f 128/187/58 65/74/58 64/73/58 
f 128/187/58 64/73/58 127/185/58 
f 128/187/58 127/185/58 126/184/58 
f 127/185/59 64/73/59 63/72/59 
f 127/185/59 63/72/59 125/188/59 
f 127/185/59 125/188/59 124/186/59 
f 77/96/60 99/140/60 125/182/60 
f 77/96/60 125/182/60 63/189/60 
f 77/96/60 63/189/60 62/190/60 
f 77/96/60 62/190/60 78/97/60 
f 41/43/61 78/191/61 62/192/61 
f 41/43/61 62/192/61 61/193/61 
f 41/43/61 61/193/61 56/62/61 
f 41/43/61 56/62/61 8/8/61 
f 41/43/61 8/8/61 1/1/61 
f 41/43/61 1/1/61 3/3/61 
f 41/43/61 3/3/61 42/44/61 
f 9/194/62 56/195/62 61/70/62 
f 9/194/62 61/70/62 66/75/62 
f 9/194/62 66/75/62 68/78/62 
f 9/194/62 68/78/62 67/77/62 
f 9/194/62 67/77/62 57/64/62 
f 9/194/62 57/64/62 10/63/62 
f 68/78/63 66/75/63 65/74/63 
f 65/74/63 69/79/63 68/78/63 
f 128/187/64 122/196/64 29/29/64 
f 128/187/64 29/29/64 31/31/64 
f 128/187/64 31/31/64 25/25/64 
f 128/187/64 25/25/64 24/24/64 
f 98/197/65 97/198/65 122/196/65 
f 98/197/65 122/196/65 128/187/65 
f 98/197/65 128/187/65 126/184/65 
f 98/197/65 126/184/65 123/183/65 
f 79/100/66 22/104/66 21/199/66 
f 79/100/66 21/199/66 26/200/66 
f 79/100/66 26/200/66 25/201/66 
f 79/100/66 25/201/66 31/202/66 
f 79/100/66 31/202/66 30/203/66 
f 79/100/66 30/203/66 121/203/66 
f 79/100/66 121/203/66 104/145/66 
f 79/100/66 104/145/66 103/144/66 
f 79/100/66 103/144/66 118/163/66 
# 252 faces

