# 3ds Max Wavefront OBJ Exporter v0.99 - (c)2007 guruware
# File Created: 13.11.2022 22:45:47

mtllib RockPillar1.mtl

#
# object Cube_007
#

v  39.0184 266.9497 8.8096
v  39.0184 248.6057 -37.8900
v  24.4387 266.9497 -37.8900
v  39.0184 266.9497 35.6185
v  29.4641 266.9497 40.8501
v  39.0184 253.6789 40.8501
v  -34.5790 15.8577 -33.0707
v  8.2500 -0.2351 -29.3568
v  -39.7218 -0.2351 -6.8480
v  -39.7218 14.0689 -28.0111
v  -39.7218 266.9497 -13.7675
v  -39.7218 233.4263 25.1788
v  -32.2339 266.9497 20.6377
v  -35.4615 7.8843 40.8502
v  -34.8454 -0.2351 36.0742
v  -26.6248 -0.2351 40.8502
v  29.6564 2.3882 40.8502
v  26.4476 -0.2351 40.8502
v  39.0184 -0.2351 28.2876
v  39.0184 5.4713 35.2631
v  -39.7218 76.3274 -37.8900
v  -31.6970 29.3627 -37.8900
v  -28.2774 266.9497 -37.8900
v  -39.7218 257.5046 -37.8900
v  -39.7218 266.9497 -25.2781
v  -18.4452 266.9497 35.2600
v  -39.7218 191.3361 40.8501
v  -20.1603 247.0509 40.8501
v  4.6215 266.9497 40.8501
v  -39.7218 23.2317 40.8502
v  -39.7218 -0.2351 21.8540
v  39.0184 59.0354 40.8502
v  39.0184 47.0616 -37.8900
v  39.0184 -0.2351 -22.8246
v  31.1999 -0.2351 -30.3633
v  30.5753 21.5037 -37.8900
# 36 vertices

vn 0.3456 0.9321 -0.1079
vn 0.3115 0.7611 0.5689
vn -0.0913 -0.9766 -0.1945
vn -0.7488 0.6424 0.1630
vn -0.2384 -0.8803 0.4103
vn 0.2280 -0.9465 0.2282
vn -0.6330 -0.3670 -0.6816
vn -0.2311 0.9501 -0.2097
vn -0.5498 0.6550 0.5184
vn -0.1669 0.7054 0.6888
vn -1.0000 0.0000 -0.0000
vn 0.0000 1.0000 -0.0000
vn 0.5113 -0.2867 0.8102
vn 1.0000 -0.0000 -0.0000
vn -0.7063 -0.6652 0.2422
vn 0.5478 -0.6141 -0.5682
vn 0.0000 0.0000 1.0000
vn -0.0284 -0.7624 -0.6465
vn -0.0000 -1.0000 0.0000
vn 0.0000 -0.0000 -1.0000
# 20 vertex normals

vt 0.6250 0.6483 0.0000
vt 0.6078 0.5000 0.0000
vt 0.6250 0.4537 0.0000
vt 0.6250 0.7334 0.0000
vt 0.6250 0.7803 0.0000
vt 0.6126 0.7500 0.0000
vt 0.3870 0.2541 0.0000
vt 0.3460 0.4042 0.0000
vt 0.3750 0.1514 0.0000
vt 0.3884 0.2186 0.0000
vt 0.6250 0.1734 0.0000
vt 0.5936 0.0498 0.0000
vt 0.6250 0.3225 0.0000
vt 0.3148 0.2440 0.0000
vt 0.2974 0.2944 0.0000
vt 0.1666 0.7500 0.0000
vt 0.3477 0.7500 0.0000
vt 0.3351 0.7500 0.0000
vt 0.3750 0.7101 0.0000
vt 0.3803 0.7323 0.0000
vt 0.4466 0.2500 0.0000
vt 0.3978 0.2803 0.0000
vt 0.6250 0.2863 0.0000
vt 0.6162 0.2500 0.0000
vt 0.6250 0.2100 0.0000
vt 0.6250 0.7516 0.0000
vt 0.5936 0.4931 0.0000
vt 0.5542 1.0000 0.0000
vt 0.6064 0.9379 0.0000
vt 0.6250 0.8592 0.0000
vt 0.3970 0.0000 0.0000
vt 0.5542 0.0000 0.0000
vt 0.3750 0.0603 0.0000
vt 0.6713 0.5000 0.0000
vt 0.8387 0.5000 0.0000
vt 0.8750 0.5400 0.0000
vt 0.8750 0.5766 0.0000
vt 0.8512 0.6858 0.0000
vt 0.8074 0.7323 0.0000
vt 0.7342 0.7500 0.0000
vt 0.6553 0.7500 0.0000
vt 0.4305 0.7500 0.0000
vt 0.3775 0.7797 0.0000
vt 0.4193 0.5000 0.0000
vt 0.3750 0.5478 0.0000
vt 0.3970 1.0000 0.0000
vt 0.3502 0.5239 0.0000
vt 0.3948 0.4738 0.0000
vt 0.3826 0.9865 0.0000
vt 0.3750 0.9584 0.0000
vt 0.3750 0.7899 0.0000
vt 0.3676 0.4927 0.0000
vt 0.2773 0.5271 0.0000
vt 0.1405 0.7348 0.0000
vt 0.1250 0.6897 0.0000
vt 0.1250 0.5986 0.0000
vt 0.3953 0.4732 0.0000
vt 0.4027 0.2755 0.0000
# 58 texture coords

o Cube_007
g Cube_007
usemtl Material
s off
f 1/1/1 2/2/1 3/3/1 
f 4/4/2 5/5/2 6/6/2 
f 7/7/3 8/8/3 9/9/3 
f 9/9/3 10/10/3 7/7/3 
f 11/11/4 12/12/4 13/13/4 
f 14/14/5 15/15/5 16/16/5 
f 17/17/6 18/18/6 19/19/6 
f 19/19/6 20/20/6 17/17/6 
f 7/7/7 10/10/7 21/21/7 
f 21/21/7 22/22/7 7/7/7 
f 23/23/8 24/24/8 25/25/8 
f 26/26/9 13/13/9 12/27/9 
f 26/26/9 12/27/9 27/28/9 
f 26/26/9 27/28/9 28/29/9 
f 26/26/10 28/29/10 29/30/10 
f 30/31/11 27/32/11 12/12/11 
f 30/31/11 12/12/11 11/11/11 
f 30/31/11 11/11/11 25/25/11 
f 30/31/11 25/25/11 24/24/11 
f 30/31/11 24/24/11 21/21/11 
f 30/31/11 21/21/11 10/10/11 
f 30/31/11 10/10/11 9/9/11 
f 30/31/11 9/9/11 31/33/11 
f 3/34/12 23/35/12 25/36/12 
f 3/34/12 25/36/12 11/37/12 
f 3/34/12 11/37/12 13/38/12 
f 3/34/12 13/38/12 26/39/12 
f 3/34/12 26/39/12 29/40/12 
f 3/34/12 29/40/12 5/41/12 
f 3/34/12 5/41/12 4/4/12 
f 3/34/12 4/4/12 1/1/12 
f 32/42/13 17/43/13 20/20/13 
f 33/44/14 2/2/14 1/1/14 
f 33/44/14 1/1/14 4/4/14 
f 33/44/14 4/4/14 6/6/14 
f 33/44/14 6/6/14 32/42/14 
f 33/44/14 32/42/14 20/20/14 
f 33/44/14 20/20/14 19/19/14 
f 33/44/14 19/19/14 34/45/14 
f 15/15/15 14/14/15 30/46/15 
f 30/46/15 31/33/15 15/15/15 
f 33/44/16 34/45/16 35/47/16 
f 35/47/16 36/48/16 33/44/16 
f 32/42/17 6/6/17 5/5/17 
f 32/42/17 5/5/17 29/30/17 
f 32/42/17 29/30/17 28/29/17 
f 32/42/17 28/29/17 27/28/17 
f 32/42/17 27/28/17 30/46/17 
f 32/42/17 30/46/17 14/49/17 
f 32/42/17 14/49/17 16/50/17 
f 32/42/17 16/50/17 18/51/17 
f 32/42/17 18/51/17 17/43/17 
f 22/22/18 36/48/18 35/52/18 
f 22/22/18 35/52/18 8/8/18 
f 22/22/18 8/8/18 7/7/18 
f 8/53/19 35/47/19 34/45/19 
f 8/53/19 34/45/19 19/19/19 
f 8/53/19 19/19/19 18/18/19 
f 8/53/19 18/18/19 16/16/19 
f 8/53/19 16/16/19 15/54/19 
f 8/53/19 15/54/19 31/55/19 
f 8/53/19 31/55/19 9/56/19 
f 21/21/20 24/24/20 23/23/20 
f 21/21/20 23/23/20 3/3/20 
f 21/21/20 3/3/20 2/2/20 
f 21/21/20 2/2/20 33/44/20 
f 21/21/20 33/44/20 36/57/20 
f 21/21/20 36/57/20 22/58/20 
# 68 faces

