# 3ds Max Wavefront OBJ Exporter v0.99 - (c)2007 guruware
# File Created: 13.11.2022 22:45:14

mtllib RockPillar0.mtl

#
# object Cube_008
#

v  -38.9788 -0.7296 33.8027
v  -30.8810 -0.7296 42.7073
v  -38.9788 8.4044 42.7073
v  -20.2689 -0.7295 -36.0329
v  -38.9788 -0.7295 -23.3976
v  -38.9788 43.0597 -36.0328
v  29.3419 -0.7295 -36.0329
v  39.7614 8.6841 -36.0328
v  39.7614 -0.7295 -25.8495
v  30.8470 -0.7296 37.9967
v  29.7064 4.5915 42.7073
v  14.9876 -0.7296 42.7073
v  39.7614 -0.7296 26.9228
v  39.7614 162.3993 -20.9172
v  39.7614 107.8271 -36.0328
v  34.0204 176.2682 -36.0328
v  39.7614 24.7701 42.7073
v  20.0757 258.9704 -20.9452
v  28.1434 252.8060 14.3798
v  39.7614 193.8239 12.2948
v  25.5586 217.7903 -36.0328
v  20.1836 248.9968 -30.9263
v  39.7614 75.5199 42.7073
v  -38.9788 186.3471 42.7074
v  12.2374 234.4680 42.7074
v  -38.9788 246.0242 6.4703
v  -38.9788 200.5326 38.1677
v  -31.5532 252.0651 23.9088
v  13.0608 257.8190 35.4821
v  -5.4718 266.5412 27.1184
v  -18.1212 266.5412 23.3149
v  -38.9788 242.3124 -16.3483
v  -38.9788 247.0491 -2.8122
v  -19.6148 266.5413 8.8026
v  -8.8238 266.5413 -15.7661
v  -33.5071 245.5690 -19.4997
v  8.8136 264.1030 -23.7813
v  2.5833 266.5413 -19.9831
v  13.0904 252.4070 -32.5335
v  8.2877 243.8040 -36.0328
v  -38.9788 197.7596 -36.0328
v  -25.4389 223.4685 -36.0328
# 42 vertices

vn -0.3031 -0.9122 0.2757
vn -0.4345 -0.6302 -0.6434
vn 0.2487 -0.9345 -0.2545
vn 0.0998 -0.9366 0.3358
vn 0.0000 -1.0000 -0.0000
vn 0.9234 0.2629 -0.2796
vn 0.4709 -0.7965 0.3791
vn 0.8123 0.5619 -0.1566
vn 1.0000 0.0000 -0.0000
vn 0.0000 -0.0000 1.0000
vn -0.7504 0.6088 0.2574
vn 0.7455 0.4382 0.5022
vn -0.1996 0.7209 0.6637
vn -0.2274 0.9687 -0.0999
vn 0.1276 0.9916 0.0218
vn 0.1956 0.9413 -0.2750
vn 0.2573 0.5798 -0.7731
vn -0.4220 0.7543 -0.5030
vn 0.0000 1.0000 0.0000
vn -1.0000 -0.0000 0.0000
vn -0.3012 0.9530 0.0310
vn -0.1581 0.8900 -0.4277
vn 0.0000 0.0000 -1.0000
# 23 vertex normals

vt 0.6250 0.2217 0.0000
vt 0.6250 0.2757 0.0000
vt 0.6165 0.2500 0.0000
vt 0.6250 0.9406 0.0000
vt 0.6250 0.0401 0.0000
vt 0.5840 1.0000 0.0000
vt 0.6250 0.7831 0.0000
vt 0.6162 0.7500 0.0000
vt 0.6250 0.7177 0.0000
vt 0.6250 0.4867 0.0000
vt 0.6200 0.4681 0.0000
vt 0.6250 0.4213 0.0000
vt 0.7037 0.5000 0.0000
vt 0.8493 0.5000 0.0000
vt 0.8750 0.5283 0.0000
vt 0.8750 0.7099 0.0000
vt 0.8156 0.7500 0.0000
vt 0.6581 0.7500 0.0000
vt 0.6250 0.5501 0.0000
vt 0.6533 0.5150 0.0000
vt 0.4724 0.7020 0.0000
vt 0.5235 0.7500 0.0000
vt 0.4594 0.7682 0.0000
vt 0.6011 0.5000 0.0000
vt 0.3701 0.7526 0.0000
vt 0.3510 0.5899 0.0000
vt 0.4430 0.5966 0.0000
vt 0.4206 0.7951 0.0000
vt 0.3868 0.7914 0.0000
vt 0.5537 0.5000 0.0000
vt 0.4500 0.2500 0.0000
vt 0.4050 0.4126 0.0000
vt 0.3942 0.1349 0.0000
vt 0.4367 0.2356 0.0000
vt 0.2876 0.3809 0.0000
vt 0.2984 0.5229 0.0000
vt 0.3176 0.5000 0.0000
vt 0.3518 0.4291 0.0000
vt 0.2959 0.4252 0.0000
vt 0.3977 0.3387 0.0000
vt 0.3932 0.2726 0.0000
vt 0.1865 0.6076 0.0000
vt 0.2339 0.6725 0.0000
vt 0.3690 0.4152 0.0000
vt 0.3182 0.7211 0.0000
vt 0.2818 0.6742 0.0000
vt 0.3567 0.7921 0.0000
vt 0.3963 0.8499 0.0000
vt 0.3455 0.7500 0.0000
vt 0.4393 0.0000 0.0000
vt 0.3977 0.0625 0.0000
vt 0.4153 0.2435 0.0000
vt 0.1912 0.5616 0.0000
vt 0.2314 0.5495 0.0000
vt 0.2570 0.6990 0.0000
vt 0.2207 0.6857 0.0000
vt 0.5840 0.0000 0.0000
vt 0.3932 0.1055 0.0000
vt 0.2638 0.5070 0.0000
vt 0.2971 0.7000 0.0000
vt 0.4393 1.0000 0.0000
vt 0.4153 0.9570 0.0000
# 62 texture coords

o Cube_008
g Cube_008
usemtl Material_002
s off
f 1/1/1 2/2/1 3/3/1 
f 4/4/2 5/5/2 6/6/2 
f 7/7/3 8/8/3 9/9/3 
f 10/10/4 11/11/4 12/12/4 
f 12/13/5 2/14/5 1/15/5 
f 12/13/5 1/15/5 5/16/5 
f 12/13/5 5/16/5 4/17/5 
f 12/13/5 4/17/5 7/18/5 
f 12/13/5 7/18/5 9/9/5 
f 12/13/5 9/9/5 13/19/5 
f 12/13/5 13/19/5 10/20/5 
f 14/21/6 15/22/6 16/23/6 
f 13/19/7 17/24/7 11/11/7 
f 11/11/7 10/10/7 13/19/7 
f 18/25/8 19/26/8 20/27/8 
f 18/25/8 20/27/8 14/21/8 
f 18/25/8 14/21/8 16/23/8 
f 18/25/8 16/23/8 21/28/8 
f 18/25/8 21/28/8 22/29/8 
f 23/30/9 17/24/9 13/19/9 
f 23/30/9 13/19/9 9/9/9 
f 23/30/9 9/9/9 8/8/9 
f 23/30/9 8/8/9 15/22/9 
f 23/30/9 15/22/9 14/21/9 
f 23/30/9 14/21/9 20/27/9 
f 24/31/10 3/3/10 2/2/10 
f 24/31/10 2/2/10 12/12/10 
f 24/31/10 12/12/10 11/11/10 
f 24/31/10 11/11/10 17/24/10 
f 24/31/10 17/24/10 23/30/10 
f 24/31/10 23/30/10 25/32/10 
f 26/33/11 27/34/11 28/35/11 
f 23/30/12 20/27/12 19/26/12 
f 23/30/12 19/26/12 29/36/12 
f 23/30/12 29/36/12 25/37/12 
f 30/38/13 31/39/13 28/35/13 
f 30/38/13 28/35/13 27/34/13 
f 30/38/13 27/34/13 24/31/13 
f 30/38/13 24/31/13 25/37/13 
f 30/38/13 25/37/13 29/36/13 
f 32/40/14 33/41/14 34/42/14 
f 32/40/14 34/42/14 35/43/14 
f 32/40/14 35/43/14 36/44/14 
f 18/25/15 37/45/15 38/46/15 
f 18/25/15 38/46/15 30/38/15 
f 18/25/15 30/38/15 29/36/15 
f 18/25/15 29/36/15 19/26/15 
f 22/29/16 39/47/16 37/45/16 
f 37/45/16 18/25/16 22/29/16 
f 21/28/17 40/48/17 39/47/17 
f 39/47/17 22/49/17 21/28/17 
f 41/50/18 32/51/18 36/44/18 
f 36/44/18 42/52/18 41/50/18 
f 31/53/19 30/54/19 38/55/19 
f 31/53/19 38/55/19 35/56/19 
f 31/53/19 35/56/19 34/42/19 
f 41/50/20 6/57/20 5/5/20 
f 41/50/20 5/5/20 1/1/20 
f 41/50/20 1/1/20 3/3/20 
f 41/50/20 3/3/20 24/31/20 
f 41/50/20 24/31/20 27/34/20 
f 41/50/20 27/34/20 26/33/20 
f 41/50/20 26/33/20 33/58/20 
f 41/50/20 33/58/20 32/51/20 
f 28/35/21 31/39/21 34/59/21 
f 28/35/21 34/59/21 33/41/21 
f 28/35/21 33/41/21 26/33/21 
f 40/48/22 42/52/22 36/44/22 
f 40/48/22 36/44/22 35/43/22 
f 40/48/22 35/43/22 38/46/22 
f 40/48/22 38/46/22 37/60/22 
f 40/48/22 37/60/22 39/47/22 
f 15/22/23 8/8/23 7/7/23 
f 15/22/23 7/7/23 4/4/23 
f 15/22/23 4/4/23 6/6/23 
f 15/22/23 6/6/23 41/61/23 
f 15/22/23 41/61/23 42/62/23 
f 15/22/23 42/62/23 40/48/23 
f 15/22/23 40/48/23 21/28/23 
f 15/22/23 21/28/23 16/23/23 
# 80 faces

