# 3ds Max Wavefront OBJ Exporter v0.99 - (c)2007 guruware
# File Created: 13.11.2022 22:41:14

mtllib widRock1.mtl

#
# object Sphere_002
#

v  28.3722 53.9964 -19.6311
v  32.4520 46.9347 -5.3429
v  34.3407 40.1986 -20.1936
v  35.0432 37.0845 -29.4852
v  30.1121 46.4995 -41.3085
v  25.6425 42.1677 39.5772
v  26.6298 41.5833 36.6321
v  31.8456 47.4346 -0.8174
v  19.8160 63.6496 12.7950
v  20.6056 51.4357 39.2066
v  15.7924 70.0220 5.8660
v  22.6823 62.0908 -18.3348
v  3.5924 51.6880 70.9017
v  21.0248 31.9811 59.0607
v  -7.6236 39.4765 -52.4962
v  17.8077 39.9944 -68.2702
v  19.8838 33.5201 -73.9619
v  18.2134 25.4316 -80.0773
v  -3.9135 16.1780 -74.0102
v  -8.1796 21.3542 -64.3909
v  -14.3525 51.0903 -31.9544
v  -14.2369 66.5969 -10.4299
v  18.3378 51.7551 -52.2323
v  29.3413 46.9334 -43.9410
v  23.9572 55.1476 -40.3633
v  25.5833 29.6849 -71.4116
v  -22.6571 5.5038 -34.4553
v  -22.6980 5.4364 -34.2425
v  -22.7375 5.4884 -34.1792
v  -16.5645 9.4052 -51.2503
v  -4.6872 12.1435 -72.1647
v  9.7168 0.0073 38.1556
v  9.3613 0.5897 40.3456
v  -10.4228 12.0221 72.5311
v  -14.5522 11.5386 66.9815
v  -20.2722 4.1055 30.3824
v  -18.0154 0.3219 16.1118
v  34.2066 27.4583 -21.0650
v  35.3239 28.9345 -34.5672
v  23.9745 19.2948 -77.1022
v  26.2538 24.2031 -72.9795
v  24.4343 19.4406 -76.6095
v  32.1344 17.4610 -55.4896
v  28.7319 13.2521 -63.4995
v  -6.2800 27.8252 102.4208
v  11.7129 15.8353 74.6891
v  9.1544 20.3485 84.8723
v  -14.1562 36.8742 107.6680
v  -19.4950 26.0263 84.2615
v  24.7303 28.3333 48.6497
v  20.7545 30.1923 60.7281
v  -13.7615 40.0791 104.8130
v  -7.8787 54.7200 85.7328
v  -31.2741 14.3096 9.3006
v  -24.5717 50.1139 -3.6563
v  -21.3499 52.0879 -17.1957
v  -25.1719 8.1286 -21.1034
v  -26.8059 7.0408 -14.2783
v  -30.0415 13.8514 20.3591
v  -21.2330 0.4781 -20.2470
v  -14.6348 66.9532 -9.3584
v  4.2621 74.3776 17.7847
v  34.3983 20.4117 -44.5642
v  31.0775 17.7229 0.4947
v  26.6061 13.3383 32.6908
v  24.3589 10.8139 36.9194
v  15.3724 -0.0014 26.9835
v  -20.7426 0.4892 -24.5688
v  -20.1712 54.3380 -19.0315
v  17.7380 5.9300 -70.9575
v  20.6168 3.7037 -64.3373
v  17.4692 0.2696 -54.6242
v  5.4343 0.3761 -55.7233
v  7.2438 5.3715 -70.0341
v  -18.3256 65.8786 -5.5462
v  -20.0931 65.6682 3.6620
v  -9.7418 63.4354 69.3516
v  -5.0406 72.2048 40.3957
v  -15.0025 68.8498 39.6498
v  -13.0531 62.7285 67.4386
# 80 vertices

vn 0.3492 0.9362 -0.0408
vn 0.2805 0.9541 0.1052
vn 0.2279 0.9734 0.0217
vn 0.2685 0.9335 0.2376
vn -0.1286 0.9400 -0.3161
vn -0.0740 0.9790 -0.1898
vn 0.2166 0.9743 -0.0621
vn 0.1595 0.9667 -0.2002
vn -0.3853 -0.9009 -0.2001
vn -0.7097 0.3142 -0.6306
vn -0.0320 -0.9975 0.0630
vn 0.9863 -0.0976 0.1328
vn 0.2619 0.8366 -0.4812
vn 0.7572 -0.4532 -0.4704
vn 0.0192 -0.9919 0.1256
vn -0.1160 -0.9792 0.1665
vn 0.7133 0.5981 0.3655
vn 0.3023 0.8907 0.3395
vn -0.7985 0.5246 -0.2952
vn -0.2258 -0.9678 0.1117
vn -0.1751 -0.9842 0.0247
vn 0.0089 0.9964 -0.0839
vn 0.6636 -0.7448 0.0693
vn 0.6137 0.7435 -0.2656
vn 0.9685 -0.1183 0.2193
vn 0.4921 -0.8161 0.3032
vn 0.1236 -0.9868 0.1042
vn -0.2852 -0.9556 -0.0743
vn -0.5719 0.7372 -0.3597
vn 0.0037 -0.9957 -0.0931
vn -0.1620 0.9689 -0.1870
vn -0.3952 0.9106 -0.1205
vn -0.0575 0.9962 0.0660
vn -0.0890 0.9834 0.1581
vn 0.1327 0.9843 0.1163
vn -0.5714 0.8126 0.1150
vn -0.0541 0.9985 -0.0111
vn -0.0795 -0.9907 -0.1101
vn 0.1873 -0.9823 0.0071
vn -0.0014 -1.0000 -0.0010
vn 0.1964 -0.9535 -0.2286
vn -0.0185 -0.8619 -0.5067
# 42 vertex normals

vt 0.7921 0.7158 0.0000
vt 0.8355 0.6522 0.0000
vt 0.8352 0.7302 0.0000
vt 0.8316 0.7781 0.0000
vt 0.7842 0.8277 0.0000
vt 0.8314 0.4149 0.0000
vt 0.8356 0.4315 0.0000
vt 0.8356 0.6284 0.0000
vt 0.7619 0.5372 0.0000
vt 0.7944 0.4070 0.0000
vt 0.7261 0.5641 0.0000
vt 0.7522 0.6983 0.0000
vt 0.7047 0.2166 0.0000
vt 0.8187 0.3092 0.0000
vt 0.5073 0.8132 0.0000
vt 0.6718 0.9397 0.0000
vt 0.6817 0.9723 0.0000
vt 0.6648 1.0000 0.0000
vt 0.5152 0.9285 0.0000
vt 0.4938 0.8723 0.0000
vt 0.4783 0.6975 0.0000
vt 0.4983 0.5895 0.0000
vt 0.6898 0.8601 0.0000
vt 0.7762 0.8394 0.0000
vt 0.7407 0.8111 0.0000
vt 0.7249 0.9703 0.0000
vt 0.0201 0.3056 0.0000
vt 0.0201 0.3067 0.0000
vt 0.0198 0.3071 0.0000
vt 0.8945 0.7338 0.0000
vt 0.9424 0.8153 0.0000
vt 0.9561 0.8743 0.0000
vt 0.9489 0.8650 0.0000
vt 0.3193 0.6082 0.0000
vt 0.3188 0.6198 0.0000
vt 0.2083 0.8173 0.0000
vt 0.1737 0.7973 0.0000
vt 0.0989 0.6254 0.0000
vt 0.1016 0.5499 0.0000
vt 0.9723 0.4292 0.0000
vt 0.9876 0.4330 0.0000
vt 0.9875 0.5029 0.0000
vt 0.9772 0.4771 0.0000
vt 0.7091 0.9961 0.0000
vt 0.7287 0.9796 0.0000
vt 0.7128 0.9945 0.0000
vt 0.8447 0.9690 0.0000
vt 0.8356 0.9340 0.0000
vt 0.8370 0.8743 0.0000
vt 0.8447 0.8896 0.0000
vt 0.2649 0.9583 0.0000
vt 0.3670 0.7865 0.0000
vt 0.3582 0.8420 0.0000
vt 0.2133 0.9989 0.0000
vt 0.1540 0.8924 0.0000
vt 0.9809 0.0669 0.0000
vt 0.9661 0.1309 0.0000
vt 0.9656 0.1145 0.0000
vt 0.9774 0.0089 0.0000
vt 0.9794 0.0000 0.0000
vt 0.6161 0.0149 0.0000
vt 0.6164 0.0000 0.0000
vt 0.6680 0.0413 0.0000
vt 0.7610 0.1582 0.0000
vt 0.8186 0.3004 0.0000
vt 0.6376 0.1209 0.0000
vt 0.8356 0.4090 0.0000
vt 0.8986 0.4758 0.0000
vt 0.9144 0.5471 0.0000
vt 0.8560 0.5696 0.0000
vt 0.8479 0.5336 0.0000
vt 0.0193 0.5931 0.0000
vt 0.0098 0.4142 0.0000
vt 0.0442 0.3741 0.0000
vt 0.0000 0.5401 0.0000
vt 0.4965 0.5834 0.0000
vt 0.6556 0.4828 0.0000
vt 1.0000 0.5516 0.0000
vt 0.9974 0.3192 0.0000
vt 0.8295 0.8043 0.0000
vt 0.8142 0.8529 0.0000
vt 0.7879 0.9034 0.0000
vt 0.9631 0.3517 0.0000
vt 0.9621 0.3279 0.0000
vt 1.0000 0.1498 0.0000
vt 0.4167 0.6991 0.0000
vt 0.4211 0.5741 0.0000
vt 0.4329 0.5487 0.0000
vt 0.4336 0.6313 0.0000
vt 0.3488 0.5418 0.0000
vt 0.0148 0.3769 0.0000
vt 0.0435 0.3516 0.0000
vt 0.9216 0.5583 0.0000
vt 0.9439 0.6365 0.0000
vt 0.9621 0.7556 0.0000
vt 0.8644 0.6396 0.0000
vt 0.8640 0.6381 0.0000
vt 0.2719 0.0473 0.0000
vt 0.2988 0.0751 0.0000
vt 0.2859 0.1298 0.0000
vt 0.1995 0.1468 0.0000
vt 0.1983 0.0716 0.0000
vt 0.4493 0.6218 0.0000
vt 0.4742 0.5575 0.0000
vt 0.4336 0.5368 0.0000
vt 0.4706 0.5081 0.0000
vt 0.4430 0.6105 0.0000
vt 0.6077 0.1990 0.0000
vt 0.6119 0.3524 0.0000
vt 0.5411 0.3375 0.0000
vt 0.5825 0.2024 0.0000
vt 0.9382 0.0132 0.0000
vt 0.9621 0.1790 0.0000
vt 0.9589 0.2987 0.0000
vt 0.9330 0.4500 0.0000
vt 0.8407 0.3620 0.0000
vt 0.8995 0.0955 0.0000
vt 0.9335 0.0000 0.0000
vt 0.0471 0.2100 0.0000
vt 0.1112 0.0830 0.0000
vt 0.3878 0.0972 0.0000
vt 0.4140 0.1475 0.0000
vt 0.4336 0.3791 0.0000
vt 0.3564 0.0637 0.0000
vt 0.3129 0.0059 0.0000
vt 0.3092 0.0043 0.0000
vt 0.1146 0.0722 0.0000
vt 0.2650 0.0000 0.0000
# 128 texture coords

o Sphere_002
g Sphere_002
usemtl Material_002
s off
f 1/1/1 2/2/1 3/3/1 
f 1/1/1 3/3/1 4/4/1 
f 1/1/1 4/4/1 5/5/1 
f 6/6/2 7/7/2 8/8/2 
f 6/6/2 8/8/2 9/9/2 
f 6/6/2 9/9/2 10/10/2 
f 11/11/3 9/9/3 8/8/3 
f 11/11/3 8/8/3 2/2/3 
f 11/11/3 2/2/3 1/1/3 
f 11/11/3 1/1/3 12/12/3 
f 13/13/4 14/14/4 6/6/4 
f 6/6/4 10/10/4 13/13/4 
f 15/15/5 16/16/5 17/17/5 
f 15/15/5 17/17/5 18/18/5 
f 15/15/5 18/18/5 19/19/5 
f 15/15/5 19/19/5 20/20/5 
f 15/15/6 21/21/6 22/22/6 
f 15/15/6 22/22/6 23/23/6 
f 15/15/6 23/23/6 16/16/6 
f 1/1/7 5/5/7 24/24/7 
f 1/1/7 24/24/7 25/25/7 
f 1/1/7 25/25/7 12/12/7 
f 16/16/8 23/23/8 25/25/8 
f 16/16/8 25/25/8 24/24/8 
f 16/16/8 24/24/8 26/26/8 
f 16/16/8 26/26/8 17/17/8 
f 27/27/9 28/28/9 29/29/9 
f 30/30/10 20/31/10 19/32/10 
f 19/32/10 31/33/10 30/30/10 
f 32/34/11 33/35/11 34/36/11 
f 32/34/11 34/36/11 35/37/11 
f 32/34/11 35/37/11 36/38/11 
f 32/34/11 36/38/11 37/39/11 
f 3/40/12 38/41/12 39/42/12 
f 39/42/12 4/43/12 3/40/12 
f 40/44/13 18/18/13 17/17/13 
f 40/44/13 17/17/13 26/26/13 
f 40/44/13 26/26/13 41/45/13 
f 40/44/13 41/45/13 42/46/13 
f 43/47/14 44/48/14 42/49/14 
f 42/49/14 41/50/14 43/47/14 
f 45/51/15 34/36/15 33/35/15 
f 45/51/15 33/35/15 46/52/15 
f 45/51/15 46/52/15 47/53/15 
f 48/54/16 49/55/16 35/37/16 
f 48/54/16 35/37/16 34/36/16 
f 48/54/16 34/36/16 45/51/16 
f 50/56/17 7/57/17 6/58/17 
f 50/56/17 6/58/17 14/59/17 
f 50/56/17 14/59/17 51/60/17 
f 52/61/18 48/62/18 45/63/18 
f 52/61/18 45/63/18 47/64/18 
f 52/61/18 47/64/18 51/65/18 
f 52/61/18 51/65/18 14/14/18 
f 52/61/18 14/14/18 13/13/18 
f 52/61/18 13/13/18 53/66/18 
f 54/67/19 55/68/19 56/69/19 
f 54/67/19 56/69/19 57/70/19 
f 54/67/19 57/70/19 58/71/19 
f 35/37/20 49/55/20 59/72/20 
f 59/72/20 36/38/20 35/37/20 
f 58/73/21 60/74/21 37/39/21 
f 58/73/21 37/39/21 36/38/21 
f 58/73/21 36/38/21 59/72/21 
f 58/73/21 59/72/21 54/75/21 
f 61/76/22 62/77/22 11/11/22 
f 61/76/22 11/11/22 12/12/22 
f 61/76/22 12/12/22 25/25/22 
f 61/76/22 25/25/22 23/23/22 
f 61/76/22 23/23/22 22/22/22 
f 63/78/23 39/42/23 38/41/23 
f 38/41/23 64/79/23 63/78/23 
f 41/45/24 26/26/24 24/24/24 
f 41/45/24 24/24/24 5/5/24 
f 41/45/24 5/5/24 4/4/24 
f 41/45/24 4/4/24 39/80/24 
f 41/45/24 39/80/24 63/81/24 
f 41/45/24 63/81/24 43/82/24 
f 2/83/25 8/84/25 7/57/25 
f 2/83/25 7/57/25 50/56/25 
f 2/83/25 50/56/25 65/85/25 
f 2/83/25 65/85/25 64/79/25 
f 2/83/25 64/79/25 38/41/25 
f 2/83/25 38/41/25 3/40/25 
f 51/86/26 47/53/26 46/52/26 
f 51/86/26 46/52/26 66/87/26 
f 51/86/26 66/87/26 65/88/26 
f 51/86/26 65/88/26 50/89/26 
f 32/34/27 67/90/27 66/87/27 
f 32/34/27 66/87/27 46/52/27 
f 32/34/27 46/52/27 33/35/27 
f 60/74/28 58/73/28 57/91/28 
f 57/91/28 29/29/28 28/28/28 
f 60/74/28 57/91/28 28/28/28 
f 60/74/28 28/28/28 68/92/28 
f 57/70/29 56/69/29 69/93/29 
f 57/70/29 69/93/29 21/94/29 
f 57/70/29 21/94/29 15/95/29 
f 57/70/29 15/95/29 20/31/29 
f 57/70/29 20/31/29 30/30/29 
f 57/70/29 30/30/29 27/96/29 
f 57/70/29 27/96/29 29/97/29 
f 70/98/30 71/99/30 72/100/30 
f 70/98/30 72/100/30 73/101/30 
f 70/98/30 73/101/30 74/102/30 
f 22/22/31 21/21/31 69/103/31 
f 22/22/31 69/103/31 75/104/31 
f 22/22/31 75/104/31 61/76/31 
f 55/105/32 76/106/32 75/104/32 
f 55/105/32 75/104/32 69/103/32 
f 55/105/32 69/103/32 56/107/32 
f 77/108/33 78/109/33 79/110/33 
f 79/110/33 80/111/33 77/108/33 
f 53/66/34 77/108/34 80/111/34 
f 80/111/34 52/61/34 53/66/34 
f 13/13/35 10/10/35 9/9/35 
f 13/13/35 9/9/35 11/11/35 
f 13/13/35 11/11/35 62/77/35 
f 13/13/35 62/77/35 78/109/35 
f 13/13/35 78/109/35 77/108/35 
f 13/13/35 77/108/35 53/66/35 
f 52/112/36 80/113/36 79/114/36 
f 52/112/36 79/114/36 76/115/36 
f 52/112/36 76/115/36 55/68/36 
f 52/112/36 55/68/36 54/67/36 
f 52/112/36 54/67/36 59/116/36 
f 52/112/36 59/116/36 49/117/36 
f 52/112/36 49/117/36 48/118/36 
f 62/77/37 61/76/37 75/104/37 
f 62/77/37 75/104/37 76/106/37 
f 62/77/37 76/106/37 79/110/37 
f 62/77/37 79/110/37 78/109/37 
f 28/28/38 27/27/38 30/119/38 
f 28/28/38 30/119/38 31/120/38 
f 28/28/38 31/120/38 74/102/38 
f 28/28/38 74/102/38 73/101/38 
f 28/28/38 73/101/38 68/92/38 
f 43/121/39 63/122/39 64/123/39 
f 43/121/39 64/123/39 65/88/39 
f 43/121/39 65/88/39 66/87/39 
f 43/121/39 66/87/39 67/90/39 
f 43/121/39 67/90/39 72/100/39 
f 43/121/39 72/100/39 71/99/39 
f 43/121/39 71/99/39 44/124/39 
f 32/34/40 37/39/40 60/74/40 
f 32/34/40 60/74/40 68/92/40 
f 32/34/40 68/92/40 73/101/40 
f 32/34/40 73/101/40 72/100/40 
f 32/34/40 72/100/40 67/90/40 
f 42/125/41 44/124/41 71/99/41 
f 42/125/41 71/99/41 70/98/41 
f 42/125/41 70/98/41 40/126/41 
f 40/126/42 70/98/42 74/102/42 
f 40/126/42 74/102/42 31/120/42 
f 40/126/42 31/120/42 19/127/42 
f 40/126/42 19/127/42 18/128/42 
# 156 faces

