# 3ds Max Wavefront OBJ Exporter v0.99 - (c)2007 guruware
# File Created: 13.11.2022 22:19:23

mtllib rune.mtl

#
# object Box001
#

v  -5.0227 -0.6429 11.7103
v  -5.0227 -0.6429 -11.7103
v  5.0227 -0.6429 -11.7103
v  5.0227 -0.6429 11.7103
v  -5.0227 8.0151 11.7103
v  5.0227 8.0151 11.7103
v  5.0227 8.0151 -11.7103
v  -5.0227 8.0151 -11.7103
v  -6.3922 1.9127 15.0665
v  6.3922 1.9127 15.0665
v  6.3922 5.4595 15.0665
v  -6.3922 5.4595 15.0665
v  9.1764 1.9127 12.8168
v  9.1764 1.9127 -12.8168
v  9.1764 5.4595 -12.8168
v  9.1764 5.4595 12.8168
v  6.3922 1.9127 -15.0665
v  -6.3922 1.9127 -15.0665
v  -6.3922 5.4595 -15.0665
v  6.3922 5.4595 -15.0665
v  -9.1764 1.9127 -12.8168
v  -9.1764 1.9127 12.8168
v  -9.1764 5.4595 12.8168
v  -9.1764 5.4595 -12.8168
v  -8.3049 0.0000 14.3623
v  -8.3049 0.0000 -14.3623
v  8.3049 0.0000 -14.3623
v  8.3049 0.0000 14.3623
v  -8.3049 7.3722 14.3623
v  8.3049 7.3722 14.3623
v  8.3049 7.3722 -14.3623
v  -8.3049 7.3722 -14.3623
# 32 vertices

vn 0.0000 -1.0000 -0.0000
vn 0.0000 1.0000 -0.0000
vn 0.0000 0.0000 1.0000
vn 1.0000 0.0000 -0.0000
vn 0.0000 0.0000 -1.0000
vn -1.0000 0.0000 -0.0000
vn -0.1922 -0.9814 -0.0000
vn 0.0000 -0.9718 -0.2356
vn 0.1922 -0.9814 -0.0000
vn 0.0000 -0.9718 0.2356
vn 0.0000 0.9718 0.2356
vn 0.1922 0.9814 -0.0000
vn 0.0000 0.9718 -0.2356
vn -0.1922 0.9814 -0.0000
vn 0.0000 -0.3455 0.9384
vn 0.3455 0.0000 0.9384
vn 0.0000 0.3455 0.9384
vn -0.3455 0.0000 0.9384
vn 0.0000 -0.3455 -0.9384
vn -0.3455 0.0000 -0.9384
vn 0.0000 0.3455 -0.9384
vn 0.3455 0.0000 -0.9384
vn 0.9100 -0.4147 -0.0000
vn 0.8710 0.0000 -0.4912
vn 0.9100 0.4147 -0.0000
vn 0.8710 0.0000 0.4912
vn -0.9100 -0.4147 -0.0000
vn -0.8710 0.0000 0.4912
vn -0.9100 0.4147 -0.0000
vn -0.8710 0.0000 -0.4912
# 30 vertex normals

vt 0.3993 0.3035 0.5181
vt 0.3559 0.0711 0.5181
vt 0.4555 0.0525 0.5181
vt 0.4989 0.2849 0.5181
vt 0.9636 0.9705 0.5180
vt 0.5590 0.9660 -0.5180
vt 0.5694 0.0227 0.5180
vt 0.9740 0.0272 -0.5180
vt 0.0920 0.3811 0.0000
vt 0.0615 0.5064 0.0000
vt 0.0267 0.4980 1.0368
vt 0.0572 0.3727 -1.0368
vt 0.1657 0.4169 0.5187
vt 0.0496 0.6479 -0.5187
vt 0.0176 0.6319 0.5187
vt 0.1338 0.4008 -0.5187
vt 0.4253 0.3814 0.0000
vt 0.3532 0.4884 0.0000
vt 0.3235 0.4684 1.0376
vt 0.3956 0.3614 -1.0376
vt 0.3306 0.7124 0.0705
vt 0.3019 0.9694 -0.0705
vt 0.2663 0.9654 0.0705
vt 0.2951 0.7084 -0.0705
vt 0.3730 0.3395 0.5181
vt 0.3066 0.0574 0.5181
vt 0.3456 0.0757 0.5181
vt 0.3997 0.3058 0.5181
vt 0.3184 0.0469 0.5181
vt 0.4838 0.0200 0.5181
vt 0.3555 0.0688 0.5181
vt 0.5370 0.3050 0.5181
vt 0.2198 0.3634 0.5181
vt 0.0526 0.3522 0.5181
vt 0.0874 0.3269 0.5181
vt 0.1886 0.3337 0.5181
vt 0.0652 0.0626 0.5181
vt 0.0977 0.0908 0.5181
vt 0.2328 0.0660 -0.5181
vt 0.1991 0.0929 0.5181
vt 0.2336 0.3559 0.5181
vt 0.1997 0.3292 0.5181
vt 0.3075 0.3641 0.5181
vt 0.2995 0.5315 0.5181
vt 0.2799 0.5113 0.5181
vt 0.2860 0.3824 0.5181
vt 0.2767 0.5384 0.5181
vt 0.2045 0.5209 0.5181
vt 0.2280 0.5054 0.5181
vt 0.2628 0.5139 0.5181
vt 0.2505 0.3785 0.5181
vt 0.1709 0.8260 0.5181
vt 0.1053 0.9800 0.5181
vt 0.0940 0.9542 0.5181
vt 0.1445 0.8357 0.5181
vt 0.0816 0.9786 0.5181
vt 0.0200 0.9370 -0.5181
vt 0.0475 0.9308 0.5181
vt 0.0771 0.9508 0.5181
vt 0.1046 0.7926 0.5181
vt 0.1126 0.8196 0.5181
vt 0.2407 0.8258 0.5181
vt 0.2216 0.8077 0.5181
vt 0.2537 0.5512 0.5181
vt 0.1298 0.7853 0.5181
vt 0.1618 0.8014 0.5181
vt 0.2190 0.5428 0.5181
vt 0.3488 0.3292 0.5181
vt 0.2896 0.0774 0.5181
vt 0.2547 0.3402 0.5181
vt 0.2903 0.3442 0.5181
vt 0.2540 0.0816 0.5181
# 72 texture coords

o Box001
g Box001
usemtl PhysicalMaterial
s 2
f 1/1/1 2/2/1 3/3/1 
f 3/3/1 4/4/1 1/1/1 
s 4
f 5/5/2 6/6/2 7/7/2 
f 7/7/2 8/8/2 5/5/2 
s 8
f 9/9/3 10/10/3 11/11/3 
f 11/11/3 12/12/3 9/9/3 
s 16
f 13/13/4 14/14/4 15/15/4 
f 15/15/4 16/16/4 13/13/4 
s 32
f 17/17/5 18/18/5 19/19/5 
f 19/19/5 20/20/5 17/17/5 
s 64
f 21/21/6 22/22/6 23/23/6 
f 23/23/6 24/24/6 21/21/6 
s off
f 25/25/7 26/26/7 2/27/7 
f 2/27/7 1/28/7 25/25/7 
f 26/29/8 27/30/8 3/3/8 
f 3/3/8 2/31/8 26/29/8 
f 27/30/9 28/32/9 4/4/9 
f 4/4/9 3/3/9 27/30/9 
f 28/32/10 25/25/10 1/28/10 
f 1/28/10 4/4/10 28/32/10 
f 29/33/11 30/34/11 6/35/11 
f 6/35/11 5/36/11 29/33/11 
f 30/34/12 31/37/12 7/38/12 
f 7/38/12 6/35/12 30/34/12 
f 31/37/13 32/39/13 8/40/13 
f 8/40/13 7/38/13 31/37/13 
f 32/39/14 29/41/14 5/42/14 
f 5/42/14 8/40/14 32/39/14 
f 25/43/15 28/44/15 10/45/15 
f 10/45/15 9/46/15 25/43/15 
f 28/47/16 30/48/16 11/49/16 
f 11/49/16 10/50/16 28/47/16 
f 30/48/17 29/41/17 12/51/17 
f 12/51/17 11/49/17 30/48/17 
f 29/41/18 25/43/18 9/46/18 
f 9/46/18 12/51/18 29/41/18 
f 27/52/19 26/53/19 18/54/19 
f 18/54/19 17/55/19 27/52/19 
f 26/56/20 32/57/20 19/58/20 
f 19/58/20 18/59/20 26/56/20 
f 32/57/21 31/60/21 20/61/21 
f 20/61/21 19/58/21 32/57/21 
f 31/60/22 27/52/22 17/55/22 
f 17/55/22 20/61/22 31/60/22 
f 28/47/23 27/62/23 14/63/23 
f 14/63/23 13/64/23 28/47/23 
f 27/52/24 31/60/24 15/65/24 
f 15/65/24 14/66/24 27/52/24 
f 31/60/25 30/48/25 16/67/25 
f 16/67/25 15/65/25 31/60/25 
f 30/48/26 28/47/26 13/64/26 
f 13/64/26 16/67/26 30/48/26 
f 26/26/27 25/25/27 22/68/27 
f 22/68/27 21/69/27 26/26/27 
f 25/43/28 29/41/28 23/70/28 
f 23/70/28 22/71/28 25/43/28 
f 29/41/29 32/39/29 24/72/29 
f 24/72/29 23/70/29 29/41/29 
f 32/39/30 26/26/30 21/69/30 
f 21/69/30 24/72/30 32/39/30 
# 60 faces

