# 3ds Max Wavefront OBJ Exporter v0.99 - (c)2007 guruware
# File Created: 17.12.2022 15:22:37

mtllib Snake_Tail.mtl

#
# object Cylinder001
#

v  0.0000 0.0000 -34.8587
v  7.9054 7.9054 -34.8587
v  11.1800 0.0000 -34.8587
v  -0.0000 11.1800 -34.8587
v  -7.9054 7.9054 -34.8587
v  -11.1800 -0.0000 -34.8587
v  -7.9054 -7.9054 -34.8587
v  0.0000 -11.1800 -34.8587
v  7.9054 -7.9054 -34.8587
v  7.9054 7.9054 -27.7089
v  11.1800 -0.0000 -27.7089
v  -0.0000 11.1800 -27.7089
v  -7.9054 7.9054 -27.7089
v  -11.1800 -0.0000 -27.7089
v  -7.9054 -7.9054 -27.7089
v  0.0000 -11.1800 -27.7089
v  7.9054 -7.9054 -27.7089
v  7.9054 7.9054 -20.5592
v  11.1800 -0.0000 -20.5592
v  -0.0000 11.1800 -20.5592
v  -7.9054 7.9054 -20.5592
v  -11.1800 -0.0000 -20.5592
v  -7.9054 -7.9054 -20.5592
v  0.0000 -11.1800 -20.5592
v  7.9054 -7.9054 -20.5592
v  7.9054 7.9054 -13.4094
v  11.1800 -0.0000 -13.4094
v  -0.0000 11.1800 -13.4094
v  -7.9054 7.9054 -13.4094
v  -11.1800 -0.0000 -13.4094
v  -7.9054 -7.9054 -13.4094
v  0.0000 -11.1800 -13.4094
v  7.9054 -7.9054 -13.4094
v  7.9054 7.9054 -6.2597
v  11.1800 -0.0000 -6.2597
v  -0.0000 11.1800 -6.2597
v  -7.9054 7.9054 -6.2597
v  -11.1800 -0.0000 -6.2597
v  -7.9054 -7.9054 -6.2597
v  0.0000 -11.1800 -6.2597
v  7.9054 -7.9054 -6.2597
v  7.9054 7.9054 0.8901
v  11.1800 -0.0000 0.8901
v  -0.0000 11.1800 0.8901
v  -7.9054 7.9054 0.8901
v  -11.1800 -0.0000 0.8901
v  -7.9054 -7.9054 0.8901
v  0.0000 -11.1800 0.8901
v  7.9054 -7.9054 0.8901
v  0.0000 -0.0000 0.8901
# 50 vertices

vn 0.0000 0.0000 -1.0000
vn 1.0000 0.0000 -0.0000
vn 0.7071 0.7071 0.0000
vn 1.0000 0.0000 0.0000
vn -0.0000 1.0000 0.0000
vn -0.7071 0.7071 0.0000
vn -1.0000 -0.0000 -0.0000
vn -0.7071 -0.7071 -0.0000
vn -0.0000 -1.0000 -0.0000
vn 0.7071 -0.7071 -0.0000
vn 1.0000 -0.0000 -0.0000
vn 0.0000 -0.0000 1.0000
# 12 vertex normals

vt 0.5000 0.0000 0.0000
vt 0.8750 0.0000 1.0000
vt 0.7500 0.0000 1.0000
vt 0.0000 0.0000 1.0000
vt -0.1250 0.0000 1.0000
vt 0.1250 0.0000 1.0000
vt 0.2500 0.0000 1.0000
vt 0.3750 0.0000 1.0000
vt 0.5000 0.0000 1.0000
vt 0.6250 0.0000 1.0000
vt 0.8750 0.2000 1.0000
vt 0.7500 0.2000 1.0000
vt 0.0000 0.2000 1.0000
vt -0.1250 0.2000 1.0000
vt 0.1250 0.2000 1.0000
vt 0.2500 0.2000 1.0000
vt 0.3750 0.2000 1.0000
vt 0.5000 0.2000 1.0000
vt 0.6250 0.2000 1.0000
vt 0.8750 0.4000 1.0000
vt 0.7500 0.4000 1.0000
vt 0.0000 0.4000 1.0000
vt -0.1250 0.4000 1.0000
vt 0.1250 0.4000 1.0000
vt 0.2500 0.4000 1.0000
vt 0.3750 0.4000 1.0000
vt 0.5000 0.4000 1.0000
vt 0.6250 0.4000 1.0000
vt 0.8750 0.6000 1.0000
vt 0.7500 0.6000 1.0000
vt 0.0000 0.6000 1.0000
vt -0.1250 0.6000 1.0000
vt 0.1250 0.6000 1.0000
vt 0.2500 0.6000 1.0000
vt 0.3750 0.6000 1.0000
vt 0.5000 0.6000 1.0000
vt 0.6250 0.6000 1.0000
vt 0.8750 0.8000 1.0000
vt 0.7500 0.8000 1.0000
vt 0.0000 0.8000 1.0000
vt -0.1250 0.8000 1.0000
vt 0.1250 0.8000 1.0000
vt 0.2500 0.8000 1.0000
vt 0.3750 0.8000 1.0000
vt 0.5000 0.8000 1.0000
vt 0.6250 0.8000 1.0000
vt 0.8750 1.0000 1.0000
vt 0.7500 1.0000 1.0000
vt 0.0000 1.0000 1.0000
vt -0.1250 1.0000 1.0000
vt 0.1250 1.0000 1.0000
vt 0.2500 1.0000 1.0000
vt 0.3750 1.0000 1.0000
vt 0.5000 1.0000 1.0000
vt 0.6250 1.0000 1.0000
vt 0.5000 1.0000 0.0000
# 56 texture coords

o Cylinder001
g Cylinder001
usemtl wire_228184153
s 1
f 1/1/1 2/2/1 3/3/1 
f 1/1/1 4/4/1 2/5/1 
f 1/1/1 5/6/1 4/4/1 
f 1/1/1 6/7/1 5/6/1 
f 1/1/1 7/8/1 6/7/1 
f 1/1/1 8/9/1 7/8/1 
f 1/1/1 9/10/1 8/9/1 
f 1/1/1 3/3/1 9/10/1 
s 8
f 3/3/2 10/11/3 11/12/4 
f 3/3/2 2/2/3 10/11/3 
f 2/5/3 12/13/5 10/14/3 
f 2/5/3 4/4/5 12/13/5 
f 4/4/5 13/15/6 12/13/5 
f 4/4/5 5/6/6 13/15/6 
f 5/6/6 14/16/7 13/15/6 
f 5/6/6 6/7/7 14/16/7 
f 6/7/7 15/17/8 14/16/7 
f 6/7/7 7/8/8 15/17/8 
f 7/8/8 16/18/9 15/17/8 
f 7/8/8 8/9/9 16/18/9 
f 8/9/9 17/19/10 16/18/9 
f 8/9/9 9/10/10 17/19/10 
f 9/10/10 11/12/4 17/19/10 
f 9/10/10 3/3/2 11/12/4 
f 11/12/4 18/20/3 19/21/11 
f 11/12/4 10/11/3 18/20/3 
f 10/14/3 20/22/5 18/23/3 
f 10/14/3 12/13/5 20/22/5 
f 12/13/5 21/24/6 20/22/5 
f 12/13/5 13/15/6 21/24/6 
f 13/15/6 22/25/7 21/24/6 
f 13/15/6 14/16/7 22/25/7 
f 14/16/7 23/26/8 22/25/7 
f 14/16/7 15/17/8 23/26/8 
f 15/17/8 24/27/9 23/26/8 
f 15/17/8 16/18/9 24/27/9 
f 16/18/9 25/28/10 24/27/9 
f 16/18/9 17/19/10 25/28/10 
f 17/19/10 19/21/11 25/28/10 
f 17/19/10 11/12/4 19/21/11 
f 19/21/11 26/29/3 27/30/2 
f 19/21/11 18/20/3 26/29/3 
f 18/23/3 28/31/5 26/32/3 
f 18/23/3 20/22/5 28/31/5 
f 20/22/5 29/33/6 28/31/5 
f 20/22/5 21/24/6 29/33/6 
f 21/24/6 30/34/7 29/33/6 
f 21/24/6 22/25/7 30/34/7 
f 22/25/7 31/35/8 30/34/7 
f 22/25/7 23/26/8 31/35/8 
f 23/26/8 32/36/9 31/35/8 
f 23/26/8 24/27/9 32/36/9 
f 24/27/9 33/37/10 32/36/9 
f 24/27/9 25/28/10 33/37/10 
f 25/28/10 27/30/2 33/37/10 
f 25/28/10 19/21/11 27/30/2 
f 27/30/2 34/38/3 35/39/11 
f 27/30/2 26/29/3 34/38/3 
f 26/32/3 36/40/5 34/41/3 
f 26/32/3 28/31/5 36/40/5 
f 28/31/5 37/42/6 36/40/5 
f 28/31/5 29/33/6 37/42/6 
f 29/33/6 38/43/7 37/42/6 
f 29/33/6 30/34/7 38/43/7 
f 30/34/7 39/44/8 38/43/7 
f 30/34/7 31/35/8 39/44/8 
f 31/35/8 40/45/9 39/44/8 
f 31/35/8 32/36/9 40/45/9 
f 32/36/9 41/46/10 40/45/9 
f 32/36/9 33/37/10 41/46/10 
f 33/37/10 35/39/11 41/46/10 
f 33/37/10 27/30/2 35/39/11 
f 35/39/11 42/47/3 43/48/4 
f 35/39/11 34/38/3 42/47/3 
f 34/41/3 44/49/5 42/50/3 
f 34/41/3 36/40/5 44/49/5 
f 36/40/5 45/51/6 44/49/5 
f 36/40/5 37/42/6 45/51/6 
f 37/42/6 46/52/7 45/51/6 
f 37/42/6 38/43/7 46/52/7 
f 38/43/7 47/53/8 46/52/7 
f 38/43/7 39/44/8 47/53/8 
f 39/44/8 48/54/9 47/53/8 
f 39/44/8 40/45/9 48/54/9 
f 40/45/9 49/55/10 48/54/9 
f 40/45/9 41/46/10 49/55/10 
f 41/46/10 43/48/4 49/55/10 
f 41/46/10 35/39/11 43/48/4 
s 1
f 50/56/12 43/48/12 42/47/12 
f 50/56/12 42/50/12 44/49/12 
f 50/56/12 44/49/12 45/51/12 
f 50/56/12 45/51/12 46/52/12 
f 50/56/12 46/52/12 47/53/12 
f 50/56/12 47/53/12 48/54/12 
f 50/56/12 48/54/12 49/55/12 
f 50/56/12 49/55/12 43/48/12 
# 96 faces

