# 3ds Max Wavefront OBJ Exporter v0.99 - (c)2007 guruware
# File Created: 17.11.2022 11:41:44

mtllib desk.mtl

#
# object Box001
#

v  -21.8086 -0.0924 30.1045
v  -13.8150 -0.0924 30.1045
v  -13.8150 -0.0924 37.9875
v  -21.8086 -0.0924 37.9875
v  -23.9620 39.4711 39.7839
v  23.9620 39.4711 39.7839
v  23.9620 39.4711 -39.7839
v  -23.9620 39.4711 -39.7839
v  0.0000 34.5696 39.7839
v  23.9620 34.5696 39.7839
v  -23.9620 34.5696 39.7839
v  23.9620 34.5696 -0.0000
v  23.9620 34.5696 -39.7839
v  0.0000 34.5696 -39.7839
v  -23.9620 34.5696 -39.7839
v  -23.9620 34.5696 -0.0000
v  -21.8086 -0.0924 -37.9875
v  -13.8150 -0.0924 -37.9875
v  -13.8150 -0.0924 -30.1045
v  -21.8086 -0.0924 -30.1045
v  21.8086 -0.0924 30.1045
v  21.8086 -0.0924 37.9875
v  13.8150 -0.0924 37.9875
v  13.8150 -0.0924 30.1045
v  21.8086 -0.0924 -37.9875
v  21.8086 -0.0924 -30.1045
v  13.8150 -0.0924 -30.1045
v  13.8150 -0.0924 -37.9875
v  -21.8086 34.5696 30.1045
v  -21.8086 34.5696 37.9875
v  0.0000 34.5696 -0.0000
v  -13.8150 34.5696 30.1045
v  -13.8150 34.5696 37.9875
v  -13.8150 34.5696 -37.9875
v  -21.8086 34.5696 -37.9875
v  -13.8150 34.5696 -30.1045
v  -21.8086 34.5696 -30.1045
v  21.8086 34.5696 -30.1045
v  21.8086 34.5696 -37.9875
v  13.8150 34.5696 -30.1045
v  13.8150 34.5696 -37.9875
v  13.8150 34.5696 37.9875
v  21.8086 34.5696 37.9875
v  13.8150 34.5696 30.1045
v  21.8086 34.5696 30.1045
# 45 vertices

vn 0.0000 -1.0000 -0.0000
vn 0.0000 1.0000 -0.0000
vn 0.0000 0.0000 1.0000
vn 1.0000 0.0000 -0.0000
vn 0.0000 0.0000 -1.0000
vn -1.0000 0.0000 -0.0000
# 6 vertex normals

vt 0.0570 0.0475 0.0181
vt 0.0291 0.0567 0.0181
vt 0.0200 0.0292 -0.0181
vt 0.0479 0.0200 0.0181
vt 0.3110 0.7787 46.5181
vt 0.3267 0.9540 -46.5181
vt 0.0356 0.9800 -46.5181
vt 0.0200 0.8047 -46.5181
vt 0.3368 0.8648 -46.5181
vt 0.3446 0.9524 -46.5181
vt 0.3290 0.7771 -46.5181
vt 0.2743 0.1655 -46.5181
vt 0.2873 0.3109 -46.5181
vt 0.2694 0.3125 -46.5181
vt 0.2613 0.0200 -46.5181
vt 0.2434 0.0216 -46.5181
vt 0.2952 0.3985 -46.5181
vt 0.3030 0.4862 -46.5181
vt 0.2851 0.4878 -46.5181
vt 0.3160 0.6316 -46.5181
vt 0.0494 0.2231 0.0177
vt 0.0200 0.2231 -0.0177
vt 0.0200 0.1942 0.0177
vt 0.0494 0.1942 0.0177
vt 0.3693 0.1025 0.0219
vt 0.3488 0.0820 0.0219
vt 0.3696 0.0612 -0.0219
vt 0.3900 0.0817 0.0219
vt 0.3744 0.2375 0.0000
vt 0.3803 0.2091 0.0000
vt 0.4090 0.2150 0.0000
vt 0.4032 0.2434 -15.0224
vt 0.4745 0.7642 -46.5181
vt 0.3651 0.7819 -46.5181
vt 0.3362 0.7844 -46.5181
vt 0.4823 0.8518 -46.5181
vt 0.3677 0.8111 -46.5181
vt 0.3389 0.8137 -46.5181
vt 0.6200 0.7512 -46.5181
vt 0.6278 0.8388 -46.5181
vt 0.6168 0.7889 -46.5181
vt 0.6142 0.7596 23.4117
vt 0.5879 0.7914 -46.5181
vt 0.5853 0.7622 -46.5181
vt 0.6357 0.9265 -46.5181
vt 0.4901 0.9395 -46.5181
vt 0.5996 0.9218 -46.5181
vt 0.6284 0.9192 -46.5181
vt 0.5969 0.8925 -46.5181
vt 0.6258 0.8899 -46.5181
vt 0.3479 0.9147 -46.5181
vt 0.3505 0.9440 -46.5181
vt 0.3767 0.9122 -46.5181
vt 0.3793 0.9414 -46.5181
vt 0.1244 0.1593 0.0181
vt 0.0969 0.1684 0.0181
vt 0.0844 0.0384 0.0181
vt 0.0690 0.1776 0.0181
vt 0.1797 0.1410 0.0181
vt 0.1522 0.1501 0.0181
vt 0.1123 0.0292 -0.0181
vt 0.1398 0.0201 0.0181
vt 0.0494 0.3504 0.0177
vt 0.0200 0.3504 0.0177
vt 0.1366 0.3504 0.0177
vt 0.1077 0.3504 0.0177
vt 0.1077 0.2231 0.0177
vt 0.1366 0.2231 -0.0177
vt 0.0783 0.3504 0.0177
vt 0.0783 0.2231 0.0177
vt 0.5213 0.1305 0.0219
vt 0.5005 0.1512 0.0219
vt 0.4105 0.0612 -0.0219
vt 0.4312 0.0405 0.0219
vt 0.4800 0.1717 0.0219
vt 0.4593 0.1925 0.0219
vt 0.5417 0.1100 0.0219
vt 0.4517 0.0200 0.0219
vt 0.4630 0.3856 0.0000
vt 0.4347 0.3798 15.0224
vt 0.4603 0.2551 0.0000
vt 0.4887 0.2609 0.0000
vt 0.4059 0.3739 0.0000
vt 0.4315 0.2492 0.0000
vt 0.3775 0.3680 0.0000
vt 0.3488 0.3621 0.0000
# 86 texture coords

o Box001
g Box001
usemtl PhysicalMaterial
s 2
f 1/1/1 2/2/1 3/3/1 
f 3/3/1 4/4/1 1/1/1 
s 4
f 5/5/2 6/6/2 7/7/2 
f 7/7/2 8/8/2 5/5/2 
s 8
f 9/9/3 10/10/3 6/6/3 
f 11/11/3 9/9/3 6/6/3 
f 11/11/3 6/6/3 5/5/3 
s 16
f 12/12/4 13/13/4 7/14/4 
f 10/15/4 12/12/4 7/14/4 
f 10/15/4 7/14/4 6/16/4 
s 32
f 14/17/5 15/18/5 8/19/5 
f 13/13/5 14/17/5 8/19/5 
f 13/13/5 8/19/5 7/14/5 
s 64
f 16/20/6 11/11/6 5/5/6 
f 15/18/6 16/20/6 5/5/6 
f 15/18/6 5/5/6 8/19/6 
s 2
f 17/21/1 18/22/1 19/23/1 
f 19/23/1 20/24/1 17/21/1 
f 21/25/1 22/26/1 23/27/1 
f 23/27/1 24/28/1 21/25/1 
f 25/29/1 26/30/1 27/31/1 
f 27/31/1 28/32/1 25/29/1 
s off
f 11/11/1 16/33/1 29/34/1 
f 29/34/1 30/35/1 11/11/1 
f 16/33/1 31/36/1 32/37/1 
f 32/37/1 29/34/1 16/33/1 
f 31/36/1 9/9/1 33/38/1 
f 33/38/1 32/37/1 31/36/1 
f 9/9/1 11/11/1 30/35/1 
f 30/35/1 33/38/1 9/9/1 
f 15/39/1 14/40/1 34/41/1 
f 34/41/1 35/42/1 15/39/1 
f 14/40/1 31/36/1 36/43/1 
f 36/43/1 34/41/1 14/40/1 
f 31/36/1 16/33/1 37/44/1 
f 37/44/1 36/43/1 31/36/1 
f 16/33/1 15/39/1 35/42/1 
f 35/42/1 37/44/1 16/33/1 
f 13/45/1 12/46/1 38/47/1 
f 38/47/1 39/48/1 13/45/1 
f 12/46/1 31/36/1 40/49/1 
f 40/49/1 38/47/1 12/46/1 
f 31/36/1 14/40/1 41/50/1 
f 41/50/1 40/49/1 31/36/1 
f 14/40/1 13/45/1 39/48/1 
f 39/48/1 41/50/1 14/40/1 
f 10/10/1 9/9/1 42/51/1 
f 42/51/1 43/52/1 10/10/1 
f 9/9/1 31/36/1 44/53/1 
f 44/53/1 42/51/1 9/9/1 
f 31/36/1 12/46/1 45/54/1 
f 45/54/1 44/53/1 31/36/1 
f 12/46/1 10/10/1 43/52/1 
f 43/52/1 45/54/1 12/46/1 
f 30/55/6 29/56/6 1/1/6 
f 1/1/6 4/57/6 30/55/6 
f 29/56/5 32/58/5 2/2/5 
f 2/2/5 1/1/5 29/56/5 
f 32/59/4 33/60/4 3/61/4 
f 3/61/4 2/62/4 32/59/4 
f 33/60/3 30/55/3 4/57/3 
f 4/57/3 3/61/3 33/60/3 
f 35/63/5 34/64/5 18/22/5 
f 18/22/5 17/21/5 35/63/5 
f 34/65/4 36/66/4 19/67/4 
f 19/67/4 18/68/4 34/65/4 
f 36/66/3 37/69/3 20/70/3 
f 20/70/3 19/67/3 36/66/3 
f 37/69/6 35/63/6 17/21/6 
f 17/21/6 20/70/6 37/69/6 
f 43/71/3 42/72/3 23/73/3 
f 23/73/3 22/74/3 43/71/3 
f 42/72/6 44/75/6 24/28/6 
f 24/28/6 23/73/6 42/72/6 
f 44/75/5 45/76/5 21/25/5 
f 21/25/5 24/28/5 44/75/5 
f 45/77/4 43/71/4 22/74/4 
f 22/74/4 21/78/4 45/77/4 
f 39/79/4 38/80/4 26/81/4 
f 26/81/4 25/82/4 39/79/4 
f 38/80/3 40/83/3 27/84/3 
f 27/84/3 26/81/3 38/80/3 
f 40/83/6 41/85/6 28/32/6 
f 28/32/6 27/84/6 40/83/6 
f 41/85/5 39/86/5 25/29/5 
f 25/29/5 28/32/5 41/85/5 
# 86 faces

