# 3ds Max Wavefront OBJ Exporter v0.99 - (c)2007 guruware
# File Created: 16.12.2022 14:44:47

mtllib Key.mtl

#
# object Tube001
#

v  -1.0449 1.0146 -0.4196
v  -1.0491 1.0046 -3.4937
v  1.1987 1.0185 -3.4968
v  1.2029 1.0285 -0.4227
v  -1.5686 11.7224 -3.9853
v  -0.8330 13.5298 -3.9922
v  0.8471 13.5402 -3.9946
v  1.6050 11.7420 -3.9898
v  -0.8275 13.5429 0.0077
v  0.8526 13.5532 0.0054
v  -1.5631 11.7354 0.0146
v  1.6105 11.7550 0.0102
v  3.8352 13.9999 -4.0002
v  3.8407 14.0129 -0.0002
v  2.0277 14.7355 -4.0001
v  2.0332 14.7485 -0.0001
v  3.8156 17.1735 -4.0105
v  3.8211 17.1865 -0.0105
v  2.0173 16.4156 -4.0055
v  2.0228 16.4286 -0.0056
v  1.5576 19.4037 -4.0146
v  1.5631 19.4167 -0.0146
v  0.8220 17.5963 -4.0077
v  0.8275 17.6093 -0.0077
v  -1.6160 19.3841 -4.0102
v  -1.6105 19.3971 -0.0102
v  -0.8581 17.5859 -4.0054
v  -0.8526 17.5989 -0.0054
v  -3.8462 17.1262 -3.9998
v  -3.8407 17.1392 0.0002
v  -2.0387 16.3906 -3.9999
v  -2.0332 16.4036 0.0001
v  -3.8266 13.9526 -3.9895
v  -3.8211 13.9656 0.0105
v  -2.0283 14.7105 -3.9944
v  -2.0228 14.7235 0.0056
v  1.1469 11.7506 -0.4521
v  1.1427 11.7406 -3.5262
v  -1.1009 11.7367 -0.4489
v  -1.1051 11.7267 -3.5231
v  2.8502 6.3983 -0.4397
v  2.8460 6.3883 -3.5138
v  2.8320 9.0688 -3.5212
v  2.8362 9.0788 -0.4471
v  1.1889 3.7090 -0.4300
v  1.1749 6.3895 -0.4374
v  1.1609 9.0701 -0.4447
v  1.1567 9.0601 -3.5188
v  1.1707 6.3795 -3.5115
v  1.1847 3.6990 -3.5042
v  2.8782 1.0372 -0.4250
v  2.8740 1.0272 -3.4991
v  2.8600 3.7077 -3.5065
v  2.8642 3.7177 -0.4324
# 54 vertices

vn 0.0062 -1.0000 0.0032
vn -0.0014 -0.0033 -1.0000
vn 0.3770 0.9262 -0.0035
vn -0.3884 0.9215 -0.0025
vn 0.0014 0.0033 1.0000
vn 0.7115 -0.7027 0.0013
vn 0.9262 -0.3770 -0.0000
vn -0.9262 0.3770 0.0000
vn 0.9215 0.3884 -0.0025
vn -0.9215 -0.3884 0.0025
vn -0.3770 -0.9262 0.0035
vn 0.3884 -0.9215 0.0025
vn -0.7027 -0.7115 0.0033
vn 1.0000 0.0052 -0.0014
vn 0.0014 0.0027 1.0000
vn -1.0000 -0.0052 0.0014
vn -0.0014 -0.0027 -1.0000
vn -0.0052 1.0000 -0.0032
vn 0.0052 -1.0000 0.0032
# 19 vertex normals

vt 0.2511 0.1496 0.0000
vt 0.1496 0.1708 0.0000
vt 0.1340 0.0966 0.0000
vt 0.2356 0.0753 0.0000
vt 0.7133 0.3272 0.0000
vt 0.7741 0.3524 0.0000
vt 0.7741 0.4091 0.0000
vt 0.7133 0.4343 0.0000
vt 0.7133 0.5264 0.0000
vt 0.8483 0.5264 0.0000
vt 0.8483 0.5831 0.0000
vt 0.7133 0.5831 0.0000
vt 0.2334 0.7021 0.0000
vt 0.2991 0.7071 0.0000
vt 0.2507 0.8027 0.0000
vt 0.2078 0.7527 0.0000
vt 0.3417 0.0200 0.0000
vt 0.4767 0.0200 0.0000
vt 0.4767 0.1271 0.0000
vt 0.3417 0.1271 0.0000
vt 0.8142 0.4492 0.0000
vt 0.7890 0.5100 0.0000
vt 0.8483 0.6398 0.0000
vt 0.7133 0.6398 0.0000
vt 0.1490 0.8361 0.0000
vt 0.1539 0.7704 0.0000
vt 0.4767 0.2342 0.0000
vt 0.3417 0.2342 0.0000
vt 0.8709 0.4492 0.0000
vt 0.8961 0.5100 0.0000
vt 0.8483 0.6965 0.0000
vt 0.7133 0.6965 0.0000
vt 0.0534 0.7877 0.0000
vt 0.1034 0.7448 0.0000
vt 0.4767 0.3413 0.0000
vt 0.3417 0.3413 0.0000
vt 0.9110 0.4091 0.0000
vt 0.9719 0.4343 0.0000
vt 0.8483 0.7532 0.0000
vt 0.7133 0.7532 0.0000
vt 0.0200 0.6860 0.0000
vt 0.0857 0.6909 0.0000
vt 0.4767 0.4484 0.0000
vt 0.3417 0.4484 0.0000
vt 0.9110 0.3524 0.0000
vt 0.9719 0.3272 0.0000
vt 0.8483 0.8099 0.0000
vt 0.7133 0.8099 0.0000
vt 0.0683 0.5904 0.0000
vt 0.1113 0.6403 0.0000
vt 0.4767 0.5555 0.0000
vt 0.3417 0.5555 0.0000
vt 0.8709 0.3123 0.0000
vt 0.8961 0.2515 0.0000
vt 0.8483 0.8666 0.0000
vt 0.7133 0.8666 0.0000
vt 0.1701 0.5570 0.0000
vt 0.1651 0.6227 0.0000
vt 0.4767 0.6626 0.0000
vt 0.3417 0.6626 0.0000
vt 0.8142 0.3123 0.0000
vt 0.7890 0.2514 0.0000
vt 0.8483 0.9233 0.0000
vt 0.7133 0.9233 0.0000
vt 0.2657 0.6053 0.0000
vt 0.2157 0.6483 0.0000
vt 0.4767 0.7697 0.0000
vt 0.3417 0.7697 0.0000
vt 0.7742 0.3524 0.0000
vt 0.8483 0.9800 0.0000
vt 0.7133 0.9800 0.0000
vt 0.4767 0.8932 0.0000
vt 0.3417 0.8932 0.0000
vt 0.3574 0.8776 0.0000
vt 0.4611 0.8776 0.0000
vt 0.3417 0.7861 0.0000
vt 0.3574 0.8017 0.0000
vt 0.4767 0.7861 0.0000
vt 0.4611 0.8017 0.0000
vt 0.6896 0.1732 0.0000
vt 0.7166 0.0730 0.0000
vt 0.8040 0.0966 0.0000
vt 0.7770 0.1968 0.0000
vt 0.5673 0.6212 0.0000
vt 0.4931 0.6056 0.0000
vt 0.5673 0.2514 0.0000
vt 0.6416 0.2671 0.0000
vt 0.6230 0.3556 0.0000
vt 0.6045 0.4442 0.0000
vt 0.5859 0.5327 0.0000
vt 0.3253 0.5037 0.0000
vt 0.2238 0.5250 0.0000
vt 0.1496 0.5406 0.0000
vt 0.1310 0.4521 0.0000
vt 0.1124 0.3635 0.0000
vt 0.0939 0.2750 0.0000
vt 0.0753 0.1865 0.0000
vt 0.4931 0.7058 0.0000
vt 0.5713 0.6376 0.0000
vt 0.6307 0.7058 0.0000
vt 0.5525 0.7740 0.0000
vt 0.5477 0.1349 0.0000
vt 0.5747 0.0347 0.0000
vt 0.6620 0.0583 0.0000
vt 0.6350 0.1585 0.0000
vt 0.9459 0.1349 0.0000
vt 0.9189 0.2350 0.0000
vt 0.8315 0.2115 0.0000
vt 0.8585 0.1113 0.0000
vt 0.0757 0.4637 0.0000
vt 0.0571 0.3751 0.0000
vt 0.6598 0.4557 0.0000
vt 0.6412 0.5443 0.0000
vt 0.1225 0.0412 0.0000
vt 0.2240 0.0200 0.0000
vt 0.0386 0.2866 0.0000
vt 0.0200 0.1980 0.0000
vt 0.4931 0.1202 0.0000
vt 0.5201 0.0200 0.0000
vt 0.6969 0.2787 0.0000
vt 0.6784 0.3672 0.0000
# 121 texture coords

o Tube001
g Tube001
usemtl PhysicalMaterial
s 2
f 1/1/1 2/2/1 3/3/1 
f 3/3/1 4/4/1 1/1/1 
s 4
f 5/5/2 6/6/2 7/7/2 
f 7/7/2 8/8/2 5/5/2 
s 2
f 6/9/3 9/10/3 10/11/4 
f 10/11/4 7/12/4 6/9/3 
s 4
f 9/13/5 11/14/5 12/15/5 
f 12/15/5 10/16/5 9/13/5 
s 2
f 12/17/6 8/18/6 13/19/7 
f 13/19/7 14/20/7 12/17/6 
s 4
f 8/8/2 7/7/2 15/21/2 
f 15/21/2 13/22/2 8/8/2 
s 2
f 7/12/4 10/11/4 16/23/8 
f 16/23/8 15/24/8 7/12/4 
s 4
f 10/16/5 12/15/5 14/25/5 
f 14/25/5 16/26/5 10/16/5 
s 2
f 14/20/7 13/19/7 17/27/9 
f 17/27/9 18/28/9 14/20/7 
s 4
f 13/22/2 15/21/2 19/29/2 
f 19/29/2 17/30/2 13/22/2 
s 2
f 15/24/8 16/23/8 20/31/10 
f 20/31/10 19/32/10 15/24/8 
s 4
f 16/26/5 14/25/5 18/33/5 
f 18/33/5 20/34/5 16/26/5 
s 2
f 18/28/9 17/27/9 21/35/3 
f 21/35/3 22/36/3 18/28/9 
s 4
f 17/30/2 19/29/2 23/37/2 
f 23/37/2 21/38/2 17/30/2 
s 2
f 19/32/10 20/31/10 24/39/11 
f 24/39/11 23/40/11 19/32/10 
s 4
f 20/34/5 18/33/5 22/41/5 
f 22/41/5 24/42/5 20/34/5 
s 2
f 22/36/3 21/35/3 25/43/4 
f 25/43/4 26/44/4 22/36/3 
s 4
f 21/38/2 23/37/2 27/45/2 
f 27/45/2 25/46/2 21/38/2 
s 2
f 23/40/11 24/39/11 28/47/12 
f 28/47/12 27/48/12 23/40/11 
s 4
f 24/42/5 22/41/5 26/49/5 
f 26/49/5 28/50/5 24/42/5 
s 2
f 26/44/4 25/43/4 29/51/8 
f 29/51/8 30/52/8 26/44/4 
s 4
f 25/46/2 27/45/2 31/53/2 
f 31/53/2 29/54/2 25/46/2 
s 2
f 27/48/12 28/47/12 32/55/7 
f 32/55/7 31/56/7 27/48/12 
s 4
f 28/50/5 26/49/5 30/57/5 
f 30/57/5 32/58/5 28/50/5 
s 2
f 30/52/8 29/51/8 33/59/10 
f 33/59/10 34/60/10 30/52/8 
s 4
f 29/54/2 31/53/2 35/61/2 
f 35/61/2 33/62/2 29/54/2 
s 2
f 31/56/7 32/55/7 36/63/9 
f 36/63/9 35/64/9 31/56/7 
s 4
f 32/58/5 30/57/5 34/65/5 
f 34/65/5 36/66/5 32/58/5 
s 2
f 34/60/10 33/59/10 5/67/13 
f 5/67/13 11/68/13 34/60/10 
s 4
f 33/62/2 35/61/2 6/69/2 
f 6/69/2 5/5/2 33/62/2 
s 2
f 35/64/9 36/63/9 9/70/3 
f 9/70/3 6/71/3 35/64/9 
s 4
f 36/66/5 34/65/5 11/14/5 
f 11/14/5 9/13/5 36/66/5 
s off
f 8/72/1 12/73/1 37/74/1 
f 37/74/1 38/75/1 8/72/1 
f 12/73/1 11/76/1 39/77/1 
f 39/77/1 37/74/1 12/73/1 
f 11/76/1 5/78/1 40/79/1 
f 40/79/1 39/77/1 11/76/1 
f 5/78/1 8/72/1 38/75/1 
f 38/75/1 40/79/1 5/78/1 
f 41/80/14 42/81/14 43/82/14 
f 43/82/14 44/83/14 41/80/14 
f 37/84/15 39/85/15 1/86/15 
f 1/86/15 4/87/15 45/88/15 
f 1/86/15 45/88/15 46/89/15 
f 1/86/15 46/89/15 47/90/15 
f 37/84/15 1/86/15 47/90/15 
f 39/91/16 40/92/16 2/2/16 
f 2/2/16 1/1/16 39/91/16 
f 40/92/17 38/93/17 48/94/17 
f 40/92/17 48/94/17 49/95/17 
f 40/92/17 49/95/17 50/96/17 
f 40/92/17 50/96/17 3/97/17 
f 40/92/17 3/97/17 2/2/17 
f 51/98/14 52/99/14 53/100/14 
f 53/100/14 54/101/14 51/98/14 
f 45/102/14 50/103/14 49/104/14 
f 49/104/14 46/105/14 45/102/14 
f 38/106/14 37/107/14 47/108/14 
f 47/108/14 48/109/14 38/106/14 
f 49/95/17 48/94/17 43/110/17 
f 43/110/17 42/111/17 49/95/17 
f 48/109/18 47/108/18 44/83/18 
f 44/83/18 43/82/18 48/109/18 
f 47/90/15 46/89/15 41/112/15 
f 41/112/15 44/113/15 47/90/15 
f 46/105/19 49/104/19 42/81/19 
f 42/81/19 41/80/19 46/105/19 
f 4/4/19 3/3/19 52/114/19 
f 52/114/19 51/115/19 4/4/19 
f 3/97/17 50/96/17 53/116/17 
f 53/116/17 52/117/17 3/97/17 
f 50/103/18 45/102/18 54/118/18 
f 54/118/18 53/119/18 50/103/18 
f 45/88/15 4/87/15 51/120/15 
f 51/120/15 54/121/15 45/88/15 
# 108 faces

