# 3ds Max Wavefront OBJ Exporter v0.99 - (c)2007 guruware
# File Created: 13.11.2022 22:44:04

mtllib BigRock0.mtl

#
# object Cone
#

v  40.3998 89.8780 -5.8314
v  13.0321 142.7409 1.7220
v  31.0686 90.0921 27.7031
v  49.8230 54.8087 20.8893
v  -22.1306 58.3834 -30.6423
v  -12.0455 91.0828 -22.2194
v  -18.9859 53.9374 -35.4935
v  -33.4461 -0.2114 38.4433
v  -31.1794 16.8771 42.4304
v  -38.6374 43.2672 16.2801
v  -46.3221 -0.2115 0.4829
v  -24.6819 -0.2114 44.5879
v  -24.2909 21.6253 47.9262
v  23.4767 68.4286 39.9314
v  31.9965 46.3991 44.0842
v  29.5215 83.1722 32.1831
v  21.4186 77.9517 37.4489
v  32.9452 40.8438 45.2423
v  10.3029 40.4619 47.4207
v  1.4534 94.0839 33.4139
v  -16.4676 34.7897 49.1889
v  3.4593 150.2099 -0.0566
v  -30.3529 74.2258 6.7146
v  -41.0754 10.6572 -20.1783
v  -35.7873 -0.2115 -25.4501
v  -45.5443 -0.2115 -5.2728
v  4.5986 151.7968 -1.2973
v  44.5169 55.5574 -26.4577
v  44.6733 55.6810 -26.1862
v  54.4903 10.9354 -12.9238
v  45.6850 22.7412 -26.8601
v  41.0906 39.1175 -33.3957
v  -7.2050 23.4344 -50.9409
v  15.6180 8.2088 -48.5673
v  14.5693 -0.2115 -45.5902
v  -18.6473 -0.2115 -41.5460
v  -8.1193 23.2645 -50.7720
v  9.7600 128.1127 -12.8589
v  38.3070 57.3497 -32.2850
v  36.9813 52.5149 -34.6435
v  9.2565 63.1614 -39.0954
v  37.2266 38.9270 -37.3006
v  31.7432 25.3183 -41.3214
v  4.4886 150.4495 -2.4199
v  57.4398 -0.2115 -4.8617
v  -35.5887 33.8713 -21.9835
v  -38.5485 20.5935 -22.2717
v  -16.8236 38.9068 -42.1578
v  58.5406 -0.2115 5.5323
v  58.2021 14.1208 27.7785
v  50.7473 8.2029 38.4353
v  46.2761 -0.2114 37.5759
# 52 vertices

vn 0.8335 0.5026 0.2294
vn -0.5680 0.4455 -0.6921
vn -0.9451 0.0637 0.3206
vn -0.5681 -0.1433 0.8104
vn 0.3606 0.3784 0.8525
vn 0.0886 0.2709 0.9585
vn 0.0098 0.3146 0.9492
vn -0.6941 0.4522 0.5600
vn -0.8656 -0.2749 -0.4186
vn 0.2136 0.5808 0.7855
vn 0.8583 0.0464 -0.5111
vn -0.1113 -0.3899 -0.9141
vn 0.2704 0.4347 -0.8590
vn 0.2243 0.2380 -0.9450
vn 0.7092 -0.1003 -0.6979
vn 0.6946 0.1870 -0.6946
vn 0.6444 0.5213 -0.5595
vn 0.6325 -0.3960 -0.6657
vn -0.8386 0.4332 -0.3303
vn -0.6843 0.0258 -0.7287
vn -0.7353 0.2241 -0.6396
vn -0.2256 0.4438 -0.8673
vn 0.7753 -0.5575 0.2968
vn -0.9538 0.2715 -0.1289
vn 0.0965 -0.1904 0.9769
vn 0.7052 0.3183 0.6335
vn 0.9679 0.2294 -0.1025
vn -0.0000 -1.0000 0.0000
# 28 vertex normals

vt 0.3646 0.2806 0.0000
vt 0.2643 0.2544 0.0000
vt 0.3269 0.1642 0.0000
vt 0.5177 0.1879 0.0000
vt 0.1423 0.3667 0.0000
vt 0.1773 0.3375 0.0000
vt 0.1532 0.3836 0.0000
vt 0.5179 0.1270 0.0000
vt 0.4134 0.1131 0.0000
vt 0.2932 0.2039 0.0000
vt 0.3218 0.2587 0.0000
vt 0.5471 0.1056 0.0000
vt 0.3411 0.0941 0.0000
vt 0.3045 0.1218 0.0000
vt 0.3418 0.1074 0.0000
vt 0.3216 0.1487 0.0000
vt 0.2934 0.1304 0.0000
vt 0.3476 0.1034 0.0000
vt 0.2778 0.0958 0.0000
vt 0.2242 0.1444 0.0000
vt 0.2100 0.0897 0.0000
vt 0.2311 0.2606 0.0000
vt 0.1141 0.2371 0.0000
vt 0.1847 0.3304 0.0000
vt 0.5949 0.3487 0.0000
vt 0.2867 0.2787 0.0000
vt 0.2351 0.2649 0.0000
vt 0.3745 0.3522 0.0000
vt 0.3743 0.3513 0.0000
vt 0.4943 0.3052 0.0000
vt 0.4715 0.3536 0.0000
vt 0.4287 0.3763 0.0000
vt 0.2894 0.4372 0.0000
vt 0.6695 0.4290 0.0000
vt 0.6484 0.4186 0.0000
vt 0.6544 0.4046 0.0000
vt 0.3524 0.4366 0.0000
vt 0.2530 0.3050 0.0000
vt 0.3521 0.3724 0.0000
vt 0.3475 0.3806 0.0000
vt 0.2512 0.3961 0.0000
vt 0.4198 0.3898 0.0000
vt 0.5145 0.4038 0.0000
vt 0.4357 0.3763 0.0000
vt 0.4084 0.3898 0.0000
vt 0.2347 0.2688 0.0000
vt 0.3751 0.3513 0.0000
vt 0.4850 0.4038 0.0000
vt 0.4627 0.3536 0.0000
vt 0.5371 0.2773 0.0000
vt 0.6065 0.4290 0.0000
vt 0.1367 0.3367 0.0000
vt 0.1616 0.3377 0.0000
vt 0.2091 0.4067 0.0000
vt 0.5250 0.4046 0.0000
vt 0.3107 0.3487 0.0000
vt 0.1889 0.4067 0.0000
vt 0.2851 0.4366 0.0000
vt 0.8040 0.2412 0.0000
vt 0.5025 0.1640 0.0000
vt 0.4481 0.1270 0.0000
vt 0.4823 0.1300 0.0000
vt 0.2745 0.2039 0.0000
vt 0.8236 0.1640 0.0000
vt 0.3604 0.2806 0.0000
vt 0.4174 0.1879 0.0000
vt 0.9185 0.2773 0.0000
vt 0.7707 0.3052 0.0000
vt 0.7697 0.4186 0.0000
vt 0.9223 0.2412 0.0000
vt 0.8797 0.1300 0.0000
vt 0.6334 0.1056 0.0000
vt 0.6030 0.1270 0.0000
vt 0.5583 0.2587 0.0000
vt 0.5610 0.2787 0.0000
# 75 texture coords

o Cone
g Cone
usemtl Material
s off
f 1/1/1 2/2/1 3/3/1 
f 3/3/1 4/4/1 1/1/1 
f 5/5/2 6/6/2 7/7/2 
f 8/8/3 9/9/3 10/10/3 
f 10/10/3 11/11/3 8/8/3 
f 12/12/4 13/13/4 9/9/4 
f 9/9/4 8/8/4 12/12/4 
f 14/14/5 15/15/5 16/16/5 
f 16/16/5 17/17/5 14/14/5 
f 18/18/6 15/15/6 14/14/6 
f 14/14/6 19/19/6 18/18/6 
f 19/19/7 14/14/7 17/17/7 
f 19/19/7 17/17/7 20/20/7 
f 19/19/7 20/20/7 21/21/7 
f 22/22/8 23/23/8 10/10/8 
f 22/22/8 10/10/8 9/9/8 
f 22/22/8 9/9/8 13/13/8 
f 22/22/8 13/13/8 21/21/8 
f 22/22/8 21/21/8 20/20/8 
f 24/24/9 25/25/9 26/26/9 
f 2/2/10 27/27/10 22/22/10 
f 2/2/10 22/22/10 20/20/10 
f 2/2/10 20/20/10 17/17/10 
f 2/2/10 17/17/10 16/16/10 
f 2/2/10 16/16/10 3/3/10 
f 28/28/11 29/29/11 30/30/11 
f 28/28/11 30/30/11 31/31/11 
f 28/28/11 31/31/11 32/32/11 
f 33/33/12 34/34/12 35/35/12 
f 33/33/12 35/35/12 36/36/12 
f 33/33/12 36/36/12 37/37/12 
f 38/38/13 39/39/13 40/40/13 
f 40/40/13 41/41/13 38/38/13 
f 40/40/14 42/42/14 43/43/14 
f 40/40/14 43/43/14 34/34/14 
f 40/40/14 34/34/14 33/33/14 
f 40/40/14 33/33/14 41/41/14 
f 42/42/15 32/44/15 31/31/15 
f 31/31/15 43/43/15 42/42/15 
f 40/40/16 39/39/16 28/28/16 
f 40/40/16 28/28/16 32/32/16 
f 40/40/16 32/32/16 42/45/16 
f 39/39/17 38/38/17 44/46/17 
f 39/39/17 44/46/17 27/27/17 
f 39/39/17 27/27/17 2/2/17 
f 39/39/17 2/2/17 1/1/17 
f 39/39/17 1/1/17 29/47/17 
f 39/39/17 29/47/17 28/28/17 
f 43/48/18 31/49/18 30/30/18 
f 43/48/18 30/30/18 45/50/18 
f 43/48/18 45/50/18 35/35/18 
f 43/48/18 35/35/18 34/51/18 
f 44/46/19 6/6/19 5/5/19 
f 44/46/19 5/5/19 46/52/19 
f 44/46/19 46/52/19 23/23/19 
f 44/46/19 23/23/19 22/22/19 
f 44/46/19 22/22/19 27/27/19 
f 24/24/20 47/53/20 48/54/20 
f 24/24/20 48/54/20 37/37/20 
f 24/24/20 37/37/20 36/55/20 
f 24/24/20 36/55/20 25/56/20 
f 7/7/21 48/57/21 47/53/21 
f 7/7/21 47/53/21 46/52/21 
f 7/7/21 46/52/21 5/5/21 
f 38/38/22 41/41/22 33/33/22 
f 38/38/22 33/33/22 37/58/22 
f 38/38/22 37/58/22 48/57/22 
f 38/38/22 48/57/22 7/7/22 
f 38/38/22 7/7/22 6/6/22 
f 38/38/22 6/6/22 44/46/22 
f 49/59/23 50/60/23 51/61/23 
f 51/61/23 52/62/23 49/59/23 
f 10/63/24 23/23/24 46/52/24 
f 10/63/24 46/52/24 47/53/24 
f 10/63/24 47/53/24 24/24/24 
f 10/63/24 24/24/24 26/26/24 
f 10/63/24 26/26/24 11/11/24 
f 18/18/25 19/19/25 21/21/25 
f 18/18/25 21/21/25 13/13/25 
f 18/18/25 13/13/25 12/12/25 
f 18/18/25 12/12/25 52/62/25 
f 18/18/25 52/62/25 51/61/25 
f 4/4/26 3/3/26 16/16/26 
f 4/4/26 16/16/26 15/15/26 
f 4/4/26 15/15/26 18/18/26 
f 4/4/26 18/18/26 51/61/26 
f 4/4/26 51/61/26 50/64/26 
f 29/29/27 1/65/27 4/66/27 
f 29/29/27 4/66/27 50/60/27 
f 29/29/27 50/60/27 49/59/27 
f 29/29/27 49/59/27 45/67/27 
f 29/29/27 45/67/27 30/68/27 
f 35/69/28 45/67/28 49/70/28 
f 35/69/28 49/70/28 52/71/28 
f 35/69/28 52/71/28 12/72/28 
f 35/69/28 12/72/28 8/73/28 
f 35/69/28 8/73/28 11/74/28 
f 35/69/28 11/74/28 26/75/28 
f 35/69/28 26/75/28 25/25/28 
f 35/69/28 25/25/28 36/36/28 
# 100 faces

