# 3ds Max Wavefront OBJ Exporter v0.99 - (c)2007 guruware
# File Created: 13.11.2022 22:42:37

mtllib heiRock2.mtl

#
# object Sphere_004
#

v  28.4256 41.3578 18.4525
v  26.4203 28.5542 15.9424
v  26.4511 26.8467 14.9240
v  32.0638 45.0100 12.1397
v  -2.7316 16.1634 15.2478
v  -13.0645 8.6139 0.5064
v  -10.8725 -0.5852 -2.3096
v  5.9606 -0.3675 10.4248
v  10.2211 -0.3932 11.5223
v  8.6707 7.1700 14.3603
v  0.0329 26.4308 20.3675
v  20.9272 -0.9030 2.5743
v  15.0700 24.2577 18.6183
v  2.9979 42.4065 25.8227
v  1.0371 37.4898 23.2718
v  -16.3149 49.9104 12.3802
v  -11.8264 77.3811 21.6067
v  -9.3536 108.5946 18.9871
v  -13.1862 107.3761 0.4559
v  -19.2534 57.5827 -5.9509
v  -21.4178 27.5787 -2.3725
v  4.9307 -1.5858 -22.9045
v  10.0774 4.5522 -22.6125
v  8.9565 -1.9186 -22.0573
v  -1.1489 70.3914 -24.4664
v  -1.1512 72.3014 -23.9342
v  -0.1901 70.8905 -24.4022
v  31.0801 44.8830 -8.3802
v  15.1723 100.5184 -10.8343
v  22.7683 125.2625 6.9389
v  33.6227 71.4981 3.5004
v  18.2844 25.4571 -20.1820
v  11.4148 9.4719 -22.5877
v  14.0118 28.3712 -22.6832
v  -10.6821 20.8654 -24.4211
v  -1.1735 -1.3249 -23.3666
v  -10.6497 -1.3392 -15.3430
v  -14.9524 9.2522 -16.0458
v  19.3586 64.3257 26.5496
v  3.0223 45.0668 26.3974
v  22.5553 -1.3539 -9.6696
v  30.6667 27.4927 -9.2757
v  34.2266 50.0347 7.7073
v  12.9752 135.5879 19.1325
v  15.2807 139.1719 14.8297
v  2.3641 70.8697 -24.2101
v  12.6472 97.9888 -12.9636
v  30.4839 32.5380 -10.6820
v  9.3105 132.9105 9.6092
v  6.1212 100.3400 -12.5693
v  -10.5173 28.9560 -24.5331
v  -20.8631 23.5892 -3.6124
v  -2.6908 90.8189 -16.9251
v  -11.3405 109.8958 -1.0952
# 54 vertices

vn 0.6919 -0.6366 0.3406
vn -0.2257 -0.9487 0.2216
vn -0.0353 -0.9233 0.3824
vn 0.3323 -0.8593 0.3889
vn 0.1550 -0.8402 0.5197
vn -0.9242 0.3804 -0.0347
vn 0.0086 -0.5557 -0.8313
vn -0.1903 0.8065 -0.5597
vn 0.6058 0.7387 -0.2957
vn 0.4116 -0.3906 -0.8234
vn -0.4730 -0.7690 -0.4300
vn 0.3537 -0.7011 0.6192
vn 0.6537 -0.7292 0.2023
vn 0.7584 0.4405 0.4804
vn 0.4816 0.6112 -0.6282
vn -0.0050 0.9646 -0.2636
vn 0.9978 -0.0494 0.0447
vn 0.5261 -0.7301 -0.4361
vn -0.8839 0.0451 -0.4655
vn -0.5052 -0.8603 -0.0689
vn -0.0018 -1.0000 0.0069
vn -0.1512 -0.0813 -0.9852
vn -0.0649 0.8985 -0.4341
vn -0.1509 0.9504 -0.2718
vn -0.6784 0.5488 -0.4885
vn -0.2741 0.9615 -0.0208
vn 0.0860 0.4507 0.8885
vn -0.4803 -0.7071 0.5190
vn -0.5045 -0.7938 0.3396
# 29 vertex normals

vt 0.4690 0.8217 0.0000
vt 0.4537 0.7893 0.0000
vt 0.4558 0.7774 0.0000
vt 0.5160 0.7529 0.0000
vt 0.2170 0.4680 0.0000
vt 0.0819 0.3764 0.0000
vt 0.0837 0.3290 0.0000
vt 0.2546 0.3555 0.0000
vt 0.2890 0.3401 0.0000
vt 0.2914 0.3830 0.0000
vt 0.2597 0.5088 0.0000
vt 0.3267 0.1803 0.0000
vt 0.4223 0.2874 0.0000
vt 0.4267 0.2989 0.0000
vt 0.3574 0.3955 0.0000
vt 0.3064 0.5546 0.0000
vt 0.2810 0.5381 0.0000
vt 0.5723 0.5133 0.0000
vt 0.4537 0.5067 0.0000
vt 0.4614 0.4682 0.0000
vt 0.6638 0.4257 0.0000
vt 0.7665 0.4620 0.0000
vt 0.7476 0.5015 0.0000
vt 0.8435 0.7034 0.0000
vt 0.8285 0.6586 0.0000
vt 0.8450 0.6701 0.0000
vt 0.9761 0.2201 0.0000
vt 0.9688 0.2220 0.0000
vt 0.9758 0.2117 0.0000
vt 0.8438 0.0021 0.0000
vt 0.8166 0.1252 0.0000
vt 0.6082 0.1268 0.0000
vt 0.6949 0.0242 0.0000
vt 0.7894 0.5933 0.0000
vt 0.8175 0.6469 0.0000
vt 0.7761 0.6239 0.0000
vt 0.8006 0.8383 0.0000
vt 0.8450 0.7564 0.0000
vt 0.8832 0.8647 0.0000
vt 0.8610 0.9011 0.0000
vt 0.4537 0.3187 0.0000
vt 0.4284 0.4707 0.0000
vt 0.3094 0.5617 0.0000
vt 0.2872 0.0433 0.0000
vt 0.3514 0.0110 0.0000
vt 0.4515 0.1756 0.0000
vt 0.4537 0.2325 0.0000
vt 0.6281 0.9433 0.0000
vt 0.4566 0.9433 0.0000
vt 0.5533 0.7076 0.0000
vt 0.6177 0.6848 0.0000
vt 0.6888 0.7895 0.0000
vt 0.6621 0.8977 0.0000
vt 0.9758 0.1896 0.0000
vt 0.8399 0.1394 0.0000
vt 0.8779 0.0000 0.0000
vt 0.9780 0.0712 0.0000
vt 1.0000 0.0986 0.0000
vt 0.5621 0.2574 0.0000
vt 0.5047 0.2245 0.0000
vt 0.8285 0.1993 0.0000
vt 0.5938 0.5228 0.0000
vt 0.6111 0.5133 0.0000
vt 0.6243 0.5462 0.0000
vt 0.8049 0.5133 0.0000
vt 0.8209 0.5158 0.0000
vt 0.8846 0.5862 0.0000
vt 0.8034 0.9707 0.0000
vt 0.7832 0.8367 0.0000
vt 0.8846 0.9913 0.0000
vt 0.8816 1.0000 0.0000
vt 0.0131 0.3901 0.0000
vt 0.0000 0.2174 0.0000
vt 0.0310 0.1924 0.0000
vt 0.1403 0.0000 0.0000
vt 0.0640 0.0501 0.0000
vt 0.1087 0.0166 0.0000
vt 0.6888 0.7239 0.0000
vt 0.6910 0.7544 0.0000
vt 0.6896 0.7461 0.0000
vt 0.8764 0.2619 0.0000
vt 0.6805 0.4022 0.0000
vt 1.0000 0.3111 0.0000
vt 0.4580 0.2637 0.0000
vt 0.0000 0.8791 0.0000
vt 0.0015 0.6709 0.0000
vt 0.0659 0.6212 0.0000
vt 0.1792 0.7123 0.0000
vt 0.1792 0.8641 0.0000
vt 0.1920 0.6212 0.0000
vt 0.1167 0.5402 0.0000
vt 0.0152 0.4084 0.0000
# 92 texture coords

o Sphere_004
g Sphere_004
usemtl Material
s off
f 1/1/1 2/2/1 3/3/1 
f 3/3/1 4/4/1 1/1/1 
f 5/5/2 6/6/2 7/7/2 
f 7/7/2 8/8/2 5/5/2 
f 5/5/3 8/8/3 9/9/3 
f 5/5/3 9/9/3 10/10/3 
f 5/5/3 10/10/3 11/11/3 
f 12/12/4 3/13/4 2/14/4 
f 12/12/4 2/14/4 13/15/4 
f 12/12/4 13/15/4 10/10/4 
f 12/12/4 10/10/4 9/9/4 
f 13/15/5 14/16/5 15/17/5 
f 13/15/5 15/17/5 11/11/5 
f 13/15/5 11/11/5 10/10/5 
f 16/18/6 17/19/6 18/20/6 
f 16/18/6 18/20/6 19/21/6 
f 16/18/6 19/21/6 20/22/6 
f 16/18/6 20/22/6 21/23/6 
f 22/24/7 23/25/7 24/26/7 
f 25/27/8 26/28/8 27/29/8 
f 28/30/9 29/31/9 30/32/9 
f 30/32/9 31/33/9 28/30/9 
f 32/34/10 33/35/10 34/36/10 
f 35/37/11 36/38/11 37/39/11 
f 37/39/11 38/40/11 35/37/11 
f 14/16/12 13/15/12 2/14/12 
f 14/16/12 2/14/12 1/41/12 
f 14/16/12 1/41/12 39/42/12 
f 14/16/12 39/42/12 40/43/12 
f 41/44/13 42/45/13 43/46/13 
f 41/44/13 43/46/13 4/47/13 
f 41/44/13 4/47/13 3/13/13 
f 41/44/13 3/13/13 12/12/13 
f 44/48/14 39/49/14 1/1/14 
f 44/48/14 1/1/14 4/4/14 
f 44/48/14 4/4/14 43/50/14 
f 44/48/14 43/50/14 31/51/14 
f 44/48/14 31/51/14 30/52/14 
f 44/48/14 30/52/14 45/53/14 
f 46/54/15 47/55/15 29/31/15 
f 46/54/15 29/31/15 28/30/15 
f 46/54/15 28/30/15 48/56/15 
f 46/54/15 48/56/15 32/57/15 
f 46/54/15 32/57/15 34/58/15 
f 49/59/16 45/60/16 30/32/16 
f 49/59/16 30/32/16 29/31/16 
f 49/59/16 29/31/16 47/55/16 
f 49/59/16 47/55/16 50/61/16 
f 42/62/17 48/63/17 28/64/17 
f 42/62/17 28/64/17 31/51/17 
f 42/62/17 31/51/17 43/50/17 
f 24/26/18 23/25/18 33/35/18 
f 24/26/18 33/35/18 32/34/18 
f 24/26/18 32/34/18 48/65/18 
f 24/26/18 48/65/18 42/66/18 
f 24/26/18 42/66/18 41/67/18 
f 20/68/19 51/69/19 35/37/19 
f 20/68/19 35/37/19 38/40/19 
f 20/68/19 38/40/19 52/70/19 
f 20/68/19 52/70/19 21/71/19 
f 52/72/20 38/73/20 37/74/20 
f 52/72/20 37/74/20 7/7/20 
f 52/72/20 7/7/20 6/6/20 
f 24/75/21 41/44/21 12/12/21 
f 24/75/21 12/12/21 9/9/21 
f 24/75/21 9/9/21 8/8/21 
f 24/75/21 8/8/21 7/7/21 
f 24/75/21 7/7/21 37/74/21 
f 24/75/21 37/74/21 36/76/21 
f 24/75/21 36/76/21 22/77/21 
f 46/78/22 34/36/22 33/35/22 
f 46/78/22 33/35/22 23/25/22 
f 46/78/22 23/25/22 22/24/22 
f 46/78/22 22/24/22 36/38/22 
f 46/78/22 36/38/22 35/37/22 
f 46/78/22 35/37/22 51/69/22 
f 46/78/22 51/69/22 25/79/22 
f 46/78/22 25/79/22 27/80/22 
f 47/55/23 46/54/23 27/29/23 
f 47/55/23 27/29/23 26/28/23 
f 47/55/23 26/28/23 53/81/23 
f 47/55/23 53/81/23 50/61/23 
f 49/59/24 50/61/24 53/81/24 
f 53/81/24 54/82/24 49/59/24 
f 53/81/25 26/28/25 25/27/25 
f 53/81/25 25/27/25 51/83/25 
f 53/81/25 51/83/25 20/22/25 
f 53/81/25 20/22/25 19/21/25 
f 53/81/25 19/21/25 54/82/25 
f 45/60/26 49/59/26 54/82/26 
f 45/60/26 54/82/26 19/21/26 
f 45/60/26 19/21/26 18/20/26 
f 45/60/26 18/20/26 44/84/26 
f 44/85/27 18/86/27 17/87/27 
f 44/85/27 17/87/27 40/88/27 
f 44/85/27 40/88/27 39/89/27 
f 40/43/28 17/90/28 16/91/28 
f 40/43/28 16/91/28 15/17/28 
f 40/43/28 15/17/28 14/16/28 
f 15/17/29 16/91/29 21/92/29 
f 15/17/29 21/92/29 52/72/29 
f 15/17/29 52/72/29 6/6/29 
f 15/17/29 6/6/29 5/5/29 
f 15/17/29 5/5/29 11/11/29 
# 104 faces

