# 3ds Max Wavefront OBJ Exporter v0.99 - (c)2007 guruware
# File Created: 13.11.2022 22:42:22

mtllib heiRock1.mtl

#
# object Sphere_005
#

v  6.2588 28.6654 -33.9907
v  -9.7268 2.0318 -25.9134
v  0.1770 35.3422 -35.2653
v  29.7628 75.9381 27.3419
v  19.5449 139.9320 19.0975
v  -2.7980 90.6647 21.4683
v  22.2452 62.5732 27.7933
v  28.3430 71.0439 27.6827
v  -23.5672 73.3981 7.6352
v  -33.6512 28.0181 5.0119
v  -29.8428 23.1678 12.9701
v  -26.1738 27.4304 17.8057
v  -19.4802 64.1857 17.4455
v  41.3405 182.2027 -0.0135
v  30.4541 189.2175 3.7582
v  52.9595 100.4300 11.2096
v  52.0024 166.2729 -1.8477
v  0.1626 42.3022 -36.1519
v  15.0263 44.2549 -35.3612
v  14.6423 31.7938 -33.8026
v  10.3625 118.8132 -31.7721
v  31.6518 73.0686 -33.1175
v  -11.6998 79.2352 -34.8180
v  1.1135 128.0497 -31.7306
v  49.6399 101.9914 -24.3728
v  45.2538 78.8681 -28.8552
v  -24.9295 62.5465 -25.8969
v  -4.4072 131.6509 -24.2129
v  1.1992 134.0034 -29.6887
v  4.3910 149.9952 -19.6623
v  3.2898 140.3117 -26.8587
v  -3.8290 135.3069 -21.7158
v  -7.0385 134.3331 -7.8833
v  15.6867 174.1852 -4.5287
v  -31.0932 45.8440 -20.5941
v  -17.4886 103.5511 -2.4244
v  49.6118 67.5100 -23.1874
v  53.7335 79.1125 -18.6172
v  53.6571 66.5750 2.8526
v  53.1994 64.9495 2.9352
v  47.3292 52.2087 -10.1926
v  14.4270 23.5012 26.2667
v  4.2842 12.2275 26.7437
v  -1.8694 -2.8998 23.1275
v  7.8492 -2.6340 17.7050
v  23.0534 22.1333 20.6978
v  -11.5488 -2.4435 -24.4052
v  -26.6300 -2.8473 -16.6270
v  -31.4182 4.7675 -15.1520
v  -34.1178 31.2196 -17.1663
v  29.9862 189.7944 2.9036
v  34.5642 187.3455 -0.5324
v  53.2181 110.3748 -20.3455
v  12.7853 -2.0184 -20.3267
v  23.4511 25.4101 -29.6580
v  31.0727 33.9878 17.7232
v  46.8931 65.3087 -26.3948
v  14.1459 -2.0311 -17.4220
v  -18.6906 -3.1933 20.2805
v  -23.9091 4.4631 19.8276
v  -29.3355 10.2354 12.3420
v  -36.4617 16.0988 -2.9904
v  -36.5322 16.8113 -3.0521
v  -22.6169 12.9042 20.5139
v  3.9008 24.3334 28.7552
v  14.8468 42.5211 29.1982
# 66 vertices

vn -0.0656 -0.8450 -0.5307
vn -0.1794 0.5441 0.8196
vn -0.7877 0.5482 0.2810
vn 0.4428 0.7031 0.5564
vn 0.0911 -0.6141 -0.7839
vn 0.0735 0.2990 -0.9514
vn 0.2962 0.6391 -0.7098
vn -0.6112 0.7212 -0.3261
vn -0.3720 0.9134 -0.1654
vn -0.4178 0.9073 -0.0479
vn -0.6640 0.7430 -0.0842
vn 0.6799 -0.7301 -0.0678
vn 0.2954 -0.9032 0.3113
vn -0.5555 -0.5158 -0.6522
vn -0.1119 0.9729 -0.2023
vn 0.1953 0.9798 0.0431
vn 0.2332 0.8766 -0.4210
vn 0.1068 -0.9238 -0.3676
vn 0.6897 -0.5748 0.4405
vn 0.9979 0.0637 0.0082
vn 0.8910 -0.0966 -0.4435
vn 0.4275 -0.5817 -0.6920
vn 0.4379 -0.8904 -0.1240
vn 0.3914 -0.9194 0.0396
vn -0.3737 -0.9263 0.0470
vn -0.8959 -0.4140 -0.1608
vn -0.8876 -0.1258 0.4432
vn -0.9445 -0.2122 0.2509
vn -0.4635 0.8513 0.2460
vn -0.7762 0.6300 0.0246
vn -0.3881 0.4332 0.8135
vn 0.0053 -1.0000 -0.0022
vn -0.2719 -0.5890 0.7610
vn 0.5255 -0.6354 0.5658
vn 0.2569 -0.6762 0.6904
# 35 vertex normals

vt 0.2316 0.0207 0.0000
vt 0.1410 0.0927 0.0000
vt 0.2001 0.0085 0.0000
vt 0.8823 0.0045 0.0000
vt 0.8325 0.0552 0.0000
vt 0.7060 0.0353 0.0000
vt 0.8400 0.0000 0.0000
vt 0.8741 0.0020 0.0000
vt 0.5171 0.7519 0.0000
vt 0.5769 0.7146 0.0000
vt 0.5798 0.7859 0.0000
vt 0.5722 0.8313 0.0000
vt 0.5248 0.8389 0.0000
vt 0.9437 0.2182 0.0000
vt 0.8889 0.1794 0.0000
vt 1.0000 0.1468 0.0000
vt 0.9970 0.2423 0.0000
vt 0.2013 0.0000 0.0000
vt 0.2816 0.0073 0.0000
vt 0.2773 0.0224 0.0000
vt 0.7454 0.4863 0.0000
vt 0.8512 0.5181 0.0000
vt 0.7556 0.5355 0.0000
vt 0.6750 0.5355 0.0000
vt 0.6183 0.5103 0.0000
vt 0.6973 0.4795 0.0000
vt 0.9584 0.4462 0.0000
vt 0.9280 0.4872 0.0000
vt 0.5506 0.4321 0.0000
vt 0.6734 0.4124 0.0000
vt 0.7001 0.4609 0.0000
vt 0.7267 0.3740 0.0000
vt 0.7143 0.4366 0.0000
vt 0.6788 0.3907 0.0000
vt 0.6707 0.2722 0.0000
vt 0.8016 0.2459 0.0000
vt 0.5183 0.3880 0.0000
vt 0.6132 0.2278 0.0000
vt 0.4718 0.1106 0.0000
vt 0.4961 0.1484 0.0000
vt 0.4937 0.3342 0.0000
vt 0.4909 0.3351 0.0000
vt 0.4569 0.2239 0.0000
vt 0.2752 0.5386 0.0000
vt 0.2187 0.5436 0.0000
vt 0.1828 0.5143 0.0000
vt 0.2351 0.4683 0.0000
vt 0.3213 0.4915 0.0000
vt 0.1304 0.1061 0.0000
vt 0.0493 0.1720 0.0000
vt 0.0249 0.1834 0.0000
vt 0.0152 0.1624 0.0000
vt 0.0340 0.1312 0.0000
vt 0.0701 0.0838 0.0000
vt 0.1442 0.0058 0.0000
vt 0.8859 0.1863 0.0000
vt 0.9078 0.2182 0.0000
vt 0.9817 0.4120 0.0000
vt 0.2613 0.1424 0.0000
vt 0.3235 0.0593 0.0000
vt 0.3587 0.5451 0.0000
vt 0.3665 0.4649 0.0000
vt 0.4961 0.4013 0.0000
vt 0.3672 0.5416 0.0000
vt 0.7806 0.7997 0.0000
vt 0.6441 0.8610 0.0000
vt 0.6301 0.7783 0.0000
vt 0.7270 0.6227 0.0000
vt 0.7751 0.6275 0.0000
vt 0.7305 0.5766 0.0000
vt 0.7407 0.5480 0.0000
vt 0.7686 0.5355 0.0000
vt 0.7806 0.5880 0.0000
vt 0.3762 0.0236 0.0000
vt 0.4504 0.0602 0.0000
vt 0.4568 0.0832 0.0000
vt 0.2687 0.1674 0.0000
vt 0.0923 0.4890 0.0000
vt 0.0656 0.4838 0.0000
vt 0.0374 0.4185 0.0000
vt 0.0000 0.2859 0.0000
vt 0.5917 0.5355 0.0000
vt 0.6301 0.5582 0.0000
vt 0.5990 0.6458 0.0000
vt 0.5980 0.6451 0.0000
vt 0.5994 0.7826 0.0000
vt 0.6053 0.8531 0.0000
vt 0.5935 0.8606 0.0000
vt 0.5823 0.1464 0.0000
vt 0.6094 0.0673 0.0000
vt 0.5020 0.3607 0.0000
vt 0.4961 0.2432 0.0000
vt 0.5189 0.1738 0.0000
vt 0.5505 1.0000 0.0000
vt 0.4961 0.9008 0.0000
vt 0.5904 0.9756 0.0000
vt 0.5724 0.9986 0.0000
vt 0.6200 0.8669 0.0000
vt 0.6301 0.9212 0.0000
vt 0.6099 0.9609 0.0000
vt 0.3243 0.5469 0.0000
vt 0.2810 0.5612 0.0000
vt 0.2188 0.5592 0.0000
# 103 texture coords

o Sphere_005
g Sphere_005
usemtl Material_001
s off
f 1/1/1 2/2/1 3/3/1 
f 4/4/2 5/5/2 6/6/2 
f 4/4/2 6/6/2 7/7/2 
f 4/4/2 7/7/2 8/8/2 
f 9/9/3 10/10/3 11/11/3 
f 9/9/3 11/11/3 12/12/3 
f 9/9/3 12/12/3 13/13/3 
f 14/14/4 15/15/4 5/5/4 
f 14/14/4 5/5/4 4/4/4 
f 14/14/4 4/4/4 16/16/4 
f 14/14/4 16/16/4 17/17/4 
f 18/18/5 19/19/5 20/20/5 
f 18/18/5 20/20/5 1/1/5 
f 18/18/5 1/1/5 3/3/5 
f 21/21/6 22/22/6 19/23/6 
f 21/21/6 19/23/6 18/24/6 
f 21/21/6 18/24/6 23/25/6 
f 21/21/6 23/25/6 24/26/6 
f 25/27/7 26/28/7 22/22/7 
f 22/22/7 21/21/7 25/27/7 
f 24/26/8 23/25/8 27/29/8 
f 24/26/8 27/29/8 28/30/8 
f 24/26/8 28/30/8 29/31/8 
f 30/32/9 31/33/9 29/31/9 
f 30/32/9 29/31/9 28/30/9 
f 30/32/9 28/30/9 32/34/9 
f 30/32/10 32/34/10 33/35/10 
f 33/35/10 34/36/10 30/32/10 
f 28/30/11 27/29/11 35/37/11 
f 28/30/11 35/37/11 36/38/11 
f 28/30/11 36/38/11 33/35/11 
f 28/30/11 33/35/11 32/34/11 
f 37/39/12 38/40/12 39/41/12 
f 37/39/12 39/41/12 40/42/12 
f 37/39/12 40/42/12 41/43/12 
f 42/44/13 43/45/13 44/46/13 
f 42/44/13 44/46/13 45/47/13 
f 42/44/13 45/47/13 46/48/13 
f 18/18/14 3/3/14 2/2/14 
f 18/18/14 2/2/14 47/49/14 
f 18/18/14 47/49/14 48/50/14 
f 18/18/14 48/50/14 49/51/14 
f 18/18/14 49/51/14 50/52/14 
f 18/18/14 50/52/14 35/53/14 
f 18/18/14 35/53/14 27/54/14 
f 18/18/14 27/54/14 23/55/14 
f 30/32/15 34/36/15 51/56/15 
f 30/32/15 51/56/15 52/57/15 
f 30/32/15 52/57/15 31/33/15 
f 52/57/16 51/56/16 15/15/16 
f 15/15/16 14/14/16 52/57/16 
f 31/33/17 52/57/17 14/14/17 
f 31/33/17 14/14/17 17/17/17 
f 31/33/17 17/17/17 53/58/17 
f 31/33/17 53/58/17 25/27/17 
f 31/33/17 25/27/17 21/21/17 
f 31/33/17 21/21/17 24/26/17 
f 31/33/17 24/26/17 29/31/17 
f 54/59/18 47/49/18 2/2/18 
f 54/59/18 2/2/18 1/1/18 
f 54/59/18 1/1/18 20/20/18 
f 54/59/18 20/20/18 55/60/18 
f 8/61/19 56/62/19 40/42/19 
f 8/61/19 40/42/19 39/41/19 
f 8/61/19 39/41/19 16/63/19 
f 8/61/19 16/63/19 4/64/19 
f 17/65/20 16/66/20 39/67/20 
f 17/65/20 39/67/20 38/68/20 
f 17/65/20 38/68/20 53/69/20 
f 53/69/21 38/68/21 37/70/21 
f 53/69/21 37/70/21 57/71/21 
f 53/69/21 57/71/21 26/72/21 
f 53/69/21 26/72/21 25/73/21 
f 19/19/22 22/74/22 26/75/22 
f 19/19/22 26/75/22 57/76/22 
f 19/19/22 57/76/22 55/60/22 
f 19/19/22 55/60/22 20/20/22 
f 37/39/23 41/43/23 58/77/23 
f 37/39/23 58/77/23 54/59/23 
f 37/39/23 54/59/23 55/60/23 
f 37/39/23 55/60/23 57/76/23 
f 46/48/24 45/47/24 58/77/24 
f 46/48/24 58/77/24 41/43/24 
f 46/48/24 41/43/24 40/42/24 
f 46/48/24 40/42/24 56/62/24 
f 49/51/25 48/50/25 59/78/25 
f 49/51/25 59/78/25 60/79/25 
f 49/51/25 60/79/25 61/80/25 
f 49/51/25 61/80/25 62/81/25 
f 50/82/26 49/83/26 62/84/26 
f 62/84/26 63/85/26 50/82/26 
f 12/12/27 11/11/27 61/86/27 
f 12/12/27 61/86/27 60/87/27 
f 12/12/27 60/87/27 64/88/27 
f 63/85/28 62/84/28 61/86/28 
f 63/85/28 61/86/28 11/11/28 
f 63/85/28 11/11/28 10/10/28 
f 6/6/29 5/5/29 15/15/29 
f 6/6/29 15/15/29 51/56/29 
f 6/6/29 51/56/29 34/36/29 
f 6/6/29 34/36/29 33/35/29 
f 6/6/29 33/35/29 36/38/29 
f 6/6/29 36/38/29 9/89/29 
f 6/6/29 9/89/29 13/90/29 
f 36/38/30 35/37/30 50/91/30 
f 36/38/30 50/91/30 63/92/30 
f 36/38/30 63/92/30 10/93/30 
f 36/38/30 10/93/30 9/89/30 
f 7/94/31 6/95/31 13/13/31 
f 7/94/31 13/13/31 12/12/31 
f 7/94/31 12/12/31 64/88/31 
f 7/94/31 64/88/31 65/96/31 
f 7/94/31 65/96/31 66/97/31 
f 48/50/32 47/49/32 54/59/32 
f 48/50/32 54/59/32 58/77/32 
f 48/50/32 58/77/32 45/47/32 
f 48/50/32 45/47/32 44/46/32 
f 48/50/32 44/46/32 59/78/32 
f 65/96/33 64/88/33 60/87/33 
f 65/96/33 60/87/33 59/98/33 
f 65/96/33 59/98/33 44/99/33 
f 65/96/33 44/99/33 43/100/33 
f 56/62/34 8/61/34 7/101/34 
f 7/101/34 66/102/34 42/44/34 
f 56/62/34 7/101/34 42/44/34 
f 56/62/34 42/44/34 46/48/34 
f 65/103/35 43/45/35 42/44/35 
f 42/44/35 66/102/35 65/103/35 
# 128 faces

