# 3ds Max Wavefront OBJ Exporter v0.99 - (c)2007 guruware
# File Created: 13.11.2022 22:41:57

mtllib heiRock0.mtl

#
# object Cylinder_001
#

v  -28.4257 140.7413 -21.8108
v  -23.6587 171.5078 6.3186
v  -7.2345 171.5078 -19.1960
v  39.3268 125.6280 -4.8824
v  38.1398 152.3552 6.5177
v  38.7079 140.1965 9.5477
v  40.5619 99.0483 -0.2215
v  40.3820 102.7642 -2.9903
v  39.6059 119.5198 -5.1867
v  36.3193 159.0744 6.3529
v  22.7369 170.2337 -14.9468
v  20.2772 171.5078 -15.1904
v  4.4067 171.5078 23.0193
v  15.5190 165.5096 25.2913
v  0.4367 171.5078 -21.6545
v  -23.8056 171.5078 16.2937
v  -16.8695 171.5078 21.4105
v  -26.3123 75.2533 24.6093
v  -4.9373 112.1457 36.4818
v  -32.3971 120.4107 15.3517
v  0.6584 109.1944 37.6094
v  17.4272 129.6420 33.9968
v  20.3548 124.4790 32.5915
v  31.5480 63.6179 23.5714
v  34.1536 116.8539 21.0214
v  -27.6165 35.9535 18.0657
v  -20.7206 6.0612 15.3314
v  12.2574 6.0612 24.7087
v  36.9964 33.5701 4.0101
v  31.5146 56.0462 22.9106
v  23.6318 6.0612 21.0280
v  34.5123 6.0612 -0.7348
v  32.7312 6.0612 -12.5169
v  35.2128 54.6245 -16.7327
v  -3.9936 122.3434 -35.2657
v  7.9641 134.6447 -35.3370
v  11.5685 130.6248 -35.9222
v  3.5662 83.4244 -38.7168
v  -2.9186 92.1315 -37.5564
v  13.8819 27.6343 -34.1203
v  18.6062 25.1884 -32.2122
v  20.4150 6.0612 -27.2245
v  11.2847 6.0612 -29.8060
v  -34.3400 108.3997 9.9352
v  -28.6596 139.3210 -22.1701
v  -32.0017 120.0071 -16.0971
v  33.1614 76.4837 -22.4140
v  24.0494 141.9445 -26.9013
v  28.8552 131.0392 -22.9476
v  32.4113 78.0908 -23.5473
v  27.0830 73.5431 -29.2379
v  18.6499 131.7941 -33.1033
v  -26.2604 130.7458 -25.5607
v  -15.9010 123.5495 -31.0808
v  -13.5940 94.1153 -33.7490
v  -22.5806 89.2238 -29.5360
v  -29.5526 23.8819 -15.7857
v  -28.7006 23.6997 -17.1134
v  -25.2239 6.0612 -15.7431
v  -29.8713 6.0612 -8.1016
v  -32.0740 29.6793 7.6206
v  -30.5763 6.0612 -1.1445
# 62 vertices

vn -0.5021 0.8021 -0.3232
vn 0.9952 0.0981 -0.0034
vn 0.2246 0.9700 0.0933
vn 0.0000 1.0000 -0.0000
vn -0.5840 0.1796 0.7916
vn -0.0671 0.4553 0.8878
vn 0.6441 0.0110 0.7648
vn -0.2601 -0.3088 0.9149
vn 0.8470 -0.3213 0.4235
vn 0.9797 -0.1352 -0.1481
vn -0.0798 0.1543 -0.9848
vn 0.2449 -0.4356 -0.8662
vn -0.9402 0.3403 -0.0139
vn 0.9382 -0.0041 -0.3462
vn 0.7025 0.1185 -0.7018
vn 0.7512 -0.1998 -0.6291
vn 0.2309 0.6666 -0.7087
vn 0.8004 0.4448 -0.4019
vn 0.3709 -0.0170 -0.9285
vn -0.2587 0.5304 -0.8073
vn -0.3234 0.1281 -0.9376
vn -0.4428 0.0990 -0.8911
vn -0.7795 -0.4093 -0.4741
vn -0.9082 -0.0821 0.4105
vn -0.7594 -0.4657 0.4543
vn 0.8652 0.1366 -0.4825
vn 0.6457 0.4099 0.6443
vn 0.9476 -0.0675 0.3122
vn 0.3029 -0.1784 0.9362
vn -0.9934 -0.0551 -0.1007
vn 0.0000 -1.0000 0.0000
vn -0.8420 -0.0498 -0.5372
vn -0.3435 -0.2944 -0.8918
# 33 vertex normals

vt 0.1579 0.8736 0.0000
vt 0.0908 0.2141 0.0000
vt 0.2008 0.3959 0.0000
vt 0.7682 0.8589 0.0000
vt 0.7013 0.8874 0.0000
vt 0.7062 0.9016 0.0000
vt 0.7492 0.7807 0.0000
vt 0.7613 0.7916 0.0000
vt 0.7712 0.8422 0.0000
vt 0.6826 0.8545 0.0000
vt 0.4179 0.4589 0.0000
vt 0.3854 0.4101 0.0000
vt 0.3449 0.3464 0.0000
vt 0.4039 0.3250 0.0000
vt 0.3626 0.3421 0.0000
vt 0.2389 0.3824 0.0000
vt 0.1911 0.3671 0.0000
vt 0.0887 0.2080 0.0000
vt 0.0878 0.1458 0.0000
vt 0.1310 0.1139 0.0000
vt 0.2637 0.1039 0.0000
vt 0.3647 0.7080 0.0000
vt 0.4616 0.7933 0.0000
vt 0.2775 0.5511 0.0000
vt 0.2800 0.7197 0.0000
vt 0.3153 0.8321 0.0000
vt 0.4912 0.8043 0.0000
vt 0.5519 0.8179 0.0000
vt 0.5709 0.8231 0.0000
vt 0.6471 0.6629 0.0000
vt 0.6559 0.8348 0.0000
vt 0.4196 0.4828 0.0000
vt 0.6070 0.1518 0.0000
vt 0.6101 0.3929 0.0000
vt 0.7377 0.5685 0.0000
vt 0.6700 0.6104 0.0000
vt 0.8835 0.1163 0.0000
vt 0.8193 0.3834 0.0000
vt 0.7494 0.7804 0.0000
vt 0.9514 0.2520 0.0000
vt 0.9122 0.3671 0.0000
vt 0.8498 0.6114 0.0000
vt 0.4224 0.8059 0.0000
vt 0.8456 0.7884 0.0000
vt 0.8913 0.8370 0.0000
vt 0.6199 0.7334 0.0000
vt 0.4014 0.7599 0.0000
vt 0.6698 0.5500 0.0000
vt 0.9371 0.5366 0.0000
vt 0.8635 0.4171 0.0000
vt 0.6337 0.4408 0.0000
vt 0.2893 0.7930 0.0000
vt 0.3061 0.8046 0.0000
vt 0.1553 0.8823 0.0000
vt 0.1826 0.8359 0.0000
vt 0.8529 0.7066 0.0000
vt 0.7642 0.7585 0.0000
vt 0.8397 0.8525 0.0000
vt 0.8570 0.7135 0.0000
vt 0.8879 0.7023 0.0000
vt 0.8833 0.8473 0.0000
vt 0.8572 0.6003 0.0000
vt 0.9403 0.3255 0.0000
vt 0.9518 0.4280 0.0000
vt 0.8579 0.7122 0.0000
vt 0.8542 0.7047 0.0000
vt 0.8249 0.7884 0.0000
vt 0.2513 0.4192 0.0000
vt 0.8810 0.7015 0.0000
vt 0.8454 0.5253 0.0000
vt 0.8205 0.5420 0.0000
vt 0.1363 0.8681 0.0000
vt 0.2480 0.8360 0.0000
vt 0.2204 0.7660 0.0000
vt 0.1129 0.7513 0.0000
vt 0.2305 0.5486 0.0000
vt 0.2222 0.5488 0.0000
vt 0.5790 0.3456 0.0000
vt 0.5316 0.3364 0.0000
vt 0.2930 0.8039 0.0000
vt 0.3277 0.5201 0.0000
vt 0.3818 0.5620 0.0000
vt 0.3096 0.5579 0.0000
vt 0.5063 0.3369 0.0000
vt 0.4847 0.4083 0.0000
vt 0.6556 0.6283 0.0000
vt 0.7326 0.5749 0.0000
vt 0.8126 0.0934 0.0000
vt 0.7480 0.2850 0.0000
vt 0.8066 0.4332 0.0000
vt 0.5456 0.2546 0.0000
vt 0.5500 0.2979 0.0000
vt 0.1159 0.7497 0.0000
vt 0.4556 0.4216 0.0000
vt 0.4706 0.4177 0.0000
vt 0.3999 0.7600 0.0000
vt 0.6174 0.7336 0.0000
vt 0.3199 0.4868 0.0000
vt 0.2198 0.7660 0.0000
# 99 texture coords

o Cylinder_001
g Cylinder_001
usemtl Material_002
s off
f 1/1/1 2/2/1 3/3/1 
f 4/4/2 5/5/2 6/6/2 
f 4/4/2 6/6/2 7/7/2 
f 4/4/2 7/7/2 8/8/2 
f 4/4/2 8/8/2 9/9/2 
f 10/10/3 11/11/3 12/12/3 
f 10/10/3 12/12/3 13/13/3 
f 10/10/3 13/13/3 14/14/3 
f 12/15/4 15/16/4 3/17/4 
f 12/15/4 3/17/4 2/18/4 
f 12/15/4 2/18/4 16/19/4 
f 12/15/4 16/19/4 17/20/4 
f 12/15/4 17/20/4 13/21/4 
f 18/22/5 19/23/5 17/24/5 
f 18/22/5 17/24/5 16/25/5 
f 18/22/5 16/25/5 20/26/5 
f 21/27/6 22/28/6 14/14/6 
f 21/27/6 14/14/6 13/13/6 
f 21/27/6 13/13/6 17/24/6 
f 21/27/6 17/24/6 19/23/6 
f 23/29/7 24/30/7 25/31/7 
f 18/22/8 26/32/8 27/33/8 
f 18/22/8 27/33/8 28/34/8 
f 18/22/8 28/34/8 21/27/8 
f 18/22/8 21/27/8 19/23/8 
f 29/35/9 30/36/9 31/37/9 
f 31/37/9 32/38/9 29/35/9 
f 8/8/10 7/39/10 29/35/10 
f 8/8/10 29/35/10 32/40/10 
f 8/8/10 32/40/10 33/41/10 
f 8/8/10 33/41/10 34/42/10 
f 35/43/11 36/44/11 37/45/11 
f 35/43/11 37/45/11 38/46/11 
f 35/43/11 38/46/11 39/47/11 
f 40/48/12 41/49/12 42/50/12 
f 42/50/12 43/51/12 40/48/12 
f 44/52/13 20/53/13 16/19/13 
f 44/52/13 16/19/13 2/2/13 
f 44/52/13 2/2/13 1/1/13 
f 44/52/13 1/1/13 45/54/13 
f 44/52/13 45/54/13 46/55/13 
f 9/9/14 8/8/14 34/42/14 
f 34/42/14 47/56/14 9/9/14 
f 48/57/15 49/58/15 50/59/15 
f 48/57/15 50/59/15 51/60/15 
f 48/57/15 51/60/15 52/61/15 
f 34/62/16 33/63/16 42/64/16 
f 34/62/16 42/64/16 41/49/16 
f 34/62/16 41/49/16 51/60/16 
f 34/62/16 51/60/16 50/65/16 
f 34/62/16 50/65/16 47/66/16 
f 36/67/17 15/68/17 12/12/17 
f 36/67/17 12/12/17 11/11/17 
f 36/67/17 11/11/17 48/57/17 
f 36/67/17 48/57/17 52/61/17 
f 36/67/17 52/61/17 37/45/17 
f 5/5/18 4/4/18 49/58/18 
f 5/5/18 49/58/18 48/57/18 
f 5/5/18 48/57/18 11/11/18 
f 5/5/18 11/11/18 10/10/18 
f 51/69/19 41/70/19 40/71/19 
f 51/69/19 40/71/19 38/46/19 
f 51/69/19 38/46/19 37/45/19 
f 51/69/19 37/45/19 52/61/19 
f 53/72/20 45/54/20 1/1/20 
f 53/72/20 1/1/20 3/3/20 
f 53/72/20 3/3/20 15/68/20 
f 53/72/20 15/68/20 36/44/20 
f 53/72/20 36/44/20 35/43/20 
f 53/72/20 35/43/20 54/73/20 
f 55/74/21 54/73/21 35/43/21 
f 35/43/21 39/47/21 55/74/21 
f 54/73/22 55/74/22 56/75/22 
f 56/75/22 53/72/22 54/73/22 
f 57/76/23 58/77/23 59/78/23 
f 59/78/23 60/79/23 57/76/23 
f 20/26/24 44/80/24 61/81/24 
f 20/26/24 61/81/24 26/32/24 
f 20/26/24 26/32/24 18/22/24 
f 26/82/25 61/83/25 62/84/25 
f 62/84/25 27/85/25 26/82/25 
f 50/59/26 49/58/26 4/4/26 
f 50/59/26 4/4/26 9/9/26 
f 50/59/26 9/9/26 47/56/26 
f 23/29/27 25/31/27 6/6/27 
f 23/29/27 6/6/27 5/5/27 
f 23/29/27 5/5/27 10/10/27 
f 23/29/27 10/10/27 14/14/27 
f 23/29/27 14/14/27 22/28/27 
f 30/86/28 29/87/28 7/7/28 
f 30/86/28 7/7/28 6/6/28 
f 30/86/28 6/6/28 25/31/28 
f 30/86/28 25/31/28 24/30/28 
f 21/27/29 28/88/29 31/89/29 
f 21/27/29 31/89/29 30/86/29 
f 21/27/29 30/86/29 24/30/29 
f 21/27/29 24/30/29 23/29/29 
f 21/27/29 23/29/29 22/28/29 
f 44/80/30 46/55/30 57/76/30 
f 44/80/30 57/76/30 60/79/30 
f 44/80/30 60/79/30 62/84/30 
f 44/80/30 62/84/30 61/81/30 
f 43/90/31 42/50/31 33/63/31 
f 43/90/31 33/63/31 32/40/31 
f 43/90/31 32/40/31 31/37/31 
f 43/90/31 31/37/31 28/88/31 
f 43/90/31 28/88/31 27/33/31 
f 43/90/31 27/33/31 62/91/31 
f 43/90/31 62/91/31 60/92/31 
f 43/90/31 60/92/31 59/78/31 
f 46/55/32 45/54/32 53/72/32 
f 46/55/32 53/72/32 56/93/32 
f 46/55/32 56/93/32 58/94/32 
f 46/55/32 58/94/32 57/95/32 
f 39/96/33 38/97/33 40/48/33 
f 39/96/33 40/48/33 43/90/33 
f 39/96/33 43/90/33 59/98/33 
f 39/96/33 59/98/33 58/77/33 
f 39/96/33 58/77/33 56/75/33 
f 39/96/33 56/75/33 55/99/33 
# 120 faces

