# 3ds Max Wavefront OBJ Exporter v0.99 - (c)2007 guruware
# File Created: 13.11.2022 22:43:17

mtllib heiRock4.mtl

#
# object Sphere
#

v  -8.0921 2.5722 -2.8615
v  -15.2904 12.3054 6.4746
v  -22.7909 23.7065 4.7070
v  -23.5083 26.0346 -6.7602
v  -19.1761 19.8323 -9.2342
v  -19.7356 169.5062 -6.6204
v  -27.7376 123.9644 -18.9097
v  -29.1060 123.7127 -17.5695
v  -29.1883 123.9367 -17.3797
v  -30.1678 142.9077 -7.6743
v  -22.9369 164.2676 -5.6085
v  0.4539 193.5421 3.6736
v  -13.2147 184.9172 6.5839
v  -12.8282 183.8609 9.2588
v  -8.3738 184.1929 13.5671
v  3.0373 191.8103 10.2532
v  15.7899 175.8830 -16.8783
v  11.0005 186.4720 -9.5113
v  25.2085 176.9475 1.0097
v  27.3517 173.3761 -0.5607
v  18.2994 173.3762 -16.2396
v  38.7038 108.0974 -12.9618
v  41.8159 78.9212 -3.3433
v  38.9986 75.4991 -11.0699
v  38.1890 107.7961 -14.3844
v  15.5216 183.4412 13.8941
v  17.6795 160.7348 23.7722
v  31.2101 129.3606 19.1500
v  36.4357 129.3606 10.0991
v  33.6176 155.7802 -0.8622
v  12.7502 171.1723 -20.1556
v  4.7797 171.1723 -20.1556
v  -5.6324 189.7016 -7.2644
v  0.4539 193.5421 -4.5925
v  -11.5131 185.9909 -5.2470
v  -15.1693 183.6838 0.7283
v  -17.9115 125.3406 29.7862
v  -17.8608 125.8873 29.7432
v  -17.9972 125.6636 29.7054
v  -28.3044 125.6636 19.3981
v  -8.5685 146.0915 30.1426
v  10.8510 2.1345 -8.7331
v  13.8161 4.3164 -9.8257
v  17.6247 2.4781 -1.3428
v  17.3254 2.1005 -0.8972
v  10.9310 -0.0906 -3.8967
v  1.1841 1.5685 -10.7213
v  14.4365 9.4527 -14.0217
v  -36.1950 88.0472 -2.6760
v  -33.0976 57.1534 2.3412
v  -30.6831 49.3178 9.6931
v  -29.3300 62.0180 17.4323
v  -33.1168 114.5351 14.4213
v  -35.8148 114.5351 4.3523
v  -23.9288 120.1823 -22.5130
v  -9.7017 120.1822 -30.7271
v  -13.6622 95.2942 -31.5297
v  -14.3678 95.2942 -31.1223
v  -22.7029 75.7073 -22.4479
v  -1.1862 63.8982 -32.5421
v  -1.9927 42.5058 -27.8585
v  -9.7529 22.2733 -19.3887
v  21.2041 73.2854 -28.6927
v  27.7665 41.5724 -19.6707
v  27.6116 39.8097 -19.3085
v  25.3552 31.8470 -18.0893
v  16.7421 16.0263 -16.7736
v  17.6223 83.1860 -31.9201
v  30.1109 42.5556 -17.4026
v  29.5770 39.8097 -17.1584
v  29.0783 36.0667 -15.9706
v  30.8565 78.6136 24.5133
v  35.7733 65.8222 17.1945
v  41.9958 77.2353 5.3485
v  23.2708 54.5397 27.1308
v  28.4212 75.3947 26.2465
v  10.4139 86.9955 35.4637
v  8.1895 78.0548 35.8504
v  15.1114 50.9474 30.6660
v  5.1488 139.0336 33.2131
v  28.1651 39.5471 19.3982
v  26.5792 32.0745 17.8681
v  31.9266 32.0745 -2.0884
v  42.2677 74.6861 1.7926
v  0.1652 139.0336 33.2131
v  -8.2586 101.5503 34.8342
v  4.9901 77.2234 35.8863
v  -14.2550 102.7018 33.1083
v  -20.8784 62.0180 25.8839
v  -33.5688 88.8098 -12.2338
v  -31.2043 76.5171 -14.1892
v  -28.1896 41.2260 -6.6304
v  -29.2102 123.4285 -17.4600
v  -5.0901 128.0352 -30.4738
v  19.7941 101.8480 -31.3183
v  23.9111 103.3044 -28.3138
v  17.5475 138.1936 -28.0440
v  15.9576 128.0352 -30.4738
v  26.4428 143.1151 -21.3177
v  36.1591 131.9533 -11.5642
v  34.2774 126.7292 -18.1349
v  -10.0494 19.7821 -18.3459
v  10.0890 8.5293 15.8696
v  3.1271 12.4824 17.2996
v  -6.5563 11.1703 14.2090
v  7.3449 -0.8540 8.2726
v  9.7221 3.9752 12.3929
v  -13.4840 48.3505 26.4058
v  -7.2095 11.5646 14.1830
v  1.2533 43.4199 28.4910
v  16.2167 16.5170 18.7591
v  14.3243 48.2291 30.2307
v  5.2364 51.0352 31.2458
v  19.4474 16.5683 16.9106
v  -2.1483 -1.9319 -4.2619
v  4.7120 -3.2969 0.9678
v  7.9288 -2.6440 5.7288
v  0.7946 1.4943 -10.6902
v  15.9098 1.0515 2.5203
v  10.8558 -1.3795 5.2087
v  30.0666 26.7203 -4.6681
v  16.4172 6.7139 10.6959
v  15.1173 5.5035 10.4753
v  -13.6053 48.7156 26.4681
v  2.8033 61.0417 33.1526
v  34.9880 120.0387 -18.5348
# 126 vertices

vn -0.5135 -0.8578 -0.0226
vn -0.6364 0.6822 -0.3600
vn -0.2067 0.9722 0.1105
vn 0.4202 0.8956 -0.1459
vn 0.9770 -0.0288 -0.2112
vn 0.7318 0.6323 0.2542
vn -0.0000 0.9449 -0.3273
vn -0.5948 0.7906 -0.1453
vn -0.5792 0.3709 0.7260
vn -0.6240 0.6854 0.3753
vn 0.2187 -0.9696 -0.1097
vn 0.1153 -0.9555 -0.2716
vn -0.9777 -0.1385 0.1576
vn -0.6491 0.3483 -0.6763
vn -0.5963 -0.5083 -0.6213
vn 0.3073 -0.6555 -0.6898
vn 0.7504 -0.5164 -0.4126
vn 0.6430 -0.6794 -0.3536
vn 0.9371 0.1264 0.3254
vn 0.5951 -0.2314 0.7696
vn 0.6625 0.2911 0.6902
vn 0.8247 -0.5497 0.1329
vn 0.7810 -0.3965 0.4826
vn -0.0000 0.1766 0.9843
vn -0.3788 0.3651 0.8504
vn -0.8565 -0.0316 0.5152
vn -0.9269 -0.3396 -0.1597
vn -0.8492 -0.0616 -0.5244
vn -0.8961 0.3067 -0.3209
vn -0.9661 0.2060 -0.1557
vn -0.4632 0.7434 -0.4826
vn -0.2451 0.9695 -0.0000
vn -0.7821 0.6102 0.1261
vn 0.0000 0.8747 0.4846
vn 0.2594 0.9658 -0.0000
vn 0.7719 -0.1413 -0.6198
vn 0.0000 0.7044 -0.7098
vn 0.4977 0.6953 -0.5185
vn 0.9663 0.2573 -0.0000
vn 0.7152 0.6533 -0.2484
vn -0.7215 -0.5395 -0.4340
vn -0.7927 -0.6096 -0.0000
vn -0.1108 -0.9457 0.3056
vn -0.2329 -0.8200 0.5229
vn -0.0000 -0.8322 0.5545
vn 0.4946 -0.6998 0.5153
vn -0.2412 -0.9618 0.1298
vn -0.3601 -0.9076 -0.2158
vn 0.0000 -0.8666 -0.4990
vn 0.0611 -0.9920 -0.1106
vn 0.1610 -0.9864 -0.0329
vn 0.5499 -0.8131 -0.1910
vn 0.3096 -0.9397 0.1453
vn 0.6402 -0.7613 0.1032
vn 0.2671 -0.9237 0.2747
vn 0.2224 -0.9557 0.1928
vn -0.4174 -0.4230 0.8043
vn -0.5835 -0.7323 0.3510
vn -0.2521 -0.6897 0.6788
vn 0.0764 -0.5895 0.8042
vn 0.7054 0.3411 -0.6213
vn 0.0000 0.1326 -0.9912
vn 0.9288 0.3001 -0.2175
vn 0.8695 -0.4737 -0.1401
vn 0.8454 -0.1636 -0.5085
# 65 vertex normals

vt 0.0580 0.2507 0.0000
vt 0.1092 0.1705 0.0000
vt 0.1536 0.1903 0.0000
vt 0.1491 0.2938 0.0000
vt 0.1207 0.3138 0.0000
vt 0.5684 0.3206 0.0000
vt 0.6185 0.1738 0.0000
vt 0.6285 0.1836 0.0000
vt 0.6291 0.1853 0.0000
vt 0.6397 0.2813 0.0000
vt 0.5909 0.3221 0.0000
vt 0.4698 0.4273 0.0000
vt 0.5516 0.4391 0.0000
vt 0.5562 0.4581 0.0000
vt 0.5427 0.4913 0.0000
vt 0.4722 0.4752 0.0000
vt 0.3745 0.8333 0.0000
vt 0.3528 0.7732 0.0000
vt 0.4082 0.6673 0.0000
vt 0.4174 0.6790 0.0000
vt 0.3846 0.8253 0.0000
vt 0.5594 0.7967 0.0000
vt 0.6370 0.7239 0.0000
vt 0.6307 0.7951 0.0000
vt 0.5575 0.8097 0.0000
vt 0.3935 0.5697 0.0000
vt 0.4562 0.4931 0.0000
vt 0.5392 0.5264 0.0000
vt 0.5373 0.5952 0.0000
vt 0.4644 0.6802 0.0000
vt 0.3629 0.2507 0.0000
vt 0.3749 0.2203 0.0000
vt 0.4150 0.2202 0.0000
vt 0.4802 0.3397 0.0000
vt 0.4522 0.3645 0.0000
vt 0.3943 0.3190 0.0000
vt 0.5170 0.3505 0.0000
vt 0.5499 0.3931 0.0000
vt 0.1572 0.7568 0.0000
vt 0.1584 0.7563 0.0000
vt 0.1582 0.7572 0.0000
vt 0.3271 0.7178 0.0000
vt 0.3442 0.7510 0.0000
vt 0.2006 0.8344 0.0000
vt 0.1921 0.6980 0.0000
vt 0.7512 0.7437 0.0000
vt 0.7695 0.7411 0.0000
vt 0.7663 0.8162 0.0000
vt 0.7635 0.8191 0.0000
vt 0.7386 0.7823 0.0000
vt 0.7114 0.7058 0.0000
vt 0.7874 0.7071 0.0000
vt 0.3028 0.2743 0.0000
vt 0.2446 0.2213 0.0000
vt 0.2298 0.1531 0.0000
vt 0.2538 0.0867 0.0000
vt 0.3528 0.1271 0.0000
vt 0.3528 0.2177 0.0000
vt 0.5947 0.1420 0.0000
vt 0.5056 0.0798 0.0000
vt 0.5435 0.0444 0.0000
vt 0.5480 0.0475 0.0000
vt 0.2146 0.4463 0.0000
vt 0.2093 0.5275 0.0000
vt 0.2064 0.5311 0.0000
vt 0.1078 0.5305 0.0000
vt 0.0792 0.4835 0.0000
vt 0.0812 0.4039 0.0000
vt 0.9260 0.5701 0.0000
vt 0.8980 0.6751 0.0000
vt 0.8944 0.6787 0.0000
vt 0.8721 0.6877 0.0000
vt 0.8116 0.6874 0.0000
vt 0.7830 0.5408 0.0000
vt 0.8223 0.4931 0.0000
vt 0.9287 0.5304 0.0000
vt 0.9049 0.6975 0.0000
vt 0.8987 0.6998 0.0000
vt 0.8894 0.7101 0.0000
vt 0.6518 0.5045 0.0000
vt 0.6784 0.5650 0.0000
vt 0.6509 0.6508 0.0000
vt 0.9524 0.2426 0.0000
vt 0.9952 0.2198 0.0000
vt 0.9939 0.3474 0.0000
vt 0.9755 0.3573 0.0000
vt 0.9362 0.2954 0.0000
vt 0.0359 0.5553 0.0000
vt 0.0468 0.5455 0.0000
vt 0.1689 0.5311 0.0000
vt 0.2263 0.5728 0.0000
vt 0.1578 0.6246 0.0000
vt 0.0400 0.6187 0.0000
vt 0.9487 0.0294 0.0000
vt 0.9650 0.1313 0.0000
vt 0.9123 0.1714 0.0000
vt 0.8895 0.1661 0.0000
vt 0.8176 0.0113 0.0000
vt 0.9300 0.0041 0.0000
vt 1.0000 0.1996 0.0000
vt 0.1612 0.6499 0.0000
vt 0.0846 0.7076 0.0000
vt 0.0222 0.6501 0.0000
vt 0.0219 0.6335 0.0000
vt 0.0969 0.7416 0.0000
vt 0.0778 0.8764 0.0000
vt 0.0430 0.8132 0.0000
vt 0.1982 0.8764 0.0000
vt 0.2855 0.3597 0.0000
vt 0.2545 0.3739 0.0000
vt 0.1915 0.2971 0.0000
vt 0.3173 0.4272 0.0000
vt 0.2938 0.4580 0.0000
vt 0.3231 0.4143 0.0000
vt 0.3231 0.4153 0.0000
vt 0.6295 0.1841 0.0000
vt 0.7241 0.2546 0.0000
vt 0.7162 0.3391 0.0000
vt 0.6899 0.1830 0.0000
vt 0.4768 0.0910 0.0000
vt 0.7241 0.4156 0.0000
vt 0.7017 0.4665 0.0000
vt 0.3083 0.5961 0.0000
vt 0.3464 0.6640 0.0000
vt 0.4238 0.4931 0.0000
vt 0.3528 0.3878 0.0000
vt 0.5556 1.0000 0.0000
vt 0.5205 0.9832 0.0000
vt 0.5276 0.9510 0.0000
vt 0.5860 0.9718 0.0000
vt 0.3601 0.1217 0.0000
vt 0.3709 0.0913 0.0000
vt 0.3757 0.8677 0.0000
vt 0.4559 0.8699 0.0000
vt 0.4440 0.9423 0.0000
vt 0.5065 0.7779 0.0000
vt 0.6526 0.6817 0.0000
vt 0.5069 0.8387 0.0000
vt 0.0791 0.3940 0.0000
vt 0.7927 0.2095 0.0000
vt 0.7819 0.2443 0.0000
vt 0.7343 0.2576 0.0000
vt 0.7362 0.1669 0.0000
vt 0.7694 0.1868 0.0000
vt 0.8194 0.3680 0.0000
vt 0.7326 0.2598 0.0000
vt 0.8702 0.3294 0.0000
vt 0.8372 0.2079 0.0000
vt 0.9278 0.2950 0.0000
vt 0.9065 0.3345 0.0000
vt 0.8396 0.1838 0.0000
vt 0.0834 0.0996 0.0000
vt 0.0864 0.1000 0.0000
vt 0.0278 0.2612 0.0000
vt 0.0059 0.2129 0.0000
vt 0.0000 0.1699 0.0000
vt 0.0076 0.1477 0.0000
vt 0.0168 0.3192 0.0000
vt 0.7095 0.7051 0.0000
vt 0.6991 0.6089 0.0000
vt 0.7057 0.6000 0.0000
vt 0.6964 0.8067 0.0000
vt 0.6784 0.7495 0.0000
vt 0.7486 0.8426 0.0000
vt 0.7172 0.8526 0.0000
vt 0.7014 0.8504 0.0000
vt 0.8584 0.8049 0.0000
vt 0.7412 0.0974 0.0000
vt 0.7877 0.1516 0.0000
vt 0.7807 0.1547 0.0000
vt 0.7332 0.1335 0.0000
vt 0.7321 0.0692 0.0000
vt 0.7316 0.0651 0.0000
vt 0.7923 0.0000 0.0000
vt 0.7241 0.1473 0.0000
vt 0.0089 0.7816 0.0000
vt 0.0000 0.6759 0.0000
vt 0.1825 0.0005 0.0000
vt 0.1836 0.0000 0.0000
vt 0.2315 0.0096 0.0000
vt 0.9214 0.3569 0.0000
vt 0.8198 0.3689 0.0000
vt 0.9640 0.3689 0.0000
vt 0.4600 0.9699 0.0000
vt 0.5217 0.8440 0.0000
vt 0.3705 0.0541 0.0000
vt 0.3949 0.0276 0.0000
vt 0.5035 0.0000 0.0000
vt 0.9571 0.8526 0.0000
vt 0.8677 0.8256 0.0000
vt 0.9709 0.7459 0.0000
vt 0.9711 0.8095 0.0000
vt 0.6784 0.8769 0.0000
vt 0.6740 0.9000 0.0000
# 194 texture coords

o Sphere
g Sphere
usemtl Material_001
s off
f 1/1/1 2/2/1 3/3/1 
f 1/1/1 3/3/1 4/4/1 
f 1/1/1 4/4/1 5/5/1 
f 6/6/2 7/7/2 8/8/2 
f 6/6/2 8/8/2 9/9/2 
f 6/6/2 9/9/2 10/10/2 
f 6/6/2 10/10/2 11/11/2 
f 12/12/3 13/13/3 14/14/3 
f 12/12/3 14/14/3 15/15/3 
f 12/12/3 15/15/3 16/16/3 
f 17/17/4 18/18/4 19/19/4 
f 17/17/4 19/19/4 20/20/4 
f 17/17/4 20/20/4 21/21/4 
f 22/22/5 23/23/5 24/24/5 
f 24/24/5 25/25/5 22/22/5 
f 26/26/6 27/27/6 28/28/6 
f 26/26/6 28/28/6 29/29/6 
f 26/26/6 29/29/6 30/30/6 
f 26/26/6 30/30/6 20/20/6 
f 26/26/6 20/20/6 19/19/6 
f 17/31/7 31/32/7 32/33/7 
f 17/31/7 32/33/7 33/34/7 
f 17/31/7 33/34/7 34/35/7 
f 17/31/7 34/35/7 18/36/7 
f 35/37/8 6/6/8 11/11/8 
f 11/11/8 36/38/8 35/37/8 
f 37/39/9 38/40/9 39/41/9 
f 15/42/10 14/43/10 40/44/10 
f 15/42/10 40/44/10 39/41/10 
f 15/42/10 39/41/10 38/40/10 
f 15/42/10 38/40/10 41/45/10 
f 42/46/11 43/47/11 44/48/11 
f 42/46/11 44/48/11 45/49/11 
f 42/46/11 45/49/11 46/50/11 
f 42/46/12 47/51/12 48/52/12 
f 48/52/12 43/47/12 42/46/12 
f 49/53/13 50/54/13 51/55/13 
f 49/53/13 51/55/13 52/56/13 
f 49/53/13 52/56/13 53/57/13 
f 49/53/13 53/57/13 54/58/13 
f 55/59/14 56/60/14 57/61/14 
f 57/61/14 58/62/14 55/59/14 
f 59/63/15 58/64/15 57/65/15 
f 59/63/15 57/65/15 60/66/15 
f 59/63/15 60/66/15 61/67/15 
f 59/63/15 61/67/15 62/68/15 
f 63/69/16 64/70/16 65/71/16 
f 63/69/16 65/71/16 66/72/16 
f 63/69/16 66/72/16 67/73/16 
f 63/69/16 67/73/16 61/74/16 
f 63/69/16 61/74/16 60/75/16 
f 63/69/16 60/75/16 68/76/16 
f 64/70/17 69/77/17 70/78/17 
f 70/78/17 65/71/17 64/70/17 
f 66/72/18 65/71/18 70/78/18 
f 70/78/18 71/79/18 66/72/18 
f 72/80/19 73/81/19 74/82/19 
f 72/80/19 74/82/19 29/29/19 
f 72/80/19 29/29/19 28/28/19 
f 75/83/20 76/84/20 77/85/20 
f 75/83/20 77/85/20 78/86/20 
f 75/83/20 78/86/20 79/87/20 
f 76/88/21 72/89/21 28/90/21 
f 76/88/21 28/90/21 27/91/21 
f 76/88/21 27/91/21 80/92/21 
f 76/88/21 80/92/21 77/93/21 
f 74/94/22 73/95/22 81/96/22 
f 74/94/22 81/96/22 82/97/22 
f 74/94/22 82/97/22 83/98/22 
f 74/94/22 83/98/22 84/99/22 
f 73/95/23 72/100/23 76/84/23 
f 73/95/23 76/84/23 75/83/23 
f 73/95/23 75/83/23 81/96/23 
f 85/101/24 86/102/24 87/103/24 
f 85/101/24 87/103/24 78/104/24 
f 85/101/24 78/104/24 77/93/24 
f 85/101/24 77/93/24 80/92/24 
f 38/40/25 37/39/25 88/105/25 
f 38/40/25 88/105/25 86/102/25 
f 38/40/25 86/102/25 85/101/25 
f 38/40/25 85/101/25 41/45/25 
f 52/106/26 89/107/26 88/105/26 
f 52/106/26 88/105/26 37/39/26 
f 52/106/26 37/39/26 39/41/26 
f 52/106/26 39/41/26 40/44/26 
f 52/106/26 40/44/26 53/108/26 
f 50/54/27 49/53/27 90/109/27 
f 50/54/27 90/109/27 91/110/27 
f 50/54/27 91/110/27 92/111/27 
f 7/112/28 55/113/28 58/64/28 
f 7/112/28 58/64/28 59/63/28 
f 7/112/28 59/63/28 91/110/28 
f 7/112/28 91/110/28 90/109/28 
f 7/112/28 90/109/28 93/114/28 
f 7/112/28 93/114/28 8/115/28 
f 93/116/29 9/9/29 8/8/29 
f 49/117/30 54/118/30 10/10/30 
f 49/117/30 10/10/30 9/9/30 
f 49/117/30 9/9/30 93/116/30 
f 49/117/30 93/116/30 90/119/30 
f 7/7/31 6/6/31 35/37/31 
f 7/7/31 35/37/31 33/34/31 
f 7/7/31 33/34/31 32/33/31 
f 7/7/31 32/33/31 94/120/31 
f 7/7/31 94/120/31 56/60/31 
f 7/7/31 56/60/31 55/59/31 
f 13/13/32 12/12/32 34/35/32 
f 13/13/32 34/35/32 33/34/32 
f 13/13/32 33/34/32 35/37/32 
f 13/13/32 35/37/32 36/38/32 
f 10/10/33 54/118/33 53/121/33 
f 10/10/33 53/121/33 40/122/33 
f 10/10/33 40/122/33 14/14/33 
f 10/10/33 14/14/33 13/13/33 
f 10/10/33 13/13/33 36/38/33 
f 10/10/33 36/38/33 11/11/33 
f 27/91/34 26/123/34 16/124/34 
f 27/91/34 16/124/34 15/42/34 
f 27/91/34 15/42/34 41/45/34 
f 27/91/34 41/45/34 85/101/34 
f 27/91/34 85/101/34 80/92/34 
f 34/35/35 12/12/35 16/16/35 
f 34/35/35 16/16/35 26/125/35 
f 34/35/35 26/125/35 19/126/35 
f 34/35/35 19/126/35 18/36/35 
f 68/127/36 95/128/36 96/129/36 
f 96/129/36 63/130/36 68/127/36 
f 94/120/37 32/33/37 31/32/37 
f 94/120/37 31/32/37 97/131/37 
f 94/120/37 97/131/37 98/132/37 
f 31/133/38 17/17/38 21/21/38 
f 31/133/38 21/21/38 99/134/38 
f 31/133/38 99/134/38 97/135/38 
f 23/23/39 22/22/39 100/136/39 
f 23/23/39 100/136/39 30/30/39 
f 23/23/39 30/30/39 29/29/39 
f 23/23/39 29/29/39 74/82/39 
f 23/23/39 74/82/39 84/137/39 
f 21/21/40 20/20/40 30/30/40 
f 21/21/40 30/30/40 100/136/40 
f 21/21/40 100/136/40 101/138/40 
f 21/21/40 101/138/40 99/134/40 
f 59/63/41 62/68/41 102/139/41 
f 59/63/41 102/139/41 5/5/41 
f 59/63/41 5/5/41 4/4/41 
f 59/63/41 4/4/41 92/111/41 
f 59/63/41 92/111/41 91/110/41 
f 50/54/42 92/111/42 4/4/42 
f 50/54/42 4/4/42 3/3/42 
f 50/54/42 3/3/42 51/55/42 
f 103/140/43 104/141/43 105/142/43 
f 103/140/43 105/142/43 106/143/43 
f 103/140/43 106/143/43 107/144/43 
f 108/145/44 109/146/44 105/142/44 
f 108/145/44 105/142/44 104/141/44 
f 108/145/44 104/141/44 110/147/44 
f 110/147/45 104/141/45 103/140/45 
f 110/147/45 103/140/45 111/148/45 
f 110/147/45 111/148/45 112/149/45 
f 110/147/45 112/149/45 113/150/45 
f 79/87/46 112/149/46 111/148/46 
f 79/87/46 111/148/46 114/151/46 
f 79/87/46 114/151/46 82/97/46 
f 79/87/46 82/97/46 81/96/46 
f 79/87/46 81/96/46 75/83/46 
f 105/152/47 109/153/47 2/2/47 
f 105/152/47 2/2/47 1/1/47 
f 105/152/47 1/1/47 115/154/47 
f 105/152/47 115/154/47 116/155/47 
f 105/152/47 116/155/47 117/156/47 
f 105/152/47 117/156/47 106/157/47 
f 1/1/48 5/5/48 102/139/48 
f 1/1/48 102/139/48 118/158/48 
f 1/1/48 118/158/48 115/154/48 
f 48/52/49 47/51/49 118/159/49 
f 48/52/49 118/159/49 102/160/49 
f 48/52/49 102/160/49 62/161/49 
f 48/52/49 62/161/49 61/74/49 
f 48/52/49 61/74/49 67/73/49 
f 47/51/50 42/46/50 46/50/50 
f 47/51/50 46/50/50 116/162/50 
f 47/51/50 116/162/50 115/163/50 
f 47/51/50 115/163/50 118/159/50 
f 119/164/51 120/165/51 117/166/51 
f 119/164/51 117/166/51 116/162/51 
f 119/164/51 116/162/51 46/50/51 
f 119/164/51 46/50/51 45/49/51 
f 48/52/52 67/73/52 66/72/52 
f 48/52/52 66/72/52 71/79/52 
f 48/52/52 71/79/52 121/167/52 
f 48/52/52 121/167/52 44/48/52 
f 48/52/52 44/48/52 43/47/52 
f 119/168/53 122/169/53 123/170/53 
f 123/170/53 120/171/53 119/168/53 
f 82/97/54 114/151/54 122/169/54 
f 82/97/54 122/169/54 119/168/54 
f 82/97/54 119/168/54 45/172/54 
f 82/97/54 45/172/54 44/173/54 
f 82/97/54 44/173/54 121/174/54 
f 82/97/54 121/174/54 83/98/54 
f 111/148/55 103/140/55 107/144/55 
f 111/148/55 107/144/55 123/170/55 
f 111/148/55 123/170/55 122/169/55 
f 111/148/55 122/169/55 114/151/55 
f 106/143/56 117/175/56 120/171/56 
f 106/143/56 120/171/56 123/170/56 
f 106/143/56 123/170/56 107/144/56 
f 87/103/57 86/102/57 88/105/57 
f 87/103/57 88/105/57 89/107/57 
f 87/103/57 89/107/57 124/176/57 
f 87/103/57 124/176/57 125/177/57 
f 3/3/58 2/2/58 109/153/58 
f 3/3/58 109/153/58 108/178/58 
f 3/3/58 108/178/58 124/179/58 
f 3/3/58 124/179/58 89/180/58 
f 3/3/58 89/180/58 52/56/58 
f 3/3/58 52/56/58 51/55/58 
f 125/181/59 124/182/59 108/145/59 
f 125/181/59 108/145/59 110/147/59 
f 125/181/59 110/147/59 113/150/59 
f 79/87/60 78/86/60 87/183/60 
f 79/87/60 87/183/60 125/181/60 
f 79/87/60 125/181/60 113/150/60 
f 79/87/60 113/150/60 112/149/60 
f 98/184/61 97/135/61 99/134/61 
f 98/184/61 99/134/61 101/138/61 
f 98/184/61 101/138/61 126/185/61 
f 98/184/61 126/185/61 96/129/61 
f 98/184/61 96/129/61 95/128/61 
f 57/61/62 56/60/62 94/120/62 
f 57/61/62 94/120/62 98/132/62 
f 57/61/62 98/132/62 95/186/62 
f 57/61/62 95/186/62 68/187/62 
f 57/61/62 68/187/62 60/188/62 
f 126/185/63 101/138/63 100/136/63 
f 126/185/63 100/136/63 22/22/63 
f 126/185/63 22/22/63 25/25/63 
f 84/189/64 83/190/64 121/167/64 
f 84/189/64 121/167/64 71/79/64 
f 84/189/64 71/79/64 70/78/64 
f 84/189/64 70/78/64 69/77/64 
f 84/189/64 69/77/64 24/191/64 
f 84/189/64 24/191/64 23/192/64 
f 96/129/65 126/185/65 25/25/65 
f 96/129/65 25/25/65 24/24/65 
f 96/129/65 24/24/65 69/193/65 
f 96/129/65 69/193/65 64/194/65 
f 96/129/65 64/194/65 63/130/65 
# 248 faces

