# 3ds Max Wavefront OBJ Exporter v0.99 - (c)2007 guruware
# File Created: 13.11.2022 22:38:23

mtllib middleStone2.mtl

#
# object Cube_004
#

v  -14.1742 10.8801 -39.5784
v  0.3687 28.0432 -48.2972
v  26.2690 0.8709 -34.1428
v  -9.0007 0.8709 -34.3958
v  46.8658 33.3241 -10.7837
v  45.4279 17.5498 -8.1525
v  42.9800 15.3081 -25.0103
v  44.7195 29.6225 -24.0596
v  29.3007 0.8709 4.5589
v  28.7367 0.8709 -32.7942
v  38.5064 10.2803 4.5126
v  25.0017 42.7434 27.8928
v  20.0643 26.1028 30.1685
v  31.9741 19.7716 16.4658
v  26.6503 43.0635 26.2075
v  1.1656 0.8709 19.8643
v  7.1612 0.8709 21.3542
v  14.6348 22.4872 31.6216
v  -6.6894 44.1834 34.7638
v  -31.4696 22.8097 20.2900
v  -5.2755 75.6677 13.4026
v  21.7544 74.2155 -6.3828
v  16.1772 73.2385 -24.4874
v  -9.9948 73.4645 -25.8373
v  -22.3670 74.7101 -6.6857
v  0.3427 45.4103 -48.3114
v  21.8497 58.1624 -36.5579
v  -1.0741 56.3746 32.6569
v  -26.3944 0.8709 -15.0678
v  -39.0608 22.9566 10.9482
v  -41.1230 12.5609 -11.4682
v  -33.3970 19.9362 -28.1083
v  -41.5594 14.5565 -13.1628
v  -15.7904 58.2510 -38.6938
v  -41.8107 50.5740 -12.6431
v  -33.3564 47.9494 -28.1805
v  -43.7814 42.3295 -8.9962
v  38.7093 53.7204 4.1415
# 38 vertices

vn 0.0064 -0.4572 -0.8893
vn 0.9855 -0.1112 -0.1283
vn 0.7147 -0.6993 -0.0108
vn 0.7210 -0.1206 0.6824
vn -0.2256 -0.3532 0.9079
vn 0.0116 0.9983 -0.0574
vn 0.4796 -0.0000 -0.8775
vn 0.2144 0.0696 0.9743
vn -0.5076 -0.7629 0.4005
vn 0.5211 -0.5065 0.6870
vn -0.6002 -0.5899 -0.5401
vn 0.0453 0.6347 -0.7714
vn -0.6368 0.6246 -0.4520
vn -0.8783 0.0005 -0.4781
vn -0.5129 -0.0015 -0.8584
vn -0.9856 -0.0994 0.1368
vn -0.0000 -1.0000 -0.0000
vn -0.7003 0.4221 0.5757
vn 0.8054 0.5243 -0.2764
vn 0.8775 -0.0000 0.4796
vn 0.4587 0.6758 0.5770
# 21 vertex normals

vt 0.4068 0.5427 0.0000
vt 0.4613 0.0633 0.0000
vt 0.3750 0.1570 0.0000
vt 0.3750 0.6336 0.0000
vt 0.4780 0.2837 0.0000
vt 0.4280 0.2932 0.0000
vt 0.3242 0.3792 0.0000
vt 0.4015 0.3322 0.0000
vt 0.2282 0.5256 0.0000
vt 0.1250 0.5840 0.0000
vt 0.3983 0.3229 0.0000
vt 0.3439 0.4001 0.0000
vt 0.5076 0.4271 0.0000
vt 0.4532 0.4529 0.0000
vt 0.4350 0.3823 0.0000
vt 0.5090 0.4176 0.0000
vt 0.3750 0.6055 0.0000
vt 0.3087 0.5617 0.0000
vt 0.4393 0.4805 0.0000
vt 0.5125 0.5711 0.0000
vt 0.4447 0.6814 0.0000
vt 0.6252 0.5324 0.0000
vt 0.6250 0.3339 0.0000
vt 0.6394 0.2912 0.0000
vt 0.6299 0.3763 0.0000
vt 0.6439 0.5888 0.0000
vt 0.5164 0.0632 0.0000
vt 0.5569 0.1411 0.0000
vt 0.4663 0.2238 0.0000
vt 0.4208 0.2175 0.0000
vt 0.3750 0.1660 0.0000
vt 0.5512 0.5427 0.0000
vt 0.3750 0.8188 0.0000
vt 0.4451 0.7312 0.0000
vt 0.4121 0.8304 0.0000
vt 0.4049 0.3391 0.0000
vt 0.4355 0.8923 0.0000
vt 0.2583 0.7106 0.0000
vt 0.4178 0.8382 0.0000
vt 0.5785 0.3733 0.0000
vt 0.5517 0.8130 0.0000
vt 0.5696 0.8473 0.0000
vt 0.5000 0.8228 0.0000
vt 0.5286 0.8361 0.0000
vt 0.5243 0.8926 0.0000
vt 0.3137 0.5807 0.0000
vt 0.1780 0.6916 0.0000
vt 0.1250 0.5930 0.0000
vt 0.7102 0.4070 0.0000
vt 0.6601 0.3913 0.0000
vt 0.5428 0.3377 0.0000
# 51 texture coords

o Cube_004
g Cube_004
usemtl Material_001
s off
f 1/1/1 2/2/1 3/3/1 
f 3/3/1 4/4/1 1/1/1 
f 5/5/2 6/6/2 7/7/2 
f 7/7/2 8/8/2 5/5/2 
f 9/9/3 10/10/3 7/7/3 
f 9/9/3 7/7/3 6/11/3 
f 9/9/3 6/11/3 11/12/3 
f 12/13/4 13/14/4 14/15/4 
f 14/15/4 15/16/4 12/13/4 
f 16/17/5 17/18/5 18/19/5 
f 16/17/5 18/19/5 19/20/5 
f 16/17/5 19/20/5 20/21/5 
f 21/22/6 22/23/6 23/24/6 
f 21/22/6 23/24/6 24/25/6 
f 21/22/6 24/25/6 25/26/6 
f 2/2/7 26/27/7 27/28/7 
f 2/2/7 27/28/7 8/29/7 
f 2/2/7 8/29/7 7/30/7 
f 2/2/7 7/30/7 10/31/7 
f 2/2/7 10/31/7 3/3/7 
f 12/13/8 28/32/8 19/20/8 
f 12/13/8 19/20/8 18/19/8 
f 12/13/8 18/19/8 13/14/8 
f 29/33/9 16/17/9 20/21/9 
f 29/33/9 20/21/9 30/34/9 
f 29/33/9 30/34/9 31/35/9 
f 13/14/10 18/19/10 17/18/10 
f 13/14/10 17/18/10 9/9/10 
f 13/14/10 9/9/10 11/36/10 
f 13/14/10 11/36/10 14/15/10 
f 32/37/11 1/1/11 4/4/11 
f 32/37/11 4/4/11 29/38/11 
f 32/37/11 29/38/11 31/35/11 
f 32/37/11 31/35/11 33/39/11 
f 24/25/12 23/24/12 27/28/12 
f 24/25/12 27/28/12 26/27/12 
f 24/25/12 26/27/12 34/40/12 
f 35/41/13 25/26/13 24/25/13 
f 35/41/13 24/25/13 34/40/13 
f 35/41/13 34/40/13 36/42/13 
f 33/39/14 37/43/14 35/44/14 
f 33/39/14 35/44/14 36/45/14 
f 33/39/14 36/45/14 32/37/14 
f 26/27/15 2/2/15 1/1/15 
f 26/27/15 1/1/15 32/37/15 
f 26/27/15 32/37/15 36/45/15 
f 26/27/15 36/45/15 34/40/15 
f 30/34/16 37/43/16 33/39/16 
f 33/39/16 31/35/16 30/34/16 
f 9/9/17 17/18/17 16/46/17 
f 9/9/17 16/46/17 29/38/17 
f 9/9/17 29/38/17 4/47/17 
f 9/9/17 4/47/17 3/48/17 
f 9/9/17 3/48/17 10/10/17 
f 37/43/18 30/34/18 20/21/18 
f 37/43/18 20/21/18 19/20/18 
f 37/43/18 19/20/18 28/32/18 
f 37/43/18 28/32/18 21/22/18 
f 37/43/18 21/22/18 25/26/18 
f 37/43/18 25/26/18 35/41/18 
f 23/49/19 22/50/19 38/51/19 
f 23/49/19 38/51/19 5/5/19 
f 23/49/19 5/5/19 8/29/19 
f 23/49/19 8/29/19 27/28/19 
f 6/6/20 5/5/20 38/51/20 
f 6/6/20 38/51/20 15/16/20 
f 6/6/20 15/16/20 14/15/20 
f 6/6/20 14/15/20 11/36/20 
f 21/22/21 28/32/21 12/13/21 
f 21/22/21 12/13/21 15/16/21 
f 21/22/21 15/16/21 38/51/21 
f 21/22/21 38/51/21 22/50/21 
# 72 faces

