# 3ds Max Wavefront OBJ Exporter v0.99 - (c)2007 guruware
# File Created: 13.11.2022 22:37:43

mtllib middleStone1.mtl

#
# object Cylinder
#

v  33.3689 53.1947 21.6096
v  24.2711 62.1906 31.5551
v  30.8590 30.8797 27.0573
v  36.8584 40.4345 18.8100
v  -11.6644 37.8733 -36.9386
v  -15.4416 43.6268 -34.9196
v  -11.6644 44.2302 -36.9386
v  5.6824 55.1864 -35.7823
v  24.4270 50.1688 -33.7535
v  20.3658 23.8719 -35.9242
v  -0.9384 9.3615 -39.5079
v  -4.2788 21.1789 -39.1789
v  -7.8706 45.5246 -38.0894
v  25.2747 50.3856 -33.3004
v  25.2747 24.4519 -33.3004
v  40.4760 15.1978 -7.9711
v  34.7024 -1.6318 -5.4053
v  35.0332 -1.6318 -10.3625
v  38.2346 7.2226 -14.1665
v  42.6985 34.6654 0.1794
v  42.6434 38.5694 0.7391
v  42.4835 37.0063 2.3629
v  40.2624 53.6078 -1.7592
v  29.7544 23.0110 -29.6240
v  26.1017 50.8878 -32.6216
v  32.9475 70.3340 -14.5529
v  -4.2788 19.2163 -39.1789
v  -1.2830 8.9856 -39.4740
v  15.1525 77.1083 -14.8415
v  27.2703 77.1084 -10.8884
v  -4.2631 -1.6318 -34.3877
v  -30.6014 -1.6318 -11.0630
v  -19.1408 43.9895 -31.7273
v  -30.6889 68.2900 7.7565
v  -32.9456 58.2292 -3.3961
v  -35.7757 40.5885 1.3898
v  -35.3187 41.9884 6.0294
v  -32.0269 58.3643 15.9428
v  -35.8314 26.9778 0.8245
v  -9.9528 24.8881 36.3271
v  -8.3745 7.6243 36.8059
v  11.3554 12.7468 37.7655
v  14.3675 53.4586 37.0037
v  -1.8192 68.3575 35.7820
v  -7.5758 65.4523 35.5341
v  -21.7395 77.1084 12.3867
v  -13.5694 77.1084 24.9178
v  3.4020 77.1084 31.6917
v  15.0201 77.1084 29.0313
v  23.8925 62.6504 31.7821
v  -8.9063 6.8586 36.6446
v  -8.4808 -1.6318 34.8094
v  16.2605 -1.6318 34.6267
v  19.3697 -1.6318 32.8516
v  -33.8647 -1.6318 -4.5332
v  -11.1091 16.2047 35.9763
v  -15.4797 70.4589 28.8468
v  -31.4759 58.3576 16.7948
# 58 vertices

vn 0.7666 0.0696 0.6383
vn -0.4714 -0.0000 -0.8819
vn 0.1239 0.0626 -0.9903
vn 0.4714 -0.0000 -0.8819
vn 0.9469 -0.3152 0.0632
vn 0.9952 0.0000 0.0980
vn 0.9397 0.1954 0.2807
vn 0.9040 0.0732 -0.4212
vn 0.6344 -0.0000 -0.7730
vn -0.0980 -0.0000 -0.9952
vn 0.2452 0.6122 -0.7517
vn -0.2903 -0.0000 -0.9569
vn 0.4561 -0.4854 -0.7459
vn -0.6533 -0.1700 -0.7377
vn -0.9843 0.1703 0.0456
vn -0.9952 0.0000 0.0980
vn -0.0544 0.0227 0.9983
vn -0.0000 1.0000 -0.0000
vn 0.2124 0.3069 0.9277
vn 0.0072 -0.2109 0.9775
vn 0.0000 -1.0000 0.0000
vn 0.8980 -0.2532 0.3599
vn 0.8043 0.5405 0.2468
vn -0.2903 0.0000 0.9569
vn -0.3101 0.5481 0.7768
vn -0.6257 0.0519 0.7784
vn 0.4957 -0.0204 0.8683
vn -0.7298 0.4908 0.4758
vn -0.8298 -0.1573 0.5354
vn -0.8943 0.0222 -0.4469
vn -0.4147 0.7158 -0.5618
# 31 vertex normals

vt 0.6506 0.8481 0.0000
vt 0.5615 0.7904 0.0000
vt 0.6256 0.7052 0.0000
vt 0.6668 0.7671 0.0000
vt 0.0625 0.7509 0.0000
vt 0.0798 0.7874 0.0000
vt 0.0625 0.7912 0.0000
vt 0.8994 0.7893 0.0000
vt 0.9101 0.8289 0.0000
vt 0.9288 0.6619 0.0000
vt 0.0177 0.5698 0.0000
vt 0.0313 0.6448 0.0000
vt 0.0464 0.7994 0.0000
vt 0.9063 0.8303 0.0000
vt 0.9063 0.6656 0.0000
vt 0.7825 0.5951 0.0000
vt 0.7814 0.4406 0.0000
vt 0.7579 0.4966 0.0000
vt 0.7964 0.5552 0.0000
vt 0.7470 0.7305 0.0000
vt 0.7447 0.7553 0.0000
vt 0.7381 0.7454 0.0000
vt 0.7530 0.8508 0.0000
vt 0.8828 0.6565 0.0000
vt 0.9019 0.8335 0.0000
vt 0.6417 0.7402 0.0000
vt 0.0313 0.6324 0.0000
vt 0.0191 0.5674 0.0000
vt 0.8872 0.7520 0.0000
vt 0.3216 0.3370 0.0000
vt 0.4537 0.5597 0.0000
vt 0.6815 0.4782 0.0000
vt 0.7033 0.4562 0.0000
vt 0.2975 0.4933 0.0000
vt 0.0998 0.7897 0.0000
vt 0.2914 0.9070 0.0000
vt 0.2346 0.8801 0.0000
vt 0.2580 0.7681 0.0000
vt 0.2768 0.7770 0.0000
vt 0.3195 0.8810 0.0000
vt 0.2557 0.6817 0.0000
vt 0.4447 0.6684 0.0000
vt 0.4514 0.5588 0.0000
vt 0.5566 0.5505 0.0000
vt 0.5446 0.8474 0.0000
vt 0.4070 0.6620 0.0000
vt 0.4333 0.8557 0.0000
vt 0.0967 0.1710 0.0000
vt 0.1465 0.0947 0.0000
vt 0.2500 0.0534 0.0000
vt 0.3208 0.0696 0.0000
vt 0.3955 0.3129 0.0000
vt 0.5579 0.7866 0.0000
vt 0.2932 0.1855 0.0000
vt 0.4492 0.5539 0.0000
vt 0.6776 0.0344 0.0000
vt 0.5823 0.4524 0.0000
vt 0.5350 0.5871 0.0000
vt 0.9428 0.3097 0.0000
vt 0.9408 0.2795 0.0000
vt 0.8473 0.0463 0.0000
vt 0.8284 0.0355 0.0000
vt 0.5228 0.2742 0.0000
vt 0.5427 0.3140 0.0000
vt 0.5892 0.4837 0.0000
vt 0.8141 0.5631 0.0000
vt 0.5220 0.9218 0.0000
vt 0.5842 0.8980 0.0000
vt 0.5863 0.8956 0.0000
vt 0.4398 0.6133 0.0000
vt 0.2659 0.4600 0.0000
vt 0.3388 0.6885 0.0000
vt 0.3236 0.8809 0.0000
vt 0.3324 0.8924 0.0000
vt 0.4614 0.4868 0.0000
vt 0.2690 0.4974 0.0000
vt 0.3958 0.5641 0.0000
# 77 texture coords

o Cylinder
g Cylinder
usemtl Material
s off
f 1/1/1 2/2/1 3/3/1 
f 3/3/1 4/4/1 1/1/1 
f 5/5/2 6/6/2 7/7/2 
f 8/8/3 9/9/3 10/10/3 
f 8/8/3 10/10/3 11/11/3 
f 8/8/3 11/11/3 12/12/3 
f 8/8/3 12/12/3 13/13/3 
f 10/10/4 9/9/4 14/14/4 
f 14/14/4 15/15/4 10/10/4 
f 16/16/5 17/17/5 18/18/5 
f 18/18/5 19/19/5 16/16/5 
f 20/20/6 21/21/6 22/22/6 
f 4/4/7 22/22/7 21/21/7 
f 4/4/7 21/21/7 23/23/7 
f 4/4/7 23/23/7 1/1/7 
f 20/20/8 16/16/8 19/19/8 
f 20/20/8 19/19/8 24/24/8 
f 20/20/8 24/24/8 25/25/8 
f 20/20/8 25/25/8 26/26/8 
f 20/20/8 26/26/8 23/23/8 
f 20/20/8 23/23/8 21/21/8 
f 15/15/9 14/14/9 25/25/9 
f 25/25/9 24/24/9 15/15/9 
f 27/27/10 12/12/10 11/11/10 
f 11/11/10 28/28/10 27/27/10 
f 26/26/11 25/25/11 14/14/11 
f 26/26/11 14/14/11 9/9/11 
f 26/26/11 9/9/11 8/29/11 
f 26/26/11 8/29/11 29/30/11 
f 26/26/11 29/30/11 30/31/11 
f 5/5/12 7/7/12 13/13/12 
f 5/5/12 13/13/12 12/12/12 
f 5/5/12 12/12/12 27/27/12 
f 11/11/13 10/10/13 15/15/13 
f 11/11/13 15/15/13 24/24/13 
f 11/11/13 24/24/13 19/19/13 
f 11/11/13 19/19/13 18/18/13 
f 11/11/13 18/18/13 31/32/13 
f 11/11/13 31/32/13 28/28/13 
f 5/5/14 27/27/14 28/28/14 
f 5/5/14 28/28/14 31/33/14 
f 5/5/14 31/33/14 32/34/14 
f 5/5/14 32/34/14 33/35/14 
f 5/5/14 33/35/14 6/6/14 
f 34/36/15 35/37/15 36/38/15 
f 34/36/15 36/38/15 37/39/15 
f 34/36/15 37/39/15 38/40/15 
f 37/39/16 36/38/16 39/41/16 
f 40/42/17 41/43/17 42/44/17 
f 40/42/17 42/44/17 43/45/17 
f 40/42/17 43/45/17 44/46/17 
f 40/42/17 44/46/17 45/47/17 
f 29/30/18 46/48/18 47/49/18 
f 29/30/18 47/49/18 48/50/18 
f 29/30/18 48/50/18 49/51/18 
f 29/30/18 49/51/18 30/52/18 
f 44/46/19 43/45/19 50/53/19 
f 44/46/19 50/53/19 49/51/19 
f 44/46/19 49/51/19 48/54/19 
f 41/43/20 51/55/20 52/56/20 
f 41/43/20 52/56/20 53/57/20 
f 41/43/20 53/57/20 42/58/20 
f 31/33/21 18/59/21 17/60/21 
f 31/33/21 17/60/21 54/61/21 
f 31/33/21 54/61/21 53/62/21 
f 31/33/21 53/62/21 52/56/21 
f 31/33/21 52/56/21 55/63/21 
f 31/33/21 55/63/21 32/64/21 
f 4/4/22 3/3/22 54/65/22 
f 4/4/22 54/65/22 17/60/22 
f 4/4/22 17/60/22 16/66/22 
f 4/4/22 16/66/22 20/20/22 
f 4/4/22 20/20/22 22/22/22 
f 1/1/23 23/23/23 26/26/23 
f 1/1/23 26/26/23 30/31/23 
f 1/1/23 30/31/23 49/67/23 
f 1/1/23 49/67/23 50/68/23 
f 1/1/23 50/68/23 2/69/23 
f 41/43/24 40/42/24 56/70/24 
f 56/70/24 51/55/24 41/43/24 
f 44/46/25 48/54/25 47/71/25 
f 44/46/25 47/71/25 57/72/25 
f 44/46/25 57/72/25 45/47/25 
f 57/72/26 58/73/26 56/70/26 
f 57/72/26 56/70/26 40/42/26 
f 57/72/26 40/42/26 45/47/26 
f 2/2/27 50/53/27 43/45/27 
f 2/2/27 43/45/27 42/44/27 
f 2/2/27 42/44/27 53/62/27 
f 2/2/27 53/62/27 54/65/27 
f 2/2/27 54/65/27 3/3/27 
f 58/73/28 57/72/28 47/71/28 
f 58/73/28 47/71/28 46/74/28 
f 58/73/28 46/74/28 34/36/28 
f 58/73/28 34/36/28 38/40/28 
f 58/73/29 38/40/29 37/39/29 
f 58/73/29 37/39/29 39/41/29 
f 58/73/29 39/41/29 55/63/29 
f 58/73/29 55/63/29 52/75/29 
f 58/73/29 52/75/29 51/55/29 
f 58/73/29 51/55/29 56/70/29 
f 32/34/30 55/76/30 39/41/30 
f 32/34/30 39/41/30 36/38/30 
f 32/34/30 36/38/30 35/37/30 
f 32/34/30 35/37/30 33/35/30 
f 29/77/31 8/8/31 13/13/31 
f 29/77/31 13/13/31 7/7/31 
f 29/77/31 7/7/31 6/6/31 
f 29/77/31 6/6/31 33/35/31 
f 29/77/31 33/35/31 35/37/31 
f 29/77/31 35/37/31 34/36/31 
f 29/77/31 34/36/31 46/74/31 
# 112 faces

