# 3ds Max Wavefront OBJ Exporter v0.99 - (c)2007 guruware
# File Created: 13.11.2022 22:33:59

mtllib smallStone4.mtl

#
# object Icosphere_007
#

v  -1.4911 -0.1911 -5.5924
v  -3.0796 -0.1008 -6.0285
v  -5.3460 1.0750 -8.3822
v  -0.9333 4.2342 -12.8114
v  3.2005 4.3028 -12.1791
v  5.2174 2.7299 -9.2135
v  3.3663 0.3195 -5.5605
v  -8.8845 0.1905 10.8958
v  -8.5974 -0.2723 8.8685
v  -0.0614 -0.5556 4.3762
v  0.8048 -0.4660 4.4102
v  -3.3280 1.2413 13.0847
v  10.3269 6.3210 -8.6057
v  11.0342 5.7128 -4.6626
v  10.2840 3.3291 1.7287
v  5.5763 0.2454 0.3837
v  -6.1130 34.0223 22.9069
v  -10.0516 34.5062 21.7307
v  -11.7448 23.7029 21.7258
v  -7.3621 16.5915 23.3336
v  -3.2423 30.8368 23.8931
v  2.1444 48.4169 -7.3707
v  -4.1155 50.1760 -5.3170
v  0.0845 50.4051 -3.5188
v  3.4952 48.5053 -6.7592
v  -12.5051 36.7819 19.5732
v  -13.8699 43.7111 14.2857
v  -16.7603 36.9727 16.2818
v  6.9415 48.8972 6.0384
v  1.9396 50.8085 4.7083
v  3.4751 50.3729 6.7500
v  6.8363 48.9490 6.1363
v  -22.0530 30.2454 -3.3825
v  -21.9693 31.1095 -3.4547
v  -21.8998 31.1991 -3.6602
v  9.3240 46.5583 7.4854
v  10.3638 45.9830 6.7147
v  9.2450 47.6645 4.2001
v  -1.1346 47.3007 14.3690
v  -1.0931 47.2369 14.4238
v  3.1642 44.6231 14.7395
v  13.3113 11.5760 9.9278
v  11.6478 5.1461 4.1800
v  11.6587 4.9694 3.7729
v  13.2639 7.6713 2.1936
v  13.8233 9.0801 2.5942
v  15.7480 15.6641 7.5041
v  -7.4508 1.2809 -8.0227
v  -8.7457 0.1184 -4.0980
v  7.6410 12.0767 -15.8918
v  10.6110 8.2524 -10.1502
v  5.2920 10.4379 -16.1823
v  14.0225 28.5569 11.7542
v  16.2942 22.3185 7.8817
v  16.3665 26.8567 6.8149
v  15.3067 33.7608 7.8259
v  16.3976 20.1572 7.4042
v  16.6277 24.5120 5.2311
v  6.8947 25.9326 20.3421
v  13.9396 40.9627 5.5954
v  2.4502 31.1031 22.2715
v  -13.5761 48.4016 -1.5529
v  -8.9236 51.0020 -2.3225
v  -8.7513 50.4517 -4.8473
v  -11.2945 48.4054 -6.8391
v  -13.6093 47.6674 -4.3104
v  -11.5683 48.7225 5.3237
v  -8.2381 51.2376 -1.1087
v  -14.7250 47.2510 3.2114
v  -15.3469 46.3282 4.5513
v  -13.7765 43.9982 14.0981
v  -11.0044 46.3648 12.9721
v  -0.8269 51.4893 1.3561
v  -20.5042 33.1829 -7.0261
v  -10.7449 44.5837 -10.7734
v  -13.2283 36.7058 -13.9711
v  -19.1924 30.9067 -10.7066
v  13.6567 41.4607 3.0748
v  9.4189 47.4549 3.2511
v  3.5885 48.4680 -6.7455
v  -3.3004 41.7176 -14.0082
v  -8.3385 5.1446 -11.7371
v  -13.4942 13.0662 -13.3582
v  -10.5992 13.6115 -15.6592
v  -8.6886 12.4250 -16.1834
v  -7.9718 5.5328 -12.2338
v  -0.3642 11.1823 -17.6417
v  -1.8080 5.4443 -13.8130
v  -1.4598 12.4351 -18.1040
v  -2.3392 34.8780 -17.5579
v  -1.8783 36.3317 -16.9685
v  7.6930 32.2636 -15.7234
v  7.3077 31.3780 -16.1103
v  1.1391 28.8490 -18.5660
v  -12.6477 35.2632 -14.8135
v  -14.9640 30.2483 -14.2679
v  -19.1178 29.9304 -11.0216
v  6.0296 20.1972 -17.5889
v  1.9578 22.1945 -18.8762
v  -12.3914 0.1017 2.4763
v  -11.1577 1.3558 12.5052
v  -12.8361 3.4413 15.6174
v  -19.6883 7.9757 12.9362
v  -20.8170 7.4395 7.5335
v  -13.2579 0.5924 3.3589
v  -22.9786 20.9319 -2.1480
v  -23.4089 18.0322 1.0314
v  -22.8015 29.1489 9.3449
v  -22.2675 32.5812 5.0947
v  16.0043 26.1233 0.7447
v  13.9931 36.0478 -3.9275
v  13.2412 22.3367 -10.6869
v  12.2110 33.2313 -11.4081
v  10.3846 34.5573 -13.1119
v  7.9453 12.8358 -15.9428
v  11.7919 14.6163 -12.2462
v  11.6430 11.9006 -10.9194
v  -20.2152 21.7528 -9.2007
v  -21.8722 28.6982 13.3477
v  -19.9838 17.1676 16.1812
v  -7.3467 12.6735 22.8460
v  -2.7691 8.3646 20.9842
v  4.4520 9.8140 19.0642
v  6.3439 11.5058 18.7230
v  -2.5068 5.1260 19.2645
v  -1.5289 4.7020 18.6936
v  1.5210 6.1294 18.2913
v  -18.2725 16.9667 -10.1316
v  -22.5514 13.3144 2.5767
v  -19.7575 14.7527 16.0047
v  -9.0044 10.7775 21.6567
v  -9.7608 5.0993 18.5192
# 132 vertices

vn 0.0128 -0.8861 -0.4634
vn 0.0129 -0.9767 0.2141
vn 0.4007 -0.8901 -0.2172
vn -0.2040 0.0261 0.9786
vn 0.1247 0.9250 -0.3590
vn -0.4005 0.5074 0.7630
vn 0.2971 0.9517 -0.0779
vn -0.9210 0.0309 -0.3883
vn 0.4721 0.8517 0.2276
vn 0.3338 0.7979 0.5020
vn 0.0178 -0.9992 -0.0368
vn 0.8098 -0.5220 0.2678
vn -0.1498 -0.9481 -0.2803
vn 0.3429 -0.6678 -0.6606
vn 0.8475 0.1729 0.5018
vn 0.9759 0.0991 0.1944
vn 0.5655 0.4371 0.6994
vn -0.3292 0.9169 -0.2257
vn -0.2980 0.9510 0.0820
vn -0.3787 0.8837 0.2749
vn 0.0722 0.9792 -0.1897
vn -0.0367 0.9645 0.2615
vn -0.5915 0.5280 -0.6094
vn 0.6768 0.7356 0.0282
vn 0.3028 0.9457 -0.1185
vn 0.0114 0.7605 -0.6492
vn -0.4056 -0.5568 -0.7249
vn -0.1999 -0.5611 -0.8032
vn 0.1911 0.3591 -0.9135
vn -0.5008 0.2165 -0.8381
vn 0.2567 0.1290 -0.9578
vn -0.0834 -0.9963 -0.0188
vn -0.1769 -0.7535 -0.6332
vn -0.4604 -0.8678 0.1871
vn -0.9945 0.0631 -0.0839
vn 0.9476 0.3080 -0.0852
vn 0.9317 0.1834 -0.3136
vn 0.6128 0.6881 -0.3885
vn 0.0558 -0.6249 -0.7787
vn 0.6147 -0.3900 -0.6856
vn -0.8857 -0.0005 -0.4643
vn -0.7720 0.5647 0.2917
vn -0.4935 0.0736 0.8666
vn 0.1998 0.5236 0.8282
vn -0.0816 0.6299 0.7724
vn 0.1547 -0.1603 -0.9749
vn -0.2074 0.0085 -0.9782
vn 0.9626 -0.1422 -0.2307
vn 0.2169 -0.1281 0.9677
vn 0.2200 -0.4753 0.8519
vn 0.4735 -0.6993 0.5356
vn 0.6847 -0.0842 0.7240
vn 0.2744 -0.8890 0.3667
vn 0.8857 -0.3848 -0.2595
vn 0.7051 -0.6999 -0.1136
vn -0.7881 -0.4287 -0.4416
vn -0.8080 0.5695 -0.1514
vn -0.5090 -0.1463 -0.8483
vn 0.5817 0.0750 -0.8100
vn -0.1480 0.4740 -0.8680
vn 0.2562 0.5982 -0.7593
vn -0.3909 -0.1708 0.9044
vn -0.0808 -0.5323 0.8427
vn -0.4265 -0.4540 0.7822
vn -0.9386 -0.2302 0.2570
vn -0.5969 -0.6872 -0.4140
vn -0.0739 -0.8714 0.4850
vn -0.2850 -0.9478 0.1428
# 68 vertex normals

vt 0.5693 0.3755 0.0000
vt 0.5692 0.3559 0.0000
vt 0.5866 0.3241 0.0000
vt 0.6446 0.3660 0.0000
vt 0.6501 0.4160 0.0000
vt 0.6257 0.4462 0.0000
vt 0.5831 0.4326 0.0000
vt 0.0390 0.8827 0.0000
vt 0.0260 0.8663 0.0000
vt 0.0386 0.7778 0.0000
vt 0.0433 0.7723 0.0000
vt 0.0836 0.8615 0.0000
vt 0.0000 0.6239 0.0000
vt 0.0460 0.5837 0.0000
vt 0.0696 0.6131 0.0000
vt 0.0917 0.6776 0.0000
vt 0.0458 0.7075 0.0000
vt 0.0006 0.6735 0.0000
vt 0.6730 0.7212 0.0000
vt 0.6666 0.6660 0.0000
vt 0.7510 0.6535 0.0000
vt 0.8103 0.7217 0.0000
vt 0.7002 0.7644 0.0000
vt 0.3008 0.2665 0.0000
vt 0.3307 0.1826 0.0000
vt 0.3384 0.2421 0.0000
vt 0.3036 0.2856 0.0000
vt 0.4165 0.9186 0.0000
vt 0.4808 0.9663 0.0000
vt 0.4291 0.9763 0.0000
vt 0.6272 0.7189 0.0000
vt 0.6300 0.7923 0.0000
vt 0.6175 0.7697 0.0000
vt 0.6264 0.7204 0.0000
vt 0.9238 0.1732 0.0000
vt 0.9186 0.1690 0.0000
vt 0.9189 0.1666 0.0000
vt 0.6138 0.6779 0.0000
vt 0.6204 0.6623 0.0000
vt 0.6428 0.6847 0.0000
vt 0.5337 0.8144 0.0000
vt 0.5331 0.8136 0.0000
vt 0.5328 0.7475 0.0000
vt 0.5413 0.4550 0.0000
vt 0.4950 0.3964 0.0000
vt 0.4927 0.3862 0.0000
vt 0.1963 0.6945 0.0000
vt 0.1219 0.6821 0.0000
vt 0.1186 0.6794 0.0000
vt 0.1306 0.6469 0.0000
vt 0.1428 0.6415 0.0000
vt 0.2143 0.6450 0.0000
vt 0.5793 0.2968 0.0000
vt 0.5407 0.2834 0.0000
vt 0.7200 0.4340 0.0000
vt 0.6675 0.4851 0.0000
vt 0.6472 0.4901 0.0000
vt 0.7102 0.4138 0.0000
vt 0.5211 0.5430 0.0000
vt 0.5311 0.4901 0.0000
vt 0.5582 0.5077 0.0000
vt 0.5761 0.5487 0.0000
vt 0.2395 0.6239 0.0000
vt 0.2498 0.5893 0.0000
vt 0.2698 0.5951 0.0000
vt 0.2528 0.6205 0.0000
vt 0.4243 0.6220 0.0000
vt 0.6187 0.5961 0.0000
vt 0.4179 0.6998 0.0000
vt 0.7757 0.0784 0.0000
vt 0.7484 0.0385 0.0000
vt 0.7646 0.0183 0.0000
vt 0.7961 0.0220 0.0000
vt 0.7949 0.0579 0.0000
vt 0.7305 0.1251 0.0000
vt 0.7383 0.0444 0.0000
vt 0.7612 0.1288 0.0000
vt 0.5603 1.0000 0.0000
vt 0.4837 0.9663 0.0000
vt 0.5104 0.9400 0.0000
vt 0.5759 0.9599 0.0000
vt 0.5760 0.9961 0.0000
vt 0.3400 0.1202 0.0000
vt 0.3585 0.1213 0.0000
vt 0.3665 0.1323 0.0000
vt 0.3749 0.2363 0.0000
vt 0.6496 0.8325 0.0000
vt 0.6446 0.9292 0.0000
vt 0.9201 0.1236 0.0000
vt 0.8383 0.0000 0.0000
vt 0.9113 0.0147 0.0000
vt 0.9491 0.0942 0.0000
vt 0.6388 0.6029 0.0000
vt 0.6496 0.6820 0.0000
vt 0.3565 0.3834 0.0000
vt 0.3494 0.3845 0.0000
vt 0.3033 0.2870 0.0000
vt 0.3874 0.2805 0.0000
vt 0.3776 0.3535 0.0000
vt 0.2241 0.1921 0.0000
vt 0.2693 0.0925 0.0000
vt 0.3177 0.0857 0.0000
vt 0.6211 0.2693 0.0000
vt 0.6512 0.1668 0.0000
vt 0.6786 0.2016 0.0000
vt 0.6830 0.2316 0.0000
vt 0.6274 0.2723 0.0000
vt 0.7105 0.3417 0.0000
vt 0.6549 0.3499 0.0000
vt 0.7162 0.3222 0.0000
vt 0.1580 0.2099 0.0000
vt 0.1704 0.2148 0.0000
vt 0.1415 0.3528 0.0000
vt 0.1339 0.3483 0.0000
vt 0.1095 0.2647 0.0000
vt 0.1898 0.0000 0.0000
vt 0.2021 0.0659 0.0000
vt 0.1872 0.0746 0.0000
vt 0.1603 0.0521 0.0000
vt 0.1816 0.0020 0.0000
vt 0.0542 0.3462 0.0000
vt 0.0637 0.2858 0.0000
vt 0.4371 0.2759 0.0000
vt 0.4796 0.2329 0.0000
vt 0.4082 0.2328 0.0000
vt 0.3874 0.1988 0.0000
vt 0.4087 0.0936 0.0000
vt 0.4466 0.0872 0.0000
vt 0.4723 0.2189 0.0000
vt 0.9768 0.2228 0.0000
vt 0.9789 0.2626 0.0000
vt 0.8654 0.2888 0.0000
vt 0.8653 0.2374 0.0000
vt 0.2286 0.5514 0.0000
vt 0.2417 0.4907 0.0000
vt 0.3089 0.5293 0.0000
vt 0.3226 0.5496 0.0000
vt 0.3058 0.5849 0.0000
vt 0.1287 0.4909 0.0000
vt 0.1748 0.4521 0.0000
vt 0.3052 0.4510 0.0000
vt 0.2287 0.4521 0.0000
vt 0.1684 0.4197 0.0000
vt 0.1689 0.3900 0.0000
vt 0.0481 0.5626 0.0000
vt 0.0194 0.5214 0.0000
vt 0.0244 0.5163 0.0000
vt 0.0735 0.5154 0.0000
vt 0.0669 0.5368 0.0000
vt 0.9564 0.0948 0.0000
vt 1.0000 0.1460 0.0000
vt 0.7610 0.2878 0.0000
vt 0.7210 0.2312 0.0000
vt 0.7200 0.2281 0.0000
vt 0.7618 0.1467 0.0000
vt 0.8438 0.3196 0.0000
vt 0.6497 0.6250 0.0000
vt 0.6496 0.5589 0.0000
vt 0.7155 0.4901 0.0000
vt 0.8044 0.5341 0.0000
vt 0.3993 0.8229 0.0000
vt 0.3874 0.7723 0.0000
vt 0.3982 0.8767 0.0000
vt 0.0000 0.3541 0.0000
vt 0.0021 0.2740 0.0000
vt 0.0086 0.2564 0.0000
vt 0.0142 0.3866 0.0000
vt 0.0099 0.3838 0.0000
vt 0.0272 0.1619 0.0000
vt 0.0400 0.1351 0.0000
vt 0.8427 0.7236 0.0000
vt 0.8871 0.7803 0.0000
vt 0.8889 0.8660 0.0000
vt 0.8785 0.8878 0.0000
vt 0.7601 0.8878 0.0000
vt 0.7088 0.8323 0.0000
vt 0.9170 0.7808 0.0000
vt 0.9229 0.7919 0.0000
vt 0.9162 0.8287 0.0000
vt 0.1993 0.8296 0.0000
vt 0.1621 0.8551 0.0000
vt 0.2148 0.8089 0.0000
vt 0.2965 0.6432 0.0000
vt 0.3001 0.7662 0.0000
vt 0.1428 0.8827 0.0000
vt 0.6286 0.0852 0.0000
vt 0.5037 0.0401 0.0000
vt 0.5317 0.0068 0.0000
vt 0.5689 0.0000 0.0000
vt 0.6346 0.0360 0.0000
vt 0.6828 0.0092 0.0000
vt 0.7200 0.0615 0.0000
vt 0.1011 0.4521 0.0000
vt 0.0435 0.4421 0.0000
vt 0.8245 0.5385 0.0000
vt 0.8583 0.6999 0.0000
vt 0.9094 0.6845 0.0000
vt 0.8854 0.5350 0.0000
vt 0.9249 0.6365 0.0000
vt 0.9965 0.2888 0.0000
vt 1.0000 0.3436 0.0000
vt 0.9643 0.3815 0.0000
vt 0.9072 0.3828 0.0000
vt 0.8923 0.3766 0.0000
vt 0.9503 0.6496 0.0000
vt 0.9660 0.6746 0.0000
vt 0.9601 0.7529 0.0000
vt 0.4221 0.2682 0.0000
# 208 texture coords

o Icosphere_007
g Icosphere_007
usemtl Material_001
s off
f 1/1/1 2/2/1 3/3/1 
f 1/1/1 3/3/1 4/4/1 
f 1/1/1 4/4/1 5/5/1 
f 1/1/1 5/5/1 6/6/1 
f 1/1/1 6/6/1 7/7/1 
f 8/8/2 9/9/2 10/10/2 
f 8/8/2 10/10/2 11/11/2 
f 8/8/2 11/11/2 12/12/2 
f 6/13/3 13/14/3 14/15/3 
f 6/13/3 14/15/3 15/16/3 
f 6/13/3 15/16/3 16/17/3 
f 6/13/3 16/17/3 7/18/3 
f 17/19/4 18/20/4 19/21/4 
f 17/19/4 19/21/4 20/22/4 
f 17/19/4 20/22/4 21/23/4 
f 22/24/5 23/25/5 24/26/5 
f 24/26/5 25/27/5 22/24/5 
f 26/28/6 27/29/6 28/30/6 
f 29/31/7 30/32/7 31/33/7 
f 31/33/7 32/34/7 29/31/7 
f 33/35/8 34/36/8 35/37/8 
f 32/34/9 36/38/9 37/39/9 
f 32/34/9 37/39/9 38/40/9 
f 32/34/9 38/40/9 29/31/9 
f 39/41/10 40/42/10 41/43/10 
f 39/41/10 41/43/10 36/38/10 
f 39/41/10 36/38/10 32/34/10 
f 39/41/10 32/34/10 31/33/10 
f 1/1/11 7/7/11 16/44/11 
f 1/1/11 16/44/11 11/45/11 
f 1/1/11 11/45/11 10/46/11 
f 42/47/12 43/48/12 44/49/12 
f 42/47/12 44/49/12 45/50/12 
f 42/47/12 45/50/12 46/51/12 
f 42/47/12 46/51/12 47/52/12 
f 48/53/13 3/3/13 2/2/13 
f 2/2/13 49/54/13 48/53/13 
f 50/55/14 51/56/14 13/57/14 
f 50/55/14 13/57/14 6/6/14 
f 50/55/14 6/6/14 5/5/14 
f 50/55/14 5/5/14 52/58/14 
f 53/59/15 54/60/15 55/61/15 
f 55/61/15 56/62/15 53/59/15 
f 57/63/16 58/64/16 55/65/16 
f 55/65/16 54/66/16 57/63/16 
f 59/67/17 53/59/17 56/62/17 
f 59/67/17 56/62/17 60/68/17 
f 59/67/17 60/68/17 37/39/17 
f 59/67/17 37/39/17 36/38/17 
f 59/67/17 36/38/17 41/43/17 
f 59/67/17 41/43/17 61/69/17 
f 62/70/18 63/71/18 64/72/18 
f 62/70/18 64/72/18 65/73/18 
f 62/70/18 65/73/18 66/74/18 
f 67/75/19 68/76/19 63/71/19 
f 67/75/19 63/71/19 62/70/19 
f 67/75/19 62/70/19 69/77/19 
f 70/78/20 71/79/20 72/80/20 
f 70/78/20 72/80/20 67/81/20 
f 70/78/20 67/81/20 69/82/20 
f 64/83/21 63/84/21 68/85/21 
f 64/83/21 68/85/21 73/86/21 
f 64/83/21 73/86/21 24/26/21 
f 64/83/21 24/26/21 23/25/21 
f 39/41/22 31/33/22 30/32/22 
f 39/41/22 30/32/22 73/87/22 
f 39/41/22 73/87/22 68/88/22 
f 39/41/22 68/88/22 67/81/22 
f 39/41/22 67/81/22 72/80/22 
f 74/89/23 66/74/23 65/73/23 
f 74/89/23 65/73/23 75/90/23 
f 74/89/23 75/90/23 76/91/23 
f 74/89/23 76/91/23 77/92/23 
f 38/40/24 37/39/24 60/68/24 
f 38/40/24 60/68/24 78/93/24 
f 38/40/24 78/93/24 79/94/24 
f 38/95/25 79/96/25 80/97/25 
f 38/95/25 80/97/25 25/27/25 
f 38/95/25 25/27/25 24/26/25 
f 38/95/25 24/26/25 73/86/25 
f 38/95/25 73/86/25 30/98/25 
f 38/95/25 30/98/25 29/99/25 
f 23/25/26 22/24/26 81/100/26 
f 23/25/26 81/100/26 75/101/26 
f 23/25/26 75/101/26 65/102/26 
f 23/25/26 65/102/26 64/83/26 
f 82/103/27 83/104/27 84/105/27 
f 82/103/27 84/105/27 85/106/27 
f 82/103/27 85/106/27 86/107/27 
f 87/108/28 88/109/28 86/107/28 
f 87/108/28 86/107/28 85/106/28 
f 87/108/28 85/106/28 89/110/28 
f 90/111/29 91/112/29 92/113/29 
f 90/111/29 92/113/29 93/114/29 
f 90/111/29 93/114/29 94/115/29 
f 77/116/30 76/117/30 95/118/30 
f 77/116/30 95/118/30 96/119/30 
f 77/116/30 96/119/30 97/120/30 
f 94/115/31 93/114/31 98/121/31 
f 98/121/31 99/122/31 94/115/31 
f 9/123/32 100/124/32 49/54/32 
f 9/123/32 49/54/32 2/2/32 
f 9/123/32 2/2/32 1/1/32 
f 9/123/32 1/1/32 10/46/32 
f 88/109/33 4/4/33 3/3/33 
f 88/109/33 3/3/33 48/53/33 
f 88/109/33 48/53/33 82/103/33 
f 88/109/33 82/103/33 86/107/33 
f 101/125/34 102/126/34 103/127/34 
f 101/125/34 103/127/34 104/128/34 
f 101/125/34 104/128/34 105/129/34 
f 106/130/35 107/131/35 108/132/35 
f 106/130/35 108/132/35 109/133/35 
f 106/130/35 109/133/35 34/36/35 
f 106/130/35 34/36/35 33/35/35 
f 55/65/36 58/64/36 110/134/36 
f 55/65/36 110/134/36 111/135/36 
f 55/65/36 111/135/36 78/136/36 
f 55/65/36 78/136/36 60/137/36 
f 55/65/36 60/137/36 56/138/36 
f 110/134/37 112/139/37 113/140/37 
f 113/140/37 111/135/37 110/134/37 
f 78/141/38 111/142/38 113/143/38 
f 78/141/38 113/143/38 114/144/38 
f 78/141/38 114/144/38 80/97/38 
f 78/141/38 80/97/38 79/96/38 
f 87/108/39 52/58/39 5/5/39 
f 87/108/39 5/5/39 4/4/39 
f 87/108/39 4/4/39 88/109/39 
f 51/145/40 50/146/40 115/147/40 
f 51/145/40 115/147/40 116/148/40 
f 51/145/40 116/148/40 117/149/40 
f 35/37/41 74/89/41 77/92/41 
f 35/37/41 77/92/41 97/150/41 
f 35/37/41 97/150/41 118/151/41 
f 35/37/41 118/151/41 106/130/41 
f 35/37/41 106/130/41 33/35/41 
f 28/152/42 27/153/42 71/154/42 
f 28/152/42 71/154/42 70/155/42 
f 28/152/42 70/155/42 109/133/42 
f 28/152/42 109/133/42 108/132/42 
f 28/152/42 108/132/42 119/156/42 
f 18/20/43 26/157/43 28/158/43 
f 18/20/43 28/158/43 119/159/43 
f 18/20/43 119/159/43 120/160/43 
f 18/20/43 120/160/43 19/21/43 
f 61/69/44 41/43/44 40/42/44 
f 61/69/44 40/42/44 17/161/44 
f 61/69/44 17/161/44 21/162/44 
f 40/42/45 39/41/45 72/80/45 
f 40/42/45 72/80/45 71/79/45 
f 40/42/45 71/79/45 27/29/45 
f 40/42/45 27/29/45 26/28/45 
f 40/42/45 26/28/45 18/163/45 
f 40/42/45 18/163/45 17/161/45 
f 52/164/46 87/165/46 89/166/46 
f 52/164/46 89/166/46 99/122/46 
f 52/164/46 99/122/46 98/121/46 
f 52/164/46 98/121/46 115/167/46 
f 52/164/46 115/167/46 50/168/46 
f 90/111/47 94/115/47 99/122/47 
f 90/111/47 99/122/47 89/166/47 
f 90/111/47 89/166/47 85/169/47 
f 90/111/47 85/169/47 84/170/47 
f 90/111/47 84/170/47 96/119/47 
f 90/111/47 96/119/47 95/118/47 
f 47/52/48 46/51/48 117/149/48 
f 47/52/48 117/149/48 116/148/48 
f 47/52/48 116/148/48 112/139/48 
f 47/52/48 112/139/48 110/134/48 
f 47/52/48 110/134/48 58/64/48 
f 47/52/48 58/64/48 57/63/48 
f 20/22/49 121/171/49 122/172/49 
f 20/22/49 122/172/49 123/173/49 
f 20/22/49 123/173/49 124/174/49 
f 20/22/49 124/174/49 59/175/49 
f 20/22/49 59/175/49 61/176/49 
f 20/22/49 61/176/49 21/23/49 
f 122/172/50 125/177/50 126/178/50 
f 122/172/50 126/178/50 127/179/50 
f 122/172/50 127/179/50 123/173/50 
f 123/180/51 127/181/51 43/48/51 
f 123/180/51 43/48/51 42/47/51 
f 123/180/51 42/47/51 124/182/51 
f 124/182/52 42/47/52 47/52/52 
f 124/182/52 47/52/52 57/63/52 
f 124/182/52 57/63/52 54/66/52 
f 124/182/52 54/66/52 53/183/52 
f 124/182/52 53/183/52 59/184/52 
f 127/181/53 126/185/53 12/12/53 
f 127/181/53 12/12/53 11/11/53 
f 127/181/53 11/11/53 16/17/53 
f 127/181/53 16/17/53 15/16/53 
f 127/181/53 15/16/53 44/49/53 
f 127/181/53 44/49/53 43/48/53 
f 117/149/54 46/51/54 45/50/54 
f 117/149/54 45/50/54 14/15/54 
f 117/149/54 14/15/54 13/14/54 
f 117/149/54 13/14/54 51/145/54 
f 14/15/55 45/50/55 44/49/55 
f 44/49/55 15/16/55 14/15/55 
f 128/186/56 129/187/56 107/188/56 
f 128/186/56 107/188/56 106/189/56 
f 128/186/56 106/189/56 118/190/56 
f 34/36/57 109/133/57 70/155/57 
f 34/36/57 70/155/57 69/77/57 
f 34/36/57 69/77/57 62/70/57 
f 34/36/57 62/70/57 66/74/57 
f 34/36/57 66/74/57 74/89/57 
f 34/36/57 74/89/57 35/37/57 
f 84/105/58 83/104/58 128/186/58 
f 84/105/58 128/186/58 118/190/58 
f 84/105/58 118/190/58 97/191/58 
f 84/105/58 97/191/58 96/192/58 
f 115/167/59 98/121/59 93/114/59 
f 115/167/59 93/114/59 92/113/59 
f 115/167/59 92/113/59 114/144/59 
f 115/167/59 114/144/59 113/143/59 
f 115/167/59 113/143/59 112/193/59 
f 115/167/59 112/193/59 116/194/59 
f 75/101/60 81/100/60 91/112/60 
f 75/101/60 91/112/60 90/111/60 
f 75/101/60 90/111/60 95/118/60 
f 75/101/60 95/118/60 76/117/60 
f 81/100/61 22/24/61 25/27/61 
f 81/100/61 25/27/61 80/97/61 
f 81/100/61 80/97/61 114/144/61 
f 81/100/61 114/144/61 92/113/61 
f 81/100/61 92/113/61 91/112/61 
f 19/21/62 120/160/62 130/195/62 
f 19/21/62 130/195/62 131/196/62 
f 19/21/62 131/196/62 121/171/62 
f 19/21/62 121/171/62 20/22/62 
f 125/177/63 122/172/63 121/171/63 
f 125/177/63 121/171/63 131/196/63 
f 125/177/63 131/196/63 132/197/63 
f 131/196/64 130/195/64 103/198/64 
f 131/196/64 103/198/64 102/199/64 
f 131/196/64 102/199/64 132/197/64 
f 119/156/65 108/132/65 107/131/65 
f 119/156/65 107/131/65 129/200/65 
f 119/156/65 129/200/65 104/201/65 
f 119/156/65 104/201/65 103/202/65 
f 119/156/65 103/202/65 130/203/65 
f 119/156/65 130/203/65 120/204/65 
f 100/124/66 105/129/66 104/128/66 
f 100/124/66 104/128/66 129/187/66 
f 100/124/66 129/187/66 128/186/66 
f 100/124/66 128/186/66 83/104/66 
f 100/124/66 83/104/66 82/103/66 
f 100/124/66 82/103/66 48/53/66 
f 100/124/66 48/53/66 49/54/66 
f 125/177/67 132/197/67 102/199/67 
f 125/177/67 102/199/67 101/205/67 
f 125/177/67 101/205/67 8/206/67 
f 125/177/67 8/206/67 12/207/67 
f 125/177/67 12/207/67 126/178/67 
f 8/208/68 101/125/68 105/129/68 
f 8/208/68 105/129/68 100/124/68 
f 8/208/68 100/124/68 9/123/68 
# 260 faces

