# 3ds Max Wavefront OBJ Exporter v0.99 - (c)2007 guruware
# File Created: 08.12.2022 00:38:51

mtllib Player_LeftFoot.mtl

#
# object RightFoot
#

v  -4.1712 -3.8514 11.8232
v  -5.1799 -3.8408 -5.8679
v  5.1799 -3.8408 -5.8679
v  4.1712 -3.8514 11.8232
v  -4.1712 0.8273 11.8232
v  4.1712 0.8273 11.8232
v  5.1799 3.7480 -5.8679
v  -5.1799 3.7480 -5.8679
# 8 vertices

vn 0.0000 -1.0000 -0.0004
vn 0.0000 0.9926 0.1213
vn 0.0000 0.0000 1.0000
vn 0.9988 0.0000 0.0483
vn 0.0000 0.0000 -1.0000
vn -0.9988 0.0000 0.0483
# 6 vertex normals

vt 1.0000 0.0000 0.0000
vt 1.0000 1.0000 0.0000
vt 0.0000 1.0000 0.0000
vt 0.0000 0.0000 0.0000
# 4 texture coords

o RightFoot
g RightFoot
usemtl Material__30
s 2
f 1/1/1 2/2/1 3/3/1 
f 3/3/1 4/4/1 1/1/1 
s 4
f 5/4/2 6/1/2 7/2/2 
f 7/2/2 8/3/2 5/4/2 
s 8
f 1/4/3 4/1/3 6/2/3 
f 6/2/3 5/3/3 1/4/3 
s 16
f 4/4/4 3/1/4 7/2/4 
f 7/2/4 6/3/4 4/4/4 
s 32
f 3/4/5 2/1/5 8/2/5 
f 8/2/5 7/3/5 3/4/5 
s 64
f 2/4/6 1/1/6 5/2/6 
f 5/2/6 8/3/6 2/4/6 
# 12 faces

