# 3ds Max Wavefront OBJ Exporter v0.99 - (c)2007 guruware
# File Created: 08.12.2022 00:35:52

mtllib Player_LeftLeg.mtl

#
# object LeftLeg
#

v  0.0000 -23.8156 -0.0000
v  4.8093 -23.8156 -4.8093
v  6.8014 -23.8156 -0.0000
v  -0.0000 -23.8156 -6.8014
v  -4.8093 -23.8156 -4.8093
v  -6.8014 -23.8156 0.0000
v  -4.8093 -23.8156 4.8093
v  0.0000 -23.8156 6.8014
v  4.8093 -23.8156 4.8093
v  4.8093 4.1753 -4.8093
v  6.8014 4.1753 -0.0000
v  -0.0000 4.1753 -6.8014
v  -4.8093 4.1753 -4.8093
v  -6.8014 4.1753 0.0000
v  -4.8093 4.1753 4.8093
v  0.0000 4.1753 6.8014
v  4.8093 4.1753 4.8093
v  0.0000 4.1753 -0.0000
# 18 vertices

vn 0.0000 -1.0000 -0.0000
vn 1.0000 0.0000 -0.0000
vn 0.7071 0.0000 -0.7071
vn -0.0000 0.0000 -1.0000
vn -0.7071 0.0000 -0.7071
vn -1.0000 0.0000 0.0000
vn -0.7071 0.0000 0.7071
vn -0.0000 0.0000 1.0000
vn 0.7071 0.0000 0.7071
vn 0.0000 1.0000 -0.0000
# 10 vertex normals

vt 0.5000 0.0000 0.0000
vt 0.8750 0.0000 1.0000
vt 0.7500 0.0000 1.0000
vt 0.0000 0.0000 1.0000
vt -0.1250 0.0000 1.0000
vt 0.1250 0.0000 1.0000
vt 0.2500 0.0000 1.0000
vt 0.3750 0.0000 1.0000
vt 0.5000 0.0000 1.0000
vt 0.6250 0.0000 1.0000
vt 0.8750 1.0000 1.0000
vt 0.7500 1.0000 1.0000
vt 0.0000 1.0000 1.0000
vt -0.1250 1.0000 1.0000
vt 0.1250 1.0000 1.0000
vt 0.2500 1.0000 1.0000
vt 0.3750 1.0000 1.0000
vt 0.5000 1.0000 1.0000
vt 0.6250 1.0000 1.0000
vt 0.5000 1.0000 0.0000
# 20 texture coords

o LeftLeg
g LeftLeg
usemtl Material__34
s 1
f 1/1/1 2/2/1 3/3/1 
f 1/1/1 4/4/1 2/5/1 
f 1/1/1 5/6/1 4/4/1 
f 1/1/1 6/7/1 5/6/1 
f 1/1/1 7/8/1 6/7/1 
f 1/1/1 8/9/1 7/8/1 
f 1/1/1 9/10/1 8/9/1 
f 1/1/1 3/3/1 9/10/1 
s 8
f 3/3/2 10/11/3 11/12/2 
f 3/3/2 2/2/3 10/11/3 
f 2/5/3 12/13/4 10/14/3 
f 2/5/3 4/4/4 12/13/4 
f 4/4/4 13/15/5 12/13/4 
f 4/4/4 5/6/5 13/15/5 
f 5/6/5 14/16/6 13/15/5 
f 5/6/5 6/7/6 14/16/6 
f 6/7/6 15/17/7 14/16/6 
f 6/7/6 7/8/7 15/17/7 
f 7/8/7 16/18/8 15/17/7 
f 7/8/7 8/9/8 16/18/8 
f 8/9/8 17/19/9 16/18/8 
f 8/9/8 9/10/9 17/19/9 
f 9/10/9 11/12/2 17/19/9 
f 9/10/9 3/3/2 11/12/2 
s 1
f 18/20/10 11/12/10 10/11/10 
f 18/20/10 10/14/10 12/13/10 
f 18/20/10 12/13/10 13/15/10 
f 18/20/10 13/15/10 14/16/10 
f 18/20/10 14/16/10 15/17/10 
f 18/20/10 15/17/10 16/18/10 
f 18/20/10 16/18/10 17/19/10 
f 18/20/10 17/19/10 11/12/10 
# 32 faces

