# 3ds Max Wavefront OBJ Exporter v0.99 - (c)2007 guruware
# File Created: 08.12.2022 00:34:11

mtllib Player_LeftHand.mtl

#
# object LeftHand
#

v  -11.3463 -15.8750 -2.2855
v  -10.0225 -16.8019 -1.6161
v  -9.4742 -17.1859 -0.0000
v  -10.0225 -16.8019 1.6161
v  -11.3463 -15.8750 2.2855
v  -12.6702 -14.9480 1.6161
v  -13.2185 -14.5641 -0.0000
v  -12.6702 -14.9480 -1.6161
v  -10.7115 -9.2409 -0.0000
v  -9.9233 -9.7928 2.3229
v  -0.0311 3.9142 3.0871
v  -0.9024 4.5243 0.0000
v  -8.0205 -11.1252 3.2851
v  2.0726 2.4412 4.3658
v  -6.1177 -12.4576 2.3229
v  4.1762 0.9683 3.0871
v  -5.3295 -13.0095 -0.0000
v  5.0475 0.3581 0.0000
v  -6.1177 -12.4576 -2.3229
v  4.1762 0.9683 -3.0871
v  -8.0205 -11.1252 -3.2851
v  2.0726 2.4412 -4.3658
v  -9.9233 -9.7928 -2.3229
v  -0.0311 3.9142 -3.0871
v  -13.1490 -10.5479 -0.0000
v  -12.0617 -11.3093 3.2047
v  -12.0617 -11.3093 -3.2047
v  -9.4365 -13.1475 -4.5322
v  -6.8114 -14.9856 -3.2047
v  -5.7240 -15.7470 -0.0000
v  -6.8114 -14.9856 3.2047
v  -9.4365 -13.1475 4.5322
# 32 vertices

vn -0.5736 -0.8192 0.0000
vn -0.5736 -0.8192 -0.0000
vn -0.8176 0.5758 -0.0037
vn -0.6025 0.3891 0.6969
vn -0.6172 0.4134 0.6694
vn -0.8169 0.5768 -0.0029
vn -0.0361 -0.0457 0.9983
vn -0.0248 -0.0547 0.9982
vn 0.5480 -0.4532 0.7031
vn 0.5733 -0.4835 0.6615
vn 0.7865 -0.6176 0.0038
vn 0.7873 -0.6166 0.0028
vn 0.5412 -0.4621 -0.7025
vn 0.5792 -0.4762 -0.6616
vn -0.0420 -0.0410 -0.9983
vn -0.0298 -0.0508 -0.9983
vn -0.5961 0.3985 -0.6970
vn -0.6223 0.4054 -0.6696
vn 0.5736 0.8192 0.0000
vn 0.5736 0.8192 -0.0000
vn -0.4432 0.8266 0.3468
vn -0.4432 0.8266 -0.3468
vn -0.0415 0.5453 -0.8372
vn 0.5266 0.1475 -0.8372
vn 0.9284 -0.1338 -0.3468
vn 0.9284 -0.1338 0.3468
vn 0.5266 0.1475 0.8372
vn -0.0415 0.5453 0.8372
vn -0.9457 0.0164 0.3248
vn -0.9457 0.0164 -0.3248
vn -0.5694 -0.2471 -0.7840
vn -0.0374 -0.6196 -0.7840
vn 0.3388 -0.8830 -0.3248
vn 0.3388 -0.8830 0.3248
vn -0.0374 -0.6196 0.7840
vn -0.5694 -0.2471 0.7840
# 36 vertex normals

vt 0.5000 0.0000 1.0000
vt 0.3750 0.0000 1.0000
vt 0.2500 0.0000 1.0000
vt 0.1250 0.0000 1.0000
vt 0.0000 0.0000 1.0000
vt -0.1250 0.0000 1.0000
vt 0.1161 0.0000 0.4142
vt 0.6250 0.0000 1.0000
vt 0.7500 0.0000 1.0000
vt 0.8750 0.0000 1.0000
vt 0.8750 1.0000 1.0000
vt 0.7500 1.0000 1.0000
vt 0.0000 1.0000 1.0000
vt -0.1250 1.0000 1.0000
vt 0.1250 1.0000 1.0000
vt 0.2500 1.0000 1.0000
vt 0.3750 1.0000 1.0000
vt 0.5000 1.0000 1.0000
vt 0.6250 1.0000 1.0000
vt 0.7803 1.0000 0.4142
vt 0.5214 1.0000 -0.4142
vt 0.2500 1.0000 -1.0000
vt 0.1250 1.0000 -1.0000
vt 0.2197 1.0000 -0.4142
# 24 texture coords

o LeftHand
g LeftHand
usemtl Material__29
s 1
f 1/1/1 2/2/1 3/3/1 
f 3/3/1 4/4/1 5/5/2 
f 5/5/2 6/6/2 7/7/2 
f 3/3/1 5/5/2 7/7/2 
f 1/1/1 3/3/1 7/7/2 
f 8/8/2 1/1/1 7/7/2 
s 8
f 9/9/3 10/10/4 11/11/5 
f 11/11/5 12/12/6 9/9/3 
f 10/6/4 13/5/7 14/13/8 
f 14/13/8 11/14/5 10/6/4 
f 13/5/7 15/4/9 16/15/10 
f 16/15/10 14/13/8 13/5/7 
f 15/4/9 17/3/11 18/16/12 
f 18/16/12 16/15/10 15/4/9 
f 17/3/11 19/2/13 20/17/14 
f 20/17/14 18/16/12 17/3/11 
f 19/2/13 21/1/15 22/18/16 
f 22/18/16 20/17/14 19/2/13 
f 21/1/15 23/8/17 24/19/18 
f 24/19/18 22/18/16 21/1/15 
f 23/8/17 9/9/3 12/12/6 
f 12/12/6 24/19/18 23/8/17 
s 1
f 12/12/19 11/11/19 14/20/19 
f 14/20/19 16/21/19 18/22/19 
f 18/22/19 20/23/19 22/24/20 
f 14/20/19 18/22/19 22/24/20 
f 12/12/19 14/20/19 22/24/20 
f 24/19/20 12/12/19 22/24/20 
s off
f 10/6/21 9/7/21 25/7/21 
f 25/7/21 26/6/21 10/6/21 
f 9/7/22 23/8/22 27/8/22 
f 27/8/22 25/7/22 9/7/22 
f 23/8/23 21/1/23 28/1/23 
f 28/1/23 27/8/23 23/8/23 
f 21/1/24 19/2/24 29/2/24 
f 29/2/24 28/1/24 21/1/24 
f 19/2/25 17/3/25 30/3/25 
f 30/3/25 29/2/25 19/2/25 
f 17/3/26 15/4/26 31/4/26 
f 31/4/26 30/3/26 17/3/26 
f 15/4/27 13/5/27 32/5/27 
f 32/5/27 31/4/27 15/4/27 
f 13/5/28 10/6/28 26/6/28 
f 26/6/28 32/5/28 13/5/28 
f 26/6/29 25/7/29 7/7/29 
f 7/7/29 6/6/29 26/6/29 
f 25/7/30 27/8/30 8/8/30 
f 8/8/30 7/7/30 25/7/30 
f 27/8/31 28/1/31 1/1/31 
f 1/1/31 8/8/31 27/8/31 
f 28/1/32 29/2/32 2/2/32 
f 2/2/32 1/1/32 28/1/32 
f 29/2/33 30/3/33 3/3/33 
f 3/3/33 2/2/33 29/2/33 
f 30/3/34 31/4/34 4/4/34 
f 4/4/34 3/3/34 30/3/34 
f 31/4/35 32/5/35 5/5/35 
f 5/5/35 4/4/35 31/4/35 
f 32/5/36 26/6/36 6/6/36 
f 6/6/36 5/5/36 32/5/36 
# 60 faces

