# 3ds Max Wavefront OBJ Exporter v0.99 - (c)2007 guruware
# File Created: 08.12.2022 00:31:39

mtllib Player_LeftArm.mtl

#
# object LeftArm
#

v  -11.4715 -12.9572 -6.0059
v  -9.4249 -14.2802 -4.5397
v  -8.4450 -14.9137 -1.0000
v  -9.4249 -14.2802 2.5397
v  -11.4715 -12.9572 4.0059
v  -13.8372 -11.4277 2.5397
v  -14.8172 -10.7942 -1.0000
v  -13.8372 -11.4277 -4.5397
v  -7.2801 -1.1163 -1.0000
v  -6.3002 -1.7499 2.5397
v  0.5175 3.1649 2.5397
v  -0.9487 3.1649 -1.0000
v  -3.9344 -3.2793 4.0059
v  2.8113 3.1649 4.0059
v  -1.8879 -4.6024 2.5397
v  3.5397 3.1649 2.5397
v  -0.9080 -5.2359 -1.0000
v  5.0059 3.1649 -1.0000
v  -1.8879 -4.6024 -4.5397
v  3.5397 3.1649 -4.5397
v  -3.9344 -3.2793 -6.0059
v  0.4776 3.1649 -6.0059
v  -6.3002 -1.7499 -4.5397
v  -0.7285 3.1649 -4.5397
# 24 vertices

vn -0.5429 -0.8398 0.0000
vn -0.5692 0.8222 -0.0077
vn -0.5007 0.6516 0.5699
vn -0.4864 0.6871 0.5398
vn -0.5938 0.8016 0.0699
vn 0.0190 0.0484 0.9986
vn 0.4920 -0.4631 0.7372
vn 0.6369 -0.4467 0.6284
vn 0.7187 -0.5821 0.3803
vn 0.8185 -0.5746 -0.0010
vn 0.8184 -0.5746 -0.0008
vn 0.6385 -0.4437 -0.6288
vn 0.6836 -0.4798 -0.5499
vn 0.0217 0.0578 -0.9981
vn 0.0212 -0.0187 -0.9996
vn -0.5033 0.6533 -0.5656
vn -0.6754 0.6132 -0.4096
vn 0.0000 1.0000 -0.0000
vn -0.7496 0.5838 0.3120
vn -0.7496 0.5838 -0.3120
vn -0.3654 0.2845 -0.8863
vn 0.4079 -0.3177 -0.8560
vn 0.7496 -0.5838 -0.3120
vn 0.7496 -0.5838 0.3120
vn 0.4079 -0.3177 0.8560
vn -0.3654 0.2845 0.8863
# 26 vertex normals

vt 0.2197 0.0000 -0.4142
vt 0.1250 0.0000 -1.0000
vt 0.2500 0.0000 -1.0000
vt 0.5214 0.0000 -0.4142
vt 0.7803 0.0000 0.4142
vt 0.8750 0.0000 1.0000
vt 0.7500 0.0000 1.0000
vt 0.4786 0.0000 0.4142
vt 0.8750 1.0000 1.0000
vt 0.7500 1.0000 1.0000
vt -0.1250 0.0000 1.0000
vt 0.0000 0.0000 1.0000
vt 0.0000 1.0000 1.0000
vt -0.1250 1.0000 1.0000
vt 0.1250 0.0000 1.0000
vt 0.1250 1.0000 1.0000
vt 0.2500 0.0000 1.0000
vt 0.2500 1.0000 1.0000
vt 0.3750 0.0000 1.0000
vt 0.3750 1.0000 1.0000
vt 0.5000 0.0000 1.0000
vt 0.5000 1.0000 1.0000
vt 0.6250 0.0000 1.0000
vt 0.6250 1.0000 1.0000
vt 0.7803 1.0000 0.4142
vt 0.5214 1.0000 -0.4142
vt 0.2500 1.0000 -1.0000
vt 0.1250 1.0000 -1.0000
vt 0.2197 1.0000 -0.4142
# 29 texture coords

o LeftArm
g LeftArm
usemtl Material__28
s 1
f 1/1/1 2/2/1 3/3/1 
f 3/3/1 4/4/1 5/5/1 
f 5/5/1 6/6/1 7/7/1 
f 3/3/1 5/5/1 7/7/1 
f 1/1/1 3/3/1 7/7/1 
f 8/8/1 1/1/1 7/7/1 
s 8
f 9/7/2 10/6/3 11/9/4 
f 11/9/4 12/10/5 9/7/2 
f 10/11/3 13/12/6 14/13/7 
f 14/13/7 11/14/4 10/11/3 
f 13/12/6 15/15/8 16/16/9 
f 16/16/9 14/13/7 13/12/6 
f 15/15/8 17/17/10 18/18/11 
f 18/18/11 16/16/9 15/15/8 
f 17/17/10 19/19/12 20/20/13 
f 20/20/13 18/18/11 17/17/10 
f 19/19/12 21/21/14 22/22/15 
f 22/22/15 20/20/13 19/19/12 
f 21/21/14 23/23/16 24/24/17 
f 24/24/17 22/22/15 21/21/14 
f 23/23/16 9/7/2 12/10/5 
f 12/10/5 24/24/17 23/23/16 
s 1
f 12/10/18 11/9/18 14/25/18 
f 14/25/18 16/26/18 18/27/18 
f 18/27/18 20/28/18 22/29/18 
f 14/25/18 18/27/18 22/29/18 
f 12/10/18 14/25/18 22/29/18 
f 24/24/18 12/10/18 22/29/18 
s off
f 10/6/19 9/7/19 7/7/19 
f 7/7/19 6/6/19 10/6/19 
f 9/7/20 23/8/20 8/8/20 
f 8/8/20 7/7/20 9/7/20 
f 23/8/21 21/1/21 1/1/21 
f 1/1/21 8/8/21 23/8/21 
f 21/1/22 19/2/22 2/2/22 
f 2/2/22 1/1/22 21/1/22 
f 19/2/23 17/3/23 3/3/23 
f 3/3/23 2/2/23 19/2/23 
f 17/3/24 15/4/24 4/4/24 
f 4/4/24 3/3/24 17/3/24 
f 15/4/25 13/5/25 5/5/25 
f 5/5/25 4/4/25 15/4/25 
f 13/5/26 10/6/26 6/6/26 
f 6/6/26 5/5/26 13/5/26 
# 44 faces

