# 3ds Max Wavefront OBJ Exporter v0.99 - (c)2007 guruware
# File Created: 08.12.2022 00:31:03

mtllib Player_RightArm.mtl

#
# object RightArm
#

v  11.4715 -12.9572 4.0059
v  9.4249 -14.2802 2.5397
v  8.4450 -14.9137 -1.0000
v  9.4249 -14.2802 -4.5397
v  11.4715 -12.9572 -6.0059
v  13.8372 -11.4277 -4.5397
v  14.8172 -10.7942 -1.0000
v  13.8372 -11.4277 2.5397
v  7.2801 -1.1163 -1.0000
v  6.3002 -1.7499 -4.5397
v  -0.5175 3.1649 -4.5397
v  0.9487 3.1649 -1.0000
v  3.9344 -3.2793 -6.0059
v  -2.8113 3.1649 -6.0059
v  1.8879 -4.6024 -4.5397
v  -3.5397 3.1649 -4.5397
v  0.9080 -5.2359 -1.0000
v  -5.0059 3.1649 -1.0000
v  1.8879 -4.6024 2.5397
v  -3.5397 3.1649 2.5397
v  3.9344 -3.2793 4.0059
v  -0.4776 3.1649 4.0059
v  6.3002 -1.7499 2.5397
v  0.7285 3.1649 2.5397
# 24 vertices

vn 0.5429 -0.8398 -0.0000
vn 0.5429 -0.8398 0.0000
vn 0.5692 0.8222 0.0077
vn 0.5007 0.6516 -0.5699
vn 0.4864 0.6871 -0.5398
vn 0.5938 0.8016 -0.0699
vn -0.0190 0.0484 -0.9986
vn -0.4920 -0.4631 -0.7372
vn -0.6369 -0.4467 -0.6284
vn -0.7187 -0.5821 -0.3803
vn -0.8185 -0.5746 0.0010
vn -0.8184 -0.5746 0.0008
vn -0.6385 -0.4437 0.6288
vn -0.6836 -0.4798 0.5499
vn -0.0217 0.0578 0.9981
vn -0.0212 -0.0187 0.9996
vn 0.5033 0.6533 0.5656
vn 0.6754 0.6132 0.4096
vn 0.0000 1.0000 -0.0000
vn 0.7496 0.5838 -0.3120
vn 0.7496 0.5838 0.3120
vn 0.3654 0.2845 0.8863
vn -0.4079 -0.3177 0.8560
vn -0.7496 -0.5838 0.3120
vn -0.7496 -0.5838 -0.3120
vn -0.4079 -0.3177 -0.8560
vn 0.3654 0.2845 -0.8863
# 27 vertex normals

vt 0.8122 0.1061 2.1675
vt 0.7796 0.1516 0.0000
vt 0.7083 0.1689 -2.1675
vt 0.6407 0.1404 0.0000
vt 0.6157 0.0903 0.0000
vt 0.6490 0.0373 0.0000
vt 0.7203 0.0200 0.0000
vt 0.7879 0.0485 0.0000
vt 0.3129 0.7389 0.0000
vt 0.2919 0.8092 0.0000
vt 0.1289 0.7803 0.0000
vt 0.1645 0.7138 0.0000
vt 0.2617 0.8640 0.0000
vt 0.0856 0.8118 0.0000
vt 0.2354 0.9134 0.0000
vt 0.0653 0.8369 0.0000
vt 0.2046 0.9800 0.0000
vt 0.0200 0.8972 0.0000
vt 0.3030 0.4742 0.0000
vt 0.3064 0.5475 0.0000
vt 0.1200 0.5541 0.0000
vt 0.1008 0.4811 0.0000
vt 0.3101 0.6034 0.0000
vt 0.1565 0.6101 0.0000
vt 0.3161 0.6656 0.0000
vt 0.1714 0.6443 0.0000
vt 0.4423 0.5767 15.9753
vt 0.3951 0.6356 -15.9753
vt 0.3437 0.6507 15.9753
vt 0.3380 0.6190 -15.9753
vt 0.3297 0.5440 -15.9753
vt 0.3768 0.4851 -15.9753
vt 0.4428 0.4742 -15.9753
vt 0.4575 0.5085 -15.9753
vt 0.3320 0.3706 0.0000
vt 0.2661 0.3382 0.0000
vt 0.3670 0.1187 0.0000
vt 0.4328 0.1512 0.0000
vt 0.1987 0.3094 0.0000
vt 0.2995 0.0899 0.0000
vt 0.1400 0.2877 0.0000
vt 0.2408 0.0683 0.0000
vt 0.0875 0.2682 0.0000
vt 0.1883 0.0488 0.0000
vt 0.0200 0.2394 0.0000
vt 0.1208 0.0200 0.0000
vt 0.5014 0.4607 0.0000
vt 0.4355 0.4282 0.0000
vt 0.5364 0.2088 0.0000
vt 0.6022 0.2412 0.0000
vt 0.3866 0.4011 0.0000
vt 0.4874 0.1816 0.0000
# 52 texture coords

o RightArm
g RightArm
usemtl Material__27
s 1
f 1/1/1 2/2/1 3/3/1 
f 3/3/1 4/4/2 5/5/2 
f 5/5/2 6/6/1 7/7/1 
f 3/3/1 5/5/2 7/7/1 
f 1/1/1 3/3/1 7/7/1 
f 8/8/1 1/1/1 7/7/1 
s 8
f 9/9/3 10/10/4 11/11/5 
f 11/11/5 12/12/6 9/9/3 
f 10/10/4 13/13/7 14/14/8 
f 14/14/8 11/11/5 10/10/4 
f 13/13/7 15/15/9 16/16/10 
f 16/16/10 14/14/8 13/13/7 
f 15/15/9 17/17/11 18/18/12 
f 18/18/12 16/16/10 15/15/9 
f 17/19/11 19/20/13 20/21/14 
f 20/21/14 18/22/12 17/19/11 
f 19/20/13 21/23/15 22/24/16 
f 22/24/16 20/21/14 19/20/13 
f 21/23/15 23/25/17 24/26/18 
f 24/26/18 22/24/16 21/23/15 
f 23/25/17 9/9/3 12/12/6 
f 12/12/6 24/26/18 23/25/17 
s 1
f 12/27/19 11/28/19 14/29/19 
f 14/29/19 16/30/19 18/31/19 
f 18/31/19 20/32/19 22/33/19 
f 14/29/19 18/31/19 22/33/19 
f 12/27/19 14/29/19 22/33/19 
f 24/34/19 12/27/19 22/33/19 
s off
f 10/35/20 9/36/20 7/37/20 
f 7/37/20 6/38/20 10/35/20 
f 9/36/21 23/39/21 8/40/21 
f 8/40/21 7/37/21 9/36/21 
f 23/39/22 21/41/22 1/42/22 
f 1/42/22 8/40/22 23/39/22 
f 21/41/23 19/43/23 2/44/23 
f 2/44/23 1/42/23 21/41/23 
f 19/43/24 17/45/24 3/46/24 
f 3/46/24 2/44/24 19/43/24 
f 17/47/25 15/48/25 4/49/25 
f 4/49/25 3/50/25 17/47/25 
f 15/48/26 13/51/26 5/52/26 
f 5/52/26 4/49/26 15/48/26 
f 13/51/27 10/35/27 6/38/27 
f 6/38/27 5/52/27 13/51/27 
# 44 faces

