# 3ds Max Wavefront OBJ Exporter v0.99 - (c)2007 guruware
# File Created: 12.10.2022 19:49:59

mtllib BasicCube.mtl

#
# object Box001
#

v  -0.5000 -0.5000 0.5000
v  -0.5000 -0.5000 -0.5000
v  0.5000 -0.5000 0.5000
v  -0.5000 0.5000 0.5000
v  0.5000 0.5000 -0.5000
v  -0.5000 0.5000 -0.5000
v  0.5000 0.5000 0.5000
v  0.5000 -0.5000 -0.5000
# 8 vertices

vn -0.5774 -0.5774 0.5774
vn -0.5774 -0.5774 -0.5774
vn 0.5774 -0.5774 0.5774
vn -0.5774 0.5774 0.5774
vn 0.5774 0.5774 -0.5774
vn -0.5774 0.5774 -0.5774
vn 0.5774 0.5774 0.5774
vn 0.5774 -0.5774 -0.5774
# 8 vertex normals

vt 1.0000 0.0000 0.0000
vt 1.0000 1.0000 0.0000
vt 0.0000 0.0000 0.0000
vt 0.0000 1.0000 0.0000
# 4 texture coords

o Box001
g Box001
usemtl wire_057008136
s 2
f 1/1/1 2/2/2 3/3/3 
s 4
f 4/3/4 5/2/5 6/4/6 
s 8
f 1/3/1 3/1/3 7/2/7 
s 16
f 3/3/3 8/1/8 5/2/5 
s 32
f 8/3/8 2/1/2 6/2/6 
s 64
f 2/3/2 1/1/1 4/2/4 
f 4/2/4 6/4/6 2/3/2 
s 8
f 7/2/7 4/4/4 1/3/1 
s 16
f 5/2/5 7/4/7 3/3/3 
s 32
f 6/2/6 5/4/5 8/3/8 
s 2
f 2/2/2 8/4/8 3/3/3 
s 4
f 4/3/4 7/1/7 5/2/5 
# 0 polygons - 12 triangles

