# 3ds Max Wavefront OBJ Exporter v0.99 - (c)2007 guruware
# File Created: 19.10.2022 15:55:00

mtllib BasicCylinder.mtl

#
# object Cylinder001
#

v  7.6911 0.0000 13.3214
v  -0.0000 0.0000 15.3823
v  -0.0000 0.0000 -15.3823
v  15.3823 0.0000 -0.0000
v  13.3214 0.0000 -7.6911
v  13.3214 42.5821 -7.6911
v  7.6911 0.0000 -13.3214
v  -0.0000 42.5821 -15.3823
v  -7.6911 0.0000 -13.3214
v  -13.3214 0.0000 -7.6911
v  -13.3214 42.5821 -7.6911
v  -15.3823 0.0000 -0.0000
v  -13.3214 0.0000 7.6911
v  -13.3214 42.5821 7.6911
v  -7.6911 0.0000 13.3214
v  -0.0000 42.5821 15.3823
v  13.3214 0.0000 7.6911
v  13.3214 42.5821 7.6911
v  -7.6911 42.5821 13.3214
v  -15.3823 42.5821 -0.0000
v  -7.6911 42.5821 -13.3214
v  7.6911 42.5821 -13.3214
v  15.3823 42.5821 -0.0000
v  7.6911 42.5821 13.3214
# 24 vertices

vn 0.3786 -0.6532 0.6558
vn -0.0000 -0.6533 0.7571
vn -0.0000 -0.6533 -0.7571
vn 0.7572 -0.6532 0.0000
vn 0.6557 -0.6532 -0.3786
vn 0.6557 0.6532 -0.3786
vn 0.3786 -0.6532 -0.6557
vn -0.0000 0.6532 -0.7572
vn -0.3786 -0.6532 -0.6557
vn -0.6557 -0.6533 -0.3785
vn -0.6557 0.6532 -0.3786
vn -0.7572 -0.6532 -0.0000
vn -0.6557 -0.6532 0.3786
vn -0.6557 0.6532 0.3786
vn -0.3786 -0.6532 0.6557
vn -0.0000 0.6532 0.7572
vn 0.6557 -0.6533 0.3786
vn 0.6557 0.6532 0.3786
vn -0.3786 0.6532 0.6557
vn -0.7572 0.6532 -0.0000
vn -0.3785 0.6533 -0.6557
vn 0.3786 0.6533 -0.6557
vn 0.7571 0.6533 -0.0000
vn 0.3786 0.6532 0.6557
# 24 vertex normals

vt 0.2440 0.0000 -0.2679
vt 0.1116 0.0000 -0.7321
vt 0.8884 0.0000 0.7321
vt 0.7500 0.0000 1.0000
vt 0.8333 0.0000 1.0000
vt 0.8333 1.0000 1.0000
vt 0.9167 0.0000 1.0000
vt -0.0833 0.0000 1.0000
vt 0.0000 0.0000 1.0000
vt 0.0000 1.0000 1.0000
vt 0.0833 0.0000 1.0000
vt 0.1667 0.0000 1.0000
vt 0.1667 1.0000 1.0000
vt 0.2500 0.0000 1.0000
vt 0.3333 0.0000 1.0000
vt 0.3333 1.0000 1.0000
vt 0.4167 0.0000 1.0000
vt 0.5000 0.0000 1.0000
vt 0.5000 1.0000 1.0000
vt 0.5833 0.0000 1.0000
vt 0.6667 0.0000 1.0000
vt 0.6667 1.0000 1.0000
vt 0.8884 1.0000 0.7321
vt 0.0833 1.0000 -1.0000
vt 0.1116 1.0000 -0.7321
vt 0.4167 1.0000 1.0000
vt 0.2500 1.0000 1.0000
vt 0.0833 1.0000 1.0000
vt -0.0833 1.0000 1.0000
vt 0.9167 1.0000 1.0000
vt 0.7500 1.0000 1.0000
vt 0.5833 1.0000 1.0000
vt 0.2440 1.0000 -0.2679
vt 0.7560 1.0000 0.2679
vt 0.1667 1.0000 -1.0000
vt 0.5550 1.0000 -0.2679
vt 0.3393 1.0000 -0.7321
vt 0.0833 0.0000 -1.0000
vt 0.7560 0.0000 0.2679
vt 0.4450 0.0000 0.2679
vt 0.1667 0.0000 -1.0000
vt 0.5550 0.0000 -0.2679
vt 0.3393 0.0000 -0.7321
# 43 texture coords

o Cylinder001
g Cylinder001
usemtl wire_196088225
s 1
f 1/1/1 2/2/2 3/3/3 
s 8
f 4/4/4 5/5/5 6/6/6 
f 5/5/5 7/7/7 6/6/6 
f 7/8/7 3/9/3 8/10/8 
f 3/9/3 9/11/9 8/10/8 
f 9/11/9 10/12/10 11/13/11 
f 10/12/10 12/14/12 11/13/11 
f 12/14/12 13/15/13 14/16/14 
f 13/15/13 15/17/15 14/16/14 
f 15/17/15 2/18/2 16/19/16 
f 2/18/2 1/20/1 16/19/16 
f 1/20/1 17/21/17 18/22/18 
f 17/21/17 4/4/4 18/22/18 
s 1
f 8/23/8 19/24/19 16/25/16 
s 8
f 16/19/16 19/26/19 15/17/15 
f 15/17/15 19/26/19 14/16/14 
f 14/16/14 20/27/20 12/14/12 
f 12/14/12 20/27/20 11/13/11 
f 11/13/11 21/28/21 9/11/9 
f 9/11/9 21/28/21 8/10/8 
f 8/10/8 22/29/22 7/8/7 
f 7/7/7 22/30/22 6/6/6 
f 6/6/6 23/31/23 4/4/4 
f 4/4/4 23/31/23 18/22/18 
f 18/22/18 24/32/24 1/20/1 
f 1/20/1 24/32/24 16/19/16 
s 1
f 24/33/24 22/30/22 8/23/8 
f 8/23/8 16/25/16 24/33/24 
f 18/22/18 6/6/6 22/30/22 
f 22/30/22 24/33/24 18/22/18 
f 18/22/18 23/31/23 6/6/6 
f 21/34/21 14/35/14 19/24/19 
f 19/24/19 8/23/8 21/34/21 
f 11/36/11 20/37/20 14/35/14 
f 14/35/14 21/34/21 11/36/11 
f 15/38/15 9/39/9 3/3/3 
f 7/7/7 17/40/17 1/1/1 
f 1/1/1 3/3/3 7/7/7 
f 5/5/5 4/4/4 17/40/17 
f 17/40/17 7/7/7 5/5/5 
f 3/3/3 2/2/2 15/38/15 
f 13/41/13 10/42/10 9/39/9 
f 9/39/9 15/38/15 13/41/13 
f 13/41/13 12/43/12 10/42/10 
# 0 polygons - 44 triangles

