# 3ds Max Wavefront OBJ Exporter v0.99 - (c)2007 guruware
# File Created: 21.11.2022 10:19:54

mtllib selectionObj.mtl

#
# object Box006
#

v  0.5032 -0.4313 -0.6577
v  0.5032 -0.5687 -0.6577
v  0.5032 -0.5687 0.6577
v  0.5032 -0.4313 0.6577
v  0.6405 -0.4313 -0.6577
v  0.6405 -0.4313 0.6577
v  0.6405 -0.5687 0.6577
v  0.6405 -0.5687 -0.6577
v  -0.6679 -0.4313 -0.6577
v  -0.6679 -0.5687 -0.6577
v  -0.6679 -0.5687 0.6577
v  -0.6679 -0.4313 0.6577
v  -0.5306 -0.4313 -0.6577
v  -0.5306 -0.4313 0.6577
v  -0.5306 -0.5687 0.6577
v  -0.5306 -0.5687 -0.6577
v  -0.6679 0.7347 -0.6577
v  -0.6679 0.5973 -0.6577
v  -0.6679 0.5973 0.6577
v  -0.6679 0.7347 0.6577
v  -0.5306 0.7347 -0.6577
v  -0.5306 0.7347 0.6577
v  -0.5306 0.5973 0.6577
v  -0.5306 0.5973 -0.6577
v  0.5032 0.7335 -0.6577
v  0.5032 0.5961 -0.6577
v  0.5032 0.5961 0.6577
v  0.5032 0.7335 0.6577
v  0.6405 0.7335 -0.6577
v  0.6405 0.7335 0.6577
v  0.6405 0.5961 0.6577
v  0.6405 0.5961 -0.6577
v  0.5032 0.7454 -0.5137
v  0.5032 0.7454 -0.6510
v  0.5032 -0.5700 -0.6510
v  0.5032 -0.5700 -0.5137
v  0.6405 0.7454 -0.5137
v  0.6405 -0.5700 -0.5137
v  0.6405 -0.5700 -0.6510
v  0.6405 0.7454 -0.6510
v  -0.6679 0.7454 -0.5137
v  -0.6679 0.7454 -0.6510
v  -0.6679 -0.5700 -0.6510
v  -0.6679 -0.5700 -0.5137
v  -0.5306 0.7454 -0.5137
v  -0.5306 -0.5700 -0.5137
v  -0.5306 -0.5700 -0.6510
v  -0.5306 0.7454 -0.6510
v  -0.6679 0.7454 0.6523
v  -0.6679 0.7454 0.5150
v  -0.6679 -0.5700 0.5150
v  -0.6679 -0.5700 0.6523
v  -0.5306 0.7454 0.6523
v  -0.5306 -0.5700 0.6523
v  -0.5306 -0.5700 0.5150
v  -0.5306 0.7454 0.5150
v  0.5032 0.7454 0.6511
v  0.5032 0.7454 0.5138
v  0.5032 -0.5700 0.5138
v  0.5032 -0.5700 0.6511
v  0.6405 0.7454 0.6511
v  0.6405 -0.5700 0.6511
v  0.6405 -0.5700 0.5138
v  0.6405 0.7454 0.5138
v  -0.6783 0.6043 -0.5137
v  -0.6783 0.6043 -0.6510
v  0.6371 0.6043 -0.6510
v  0.6371 0.6043 -0.5137
v  -0.6783 0.7416 -0.5137
v  0.6371 0.7416 -0.5137
v  0.6371 0.7416 -0.6510
v  -0.6783 0.7416 -0.6510
v  -0.6783 -0.5668 -0.5137
v  -0.6783 -0.5668 -0.6510
v  0.6371 -0.5668 -0.6510
v  0.6371 -0.5668 -0.5137
v  -0.6783 -0.4295 -0.5137
v  0.6371 -0.4295 -0.5137
v  0.6371 -0.4295 -0.6510
v  -0.6783 -0.4295 -0.6510
v  -0.6783 -0.5668 0.6523
v  -0.6783 -0.5668 0.5150
v  0.6371 -0.5668 0.5150
v  0.6371 -0.5668 0.6523
v  -0.6783 -0.4295 0.6523
v  0.6371 -0.4295 0.6523
v  0.6371 -0.4295 0.5150
v  -0.6783 -0.4295 0.5150
v  -0.6783 0.6043 0.6511
v  -0.6783 0.6043 0.5138
v  0.6371 0.6043 0.5138
v  0.6371 0.6043 0.6511
v  -0.6783 0.7416 0.6511
v  0.6371 0.7416 0.6511
v  0.6371 0.7416 0.5138
v  -0.6783 0.7416 0.5138
# 96 vertices

vn -1.0000 0.0000 -0.0000
vn 1.0000 0.0000 -0.0000
vn 0.0000 1.0000 -0.0000
vn 0.0000 -1.0000 -0.0000
vn 0.0000 0.0000 1.0000
vn 0.0000 0.0000 -1.0000
# 6 vertex normals

vt 1.0000 0.0000 0.0000
vt 1.0000 1.0000 0.0000
vt 0.0000 1.0000 0.0000
vt 0.0000 0.0000 0.0000
# 4 texture coords

o Box006
g Box006
usemtl wire_154185229
s 2
f 1/1/1 2/2/1 3/3/1 
f 3/3/1 4/4/1 1/1/1 
s 4
f 5/4/2 6/1/2 7/2/2 
f 7/2/2 8/3/2 5/4/2 
s 8
f 1/4/3 4/1/3 6/2/3 
f 6/2/3 5/3/3 1/4/3 
s 32
f 3/4/4 2/1/4 8/2/4 
f 8/2/4 7/3/4 3/4/4 
s 2
f 9/1/1 10/2/1 11/3/1 
f 11/3/1 12/4/1 9/1/1 
s 4
f 13/4/2 14/1/2 15/2/2 
f 15/2/2 16/3/2 13/4/2 
s 8
f 9/4/3 12/1/3 14/2/3 
f 14/2/3 13/3/3 9/4/3 
s 32
f 11/4/4 10/1/4 16/2/4 
f 16/2/4 15/3/4 11/4/4 
s 2
f 17/1/1 18/2/1 19/3/1 
f 19/3/1 20/4/1 17/1/1 
s 4
f 21/4/2 22/1/2 23/2/2 
f 23/2/2 24/3/2 21/4/2 
s 8
f 17/4/3 20/1/3 22/2/3 
f 22/2/3 21/3/3 17/4/3 
s 32
f 19/4/4 18/1/4 24/2/4 
f 24/2/4 23/3/4 19/4/4 
s 2
f 25/1/1 26/2/1 27/3/1 
f 27/3/1 28/4/1 25/1/1 
s 4
f 29/4/2 30/1/2 31/2/2 
f 31/2/2 32/3/2 29/4/2 
s 8
f 25/4/3 28/1/3 30/2/3 
f 30/2/3 29/3/3 25/4/3 
s 32
f 27/4/4 26/1/4 32/2/4 
f 32/2/4 31/3/4 27/4/4 
s 2
f 33/1/1 34/2/1 35/3/1 
f 35/3/1 36/4/1 33/1/1 
s 4
f 37/4/2 38/1/2 39/2/2 
f 39/2/2 40/3/2 37/4/2 
s 8
f 33/4/5 36/1/5 38/2/5 
f 38/2/5 37/3/5 33/4/5 
s 32
f 35/4/6 34/1/6 40/2/6 
f 40/2/6 39/3/6 35/4/6 
s 2
f 41/1/1 42/2/1 43/3/1 
f 43/3/1 44/4/1 41/1/1 
s 4
f 45/4/2 46/1/2 47/2/2 
f 47/2/2 48/3/2 45/4/2 
s 8
f 41/4/5 44/1/5 46/2/5 
f 46/2/5 45/3/5 41/4/5 
s 32
f 43/4/6 42/1/6 48/2/6 
f 48/2/6 47/3/6 43/4/6 
s 2
f 49/1/1 50/2/1 51/3/1 
f 51/3/1 52/4/1 49/1/1 
s 4
f 53/4/2 54/1/2 55/2/2 
f 55/2/2 56/3/2 53/4/2 
s 8
f 49/4/5 52/1/5 54/2/5 
f 54/2/5 53/3/5 49/4/5 
s 32
f 51/4/6 50/1/6 56/2/6 
f 56/2/6 55/3/6 51/4/6 
s 2
f 57/1/1 58/2/1 59/3/1 
f 59/3/1 60/4/1 57/1/1 
s 4
f 61/4/2 62/1/2 63/2/2 
f 63/2/2 64/3/2 61/4/2 
s 8
f 57/4/5 60/1/5 62/2/5 
f 62/2/5 61/3/5 57/4/5 
s 32
f 59/4/6 58/1/6 64/2/6 
f 64/2/6 63/3/6 59/4/6 
s 2
f 65/1/4 66/2/4 67/3/4 
f 67/3/4 68/4/4 65/1/4 
s 4
f 69/4/3 70/1/3 71/2/3 
f 71/2/3 72/3/3 69/4/3 
s 8
f 65/4/5 68/1/5 70/2/5 
f 70/2/5 69/3/5 65/4/5 
s 32
f 67/4/6 66/1/6 72/2/6 
f 72/2/6 71/3/6 67/4/6 
s 2
f 73/1/4 74/2/4 75/3/4 
f 75/3/4 76/4/4 73/1/4 
s 4
f 77/4/3 78/1/3 79/2/3 
f 79/2/3 80/3/3 77/4/3 
s 8
f 73/4/5 76/1/5 78/2/5 
f 78/2/5 77/3/5 73/4/5 
s 32
f 75/4/6 74/1/6 80/2/6 
f 80/2/6 79/3/6 75/4/6 
s 2
f 81/1/4 82/2/4 83/3/4 
f 83/3/4 84/4/4 81/1/4 
s 4
f 85/4/3 86/1/3 87/2/3 
f 87/2/3 88/3/3 85/4/3 
s 8
f 81/4/5 84/1/5 86/2/5 
f 86/2/5 85/3/5 81/4/5 
s 32
f 83/4/6 82/1/6 88/2/6 
f 88/2/6 87/3/6 83/4/6 
s 2
f 89/1/4 90/2/4 91/3/4 
f 91/3/4 92/4/4 89/1/4 
s 4
f 93/4/3 94/1/3 95/2/3 
f 95/2/3 96/3/3 93/4/3 
s 8
f 89/4/5 92/1/5 94/2/5 
f 94/2/5 93/3/5 89/4/5 
s 32
f 91/4/6 90/1/6 96/2/6 
f 96/2/6 95/3/6 91/4/6 
# 96 faces

