# 3ds Max Wavefront OBJ Exporter v0.99 - (c)2007 guruware
# File Created: 08.12.2022 00:37:14

mtllib Player_RightSubLeg.mtl

#
# object RightSubLeg
#

v  0.0000 -24.4396 4.9415
v  -3.4942 -24.4396 3.4942
v  -4.9415 -24.4396 0.0000
v  -3.4942 -24.4396 -3.4942
v  -0.0000 -24.4396 -4.9415
v  3.4942 -24.4396 -3.4942
v  4.9415 -24.4396 0.0000
v  3.4942 -24.4396 3.4942
v  4.8093 3.5514 -4.8093
v  6.8014 3.5514 -0.0000
v  -0.0000 3.5514 -6.8014
v  -4.8093 3.5514 -4.8093
v  -6.8014 3.5514 0.0000
v  -4.8093 3.5514 4.8093
v  0.0000 3.5514 6.8014
v  4.8093 3.5514 4.8093
# 16 vertices

vn 0.0000 -1.0000 -0.0000
vn 0.9940 -0.1097 -0.0000
vn 0.7028 -0.1097 -0.7028
vn 0.9940 -0.1097 0.0000
vn 0.0000 -0.1097 -0.9940
vn -0.0000 -0.1097 -0.9940
vn -0.7028 -0.1097 -0.7028
vn -0.9940 -0.1097 0.0000
vn -0.7028 -0.1097 0.7028
vn 0.0000 -0.1097 0.9940
vn -0.0000 -0.1097 0.9940
vn 0.7028 -0.1097 0.7028
vn 0.0000 1.0000 -0.0000
# 13 vertex normals

vt 0.2197 0.0000 -0.4142
vt 0.1250 0.0000 -1.0000
vt 0.2500 0.0000 -1.0000
vt 0.5214 0.0000 -0.4142
vt 0.7803 0.0000 0.4142
vt 0.8750 0.0000 1.0000
vt 0.7500 0.0000 1.0000
vt 0.4786 0.0000 0.4142
vt 0.8750 1.0000 1.0000
vt 0.7500 1.0000 1.0000
vt -0.1250 0.0000 1.0000
vt 0.0000 0.0000 1.0000
vt 0.0000 1.0000 1.0000
vt -0.1250 1.0000 1.0000
vt 0.1250 0.0000 1.0000
vt 0.1250 1.0000 1.0000
vt 0.2500 0.0000 1.0000
vt 0.2500 1.0000 1.0000
vt 0.3750 0.0000 1.0000
vt 0.3750 1.0000 1.0000
vt 0.5000 0.0000 1.0000
vt 0.5000 1.0000 1.0000
vt 0.6250 0.0000 1.0000
vt 0.6250 1.0000 1.0000
vt 0.7803 1.0000 0.4142
vt 0.5214 1.0000 -0.4142
vt 0.2500 1.0000 -1.0000
vt 0.1250 1.0000 -1.0000
vt 0.2197 1.0000 -0.4142
# 29 texture coords

o RightSubLeg
g RightSubLeg
usemtl Material__33
s 1
f 1/1/1 2/2/1 3/3/1 
f 3/3/1 4/4/1 5/5/1 
f 5/5/1 6/6/1 7/7/1 
f 3/3/1 5/5/1 7/7/1 
f 1/1/1 3/3/1 7/7/1 
f 8/8/1 1/1/1 7/7/1 
s 8
f 7/7/2 6/6/3 9/9/3 
f 9/9/3 10/10/4 7/7/2 
f 6/11/3 5/12/5 11/13/6 
f 11/13/6 9/14/3 6/11/3 
f 5/12/5 4/15/7 12/16/7 
f 12/16/7 11/13/6 5/12/5 
f 4/15/7 3/17/8 13/18/8 
f 13/18/8 12/16/7 4/15/7 
f 3/17/8 2/19/9 14/20/9 
f 14/20/9 13/18/8 3/17/8 
f 2/19/9 1/21/10 15/22/11 
f 15/22/11 14/20/9 2/19/9 
f 1/21/10 8/23/12 16/24/12 
f 16/24/12 15/22/11 1/21/10 
f 8/23/12 7/7/2 10/10/4 
f 10/10/4 16/24/12 8/23/12 
s 1
f 10/10/13 9/9/13 11/25/13 
f 11/25/13 12/26/13 13/27/13 
f 13/27/13 14/28/13 15/29/13 
f 11/25/13 13/27/13 15/29/13 
f 10/10/13 11/25/13 15/29/13 
f 16/24/13 10/10/13 15/29/13 
# 28 faces

