# 3ds Max Wavefront OBJ Exporter v0.99 - (c)2007 guruware
# File Created: 17.11.2022 12:32:59

mtllib log1.mtl

#
# object Object_16
#

v  15.7454 3.4907 -2.1852
v  15.6511 5.4106 -1.3861
v  15.1919 5.4097 -1.4410
v  15.2863 3.4948 -2.2400
v  -12.5926 6.2152 -2.8259
v  -12.3648 5.4262 -4.7354
v  -11.9057 5.4274 -4.6805
v  -12.1335 6.2115 -2.7710
v  -3.4918 1.1454 0.5492
v  -3.6080 3.4996 1.5337
v  -12.9962 3.4773 0.5357
v  -12.8780 1.0851 -0.4650
v  -2.9303 1.1776 -4.1468
v  -3.2111 0.2075 -1.8036
v  -12.5926 0.1303 -2.8567
v  -12.3073 1.1156 -5.2385
v  -2.9303 5.8984 -4.1229
v  -2.8141 3.5436 -5.1074
v  -12.1891 3.5228 -6.2149
v  -12.3073 5.9161 -5.2142
v  -3.4918 5.8754 0.5731
v  -3.2111 6.8626 -1.7699
v  -12.5926 6.8944 -2.8224
v  -12.8780 5.8908 -0.4407
v  15.1011 3.4762 3.2046
v  15.1954 5.3892 2.4249
v  15.1379 5.8769 2.9086
v  15.0197 3.4588 3.8850
v  15.4232 6.1983 0.5235
v  15.4232 6.8800 0.5269
v  15.7086 5.8963 -1.8649
v  15.8268 3.5018 -2.8656
v  15.6511 1.5821 -1.4055
v  15.7086 1.1011 -1.8892
v  15.4232 0.7642 0.4959
v  15.4232 0.1134 0.4926
v  15.1954 1.5712 2.4056
v  15.1379 1.0642 2.8843
v  -12.8204 5.4148 -0.9243
v  -12.9148 3.4884 -0.1448
v  -12.2704 3.5078 -5.5345
v  -12.3648 1.5967 -4.7548
v  -12.5926 0.8032 -2.8533
v  -12.8204 1.5844 -0.9437
v  -11.8113 3.5196 -5.4795
v  15.1919 1.5720 -1.4604
v  -11.9057 1.6022 -4.6999
v  14.9641 0.7872 0.4412
v  -12.1335 0.8082 -2.7984
v  14.7363 1.5590 2.3507
v  -12.3613 1.5830 -0.8888
v  14.6419 3.4621 3.1496
v  14.7363 5.3866 2.3700
v  -12.4556 3.4817 -0.0899
v  -12.3613 5.4111 -0.8695
v  14.9641 6.1918 0.4685
v  -0.6653 4.1105 2.2590
v  -0.5136 5.2568 2.0709
v  -1.9555 5.3299 2.7270
v  -2.0767 4.5266 2.8458
v  0.0461 3.8755 1.4012
v  0.1978 5.0218 1.2130
v  -1.4062 3.8552 0.2023
v  -0.7523 3.4097 0.8666
v  -1.4637 3.6447 1.7245
v  -2.1177 4.0901 1.0602
v  -0.5048 5.4595 0.5104
v  -1.1380 5.0246 0.1044
v  -1.8495 5.2595 0.9623
v  -1.2163 5.6944 1.3683
v  -2.5900 4.2004 2.4096
v  -3.3812 4.9277 2.9754
v  -3.5591 4.7224 2.5890
v  -2.9920 4.5129 1.8947
v  -2.7969 5.3324 1.8480
v  -2.3884 5.6370 2.1815
v  -3.5022 5.3575 2.3361
v  -3.5897 4.9960 2.3182
v  -3.5313 4.9829 2.2983
v  -3.4438 5.3444 2.3162
v  -3.6514 4.9200 2.1874
v  -3.5263 5.4369 2.2129
v  -3.2791 5.4345 2.9400
v  -3.3810 5.6287 2.5126
v  -3.4080 5.4819 2.5305
v  -3.5298 4.8678 2.5788
v  -3.4079 5.0085 2.8436
v  -3.3390 5.3505 2.8197
v  -3.2806 5.3373 2.7998
v  -3.3495 4.9953 2.8237
v  -3.4714 4.8547 2.5589
v  -3.3496 5.4687 2.5106
v  5.4671 5.8502 1.8430
v  5.3542 3.5417 2.7758
v  6.0123 5.8707 -2.7172
v  5.7397 6.8087 -0.4323
v  6.0123 1.2881 -2.7404
v  6.1252 3.5836 -3.6732
v  5.4671 1.2549 1.8197
v  5.7397 0.3453 -0.4650
v  14.7375 1.5466 2.3507
v  14.7375 5.3848 2.3702
v  14.6432 3.4617 3.1497
v  14.9653 0.7613 0.4412
v  14.9653 6.1894 0.4686
v  15.1932 1.5659 -1.4604
v  15.1932 5.4041 -1.4409
v  15.2875 3.4890 -2.2399
v  -12.3600 5.4012 -0.8694
v  -12.3600 1.5630 -0.8888
v  -12.4544 3.4781 -0.0898
v  -12.1322 6.2058 -2.7709
v  -12.1322 0.7777 -2.7984
v  -11.9044 1.5823 -4.6999
v  -11.9044 5.4205 -4.6805
v  -11.8100 3.5054 -5.4795
v  -3.2794 5.3374 2.7999
v  -3.4702 4.8548 2.5590
v  -3.3483 4.9954 2.8238
v  -3.3483 5.4688 2.5107
v  -3.5301 4.9830 2.2985
v  -3.4426 5.3445 2.3163
# 122 vertices

vn -0.1107 -0.3869 0.9154
vn -0.1108 -0.3869 0.9154
vn -0.0475 -0.9256 0.3756
vn -0.0476 -0.9256 0.3756
vn -0.0476 -0.9256 0.3755
vn -0.0965 -0.3881 0.9166
vn -0.0965 -0.3882 0.9165
vn 0.0499 -0.9249 -0.3769
vn 0.0500 -0.9250 -0.3767
vn 0.1073 0.3880 -0.9154
vn 0.1073 0.3881 -0.9154
vn -0.0399 0.9225 0.3839
vn -0.0400 0.9225 0.3839
vn -0.0336 -0.9296 0.3669
vn -0.0336 -0.9296 0.3671
vn 0.1095 -0.3785 -0.9191
vn 0.1094 -0.3782 -0.9192
vn 0.0452 0.9264 -0.3739
vn 0.0451 0.9265 -0.3736
vn -0.0988 0.3771 0.9209
vn -0.0988 0.3774 0.9208
vn 0.9929 -0.0006 0.1187
vn -0.9929 0.0006 -0.1187
vn -0.1041 -0.3877 0.9159
vn -0.1124 0.3793 0.9184
vn -0.1123 0.3793 0.9184
vn -0.1169 0.3795 0.9178
vn -0.1170 0.3795 0.9178
vn -0.1170 0.3795 0.9177
vn -0.0331 0.9224 0.3848
vn -0.0559 0.9237 0.3789
vn -0.0560 0.9237 0.3789
vn 0.0558 0.9250 -0.3757
vn 0.0409 0.9270 -0.3728
vn 0.0983 0.3892 -0.9159
vn 0.0986 0.3892 -0.9159
vn 0.0987 0.3891 -0.9159
vn 0.0985 0.3892 -0.9159
vn 0.1167 -0.3788 -0.9181
vn 0.1168 -0.3788 -0.9181
vn 0.1126 0.3897 -0.9140
vn 0.1127 0.3897 -0.9140
vn 0.1056 -0.3772 -0.9201
vn 0.1059 -0.3773 -0.9200
vn 0.1057 -0.3772 -0.9201
vn 0.0551 -0.9215 -0.3845
vn 0.0384 -0.9226 -0.3838
vn -0.0376 -0.9258 0.3761
vn -0.0375 -0.9258 0.3761
vn 0.4102 0.0856 0.9080
vn 0.4102 0.0855 0.9080
vn 0.4101 0.0855 0.9080
vn 0.7701 0.0028 0.6379
vn -0.4574 -0.8784 -0.1387
vn -0.2806 0.8408 -0.4630
vn 0.4371 0.8916 0.1183
vn 0.2253 -0.8759 0.4267
vn -0.7485 0.1170 -0.6528
vn -0.2090 -0.7319 0.6485
vn -0.5000 -0.8597 -0.1048
vn -0.3194 0.8562 -0.4062
vn -0.3194 0.8561 -0.4062
vn 0.2058 0.9114 0.3565
vn 0.2058 0.9113 0.3565
vn 0.0121 -0.7827 0.6222
vn -0.6682 0.1020 -0.7370
vn 0.2962 -0.1185 0.9477
vn -0.4017 0.0817 -0.9121
vn -0.4017 0.0818 -0.9121
vn 0.1460 0.0911 0.9851
vn -0.5261 -0.8314 -0.1789
vn -0.5262 -0.8314 -0.1789
vn -0.1620 0.8404 -0.5171
vn -0.1620 0.8405 -0.5171
vn 0.1309 0.9088 0.3962
vn 0.1309 0.9088 0.3963
vn -0.9258 0.2085 0.3154
vn -0.3228 -0.0012 -0.9465
vn 0.3196 0.8773 0.3581
vn -0.0052 -0.8412 0.5407
vn -0.3130 -0.8905 -0.3301
vn 0.0335 0.8761 -0.4809
vn -0.1025 0.3768 0.9206
vn -0.1024 0.3770 0.9206
vn -0.1290 0.3769 0.9172
vn -0.1289 0.3771 0.9172
vn 0.0307 0.9257 -0.3770
vn 0.0306 0.9258 -0.3768
vn 0.0614 0.9259 -0.3727
vn 0.0612 0.9261 -0.3723
vn 0.0614 0.9260 -0.3726
vn 0.0737 -0.3789 -0.9225
vn 0.0736 -0.3786 -0.9226
vn 0.1484 -0.3786 -0.9136
vn 0.1483 -0.3783 -0.9137
vn -0.0583 -0.9300 0.3628
vn -0.0582 -0.9300 0.3629
vn -0.0404 -0.9298 0.3657
vn -0.0404 -0.9298 0.3658
vn -0.0448 0.9226 0.3832
vn -0.0448 0.9226 0.3833
vn -0.0516 0.9225 0.3824
vn -0.0516 0.9225 0.3825
vn 0.0797 0.3877 -0.9183
vn 0.0797 0.3878 -0.9183
vn 0.1443 0.3877 -0.9104
vn 0.1443 0.3878 -0.9104
vn 0.0156 -0.9243 -0.3814
vn 0.0156 -0.9244 -0.3812
vn 0.0703 -0.9247 -0.3741
vn 0.0703 -0.9246 -0.3744
vn -0.1084 -0.3879 0.9153
vn -0.1084 -0.3880 0.9153
vn -0.1247 -0.3879 0.9132
vn -0.1248 -0.3880 0.9132
vn 0.6246 -0.2063 -0.7532
# 116 vertex normals

vt 0.0000 1.0000 0.0000
# 1 texture coords

o Object_16
g Object_16
usemtl 01___Default
s off
f 1/1/1 2/1/2 3/1/2 
f 1/1/1 3/1/2 4/1/2 
f 5/1/3 6/1/3 7/1/4 
f 5/1/3 7/1/4 8/1/5 
f 9/1/6 10/1/6 11/1/6 
f 9/1/7 11/1/7 12/1/7 
f 13/1/8 14/1/8 15/1/8 
f 13/1/9 15/1/9 16/1/9 
f 17/1/10 18/1/10 19/1/10 
f 17/1/11 19/1/11 20/1/11 
f 21/1/12 22/1/12 23/1/12 
f 21/1/13 23/1/13 24/1/13 
f 14/1/14 9/1/14 12/1/14 
f 14/1/15 12/1/15 15/1/15 
f 18/1/16 13/1/16 16/1/16 
f 18/1/17 16/1/17 19/1/17 
f 22/1/18 17/1/18 20/1/18 
f 22/1/19 20/1/19 23/1/19 
f 10/1/20 21/1/20 24/1/20 
f 10/1/21 24/1/21 11/1/21 
f 25/1/22 26/1/22 27/1/22 
f 25/1/22 27/1/22 28/1/22 
f 26/1/22 29/1/22 30/1/22 
f 26/1/22 30/1/22 27/1/22 
f 29/1/22 2/1/22 31/1/22 
f 29/1/22 31/1/22 30/1/22 
f 2/1/22 1/1/22 32/1/22 
f 2/1/22 32/1/22 31/1/22 
f 1/1/22 33/1/22 34/1/22 
f 1/1/22 34/1/22 32/1/22 
f 33/1/22 35/1/22 36/1/22 
f 33/1/22 36/1/22 34/1/22 
f 35/1/22 37/1/22 38/1/22 
f 35/1/22 38/1/22 36/1/22 
f 37/1/22 25/1/22 28/1/22 
f 37/1/22 28/1/22 38/1/22 
f 39/1/23 40/1/23 11/1/23 
f 39/1/23 11/1/23 24/1/23 
f 5/1/23 39/1/23 24/1/23 
f 5/1/23 24/1/23 23/1/23 
f 6/1/23 5/1/23 23/1/23 
f 6/1/23 23/1/23 20/1/23 
f 41/1/23 6/1/23 20/1/23 
f 41/1/23 20/1/23 19/1/23 
f 42/1/23 41/1/23 19/1/23 
f 42/1/23 19/1/23 16/1/23 
f 43/1/23 42/1/23 16/1/23 
f 43/1/23 16/1/23 15/1/23 
f 44/1/23 43/1/23 15/1/23 
f 44/1/23 15/1/23 12/1/23 
f 40/1/23 44/1/23 12/1/23 
f 40/1/23 12/1/23 11/1/23 
f 6/1/24 41/1/24 45/1/24 
f 6/1/24 45/1/24 7/1/24 
f 33/1/25 1/1/25 4/1/26 
f 33/1/25 4/1/26 46/1/25 
f 41/1/27 42/1/28 47/1/29 
f 41/1/27 47/1/29 45/1/28 
f 35/1/30 33/1/30 46/1/30 
f 35/1/30 46/1/30 48/1/30 
f 42/1/31 43/1/31 49/1/32 
f 42/1/31 49/1/32 47/1/31 
f 37/1/33 35/1/33 48/1/33 
f 37/1/33 48/1/33 50/1/33 
f 43/1/34 44/1/34 51/1/34 
f 43/1/34 51/1/34 49/1/34 
f 25/1/35 37/1/36 50/1/37 
f 25/1/35 50/1/37 52/1/38 
f 26/1/39 25/1/39 52/1/40 
f 26/1/39 52/1/40 53/1/39 
f 44/1/41 40/1/42 54/1/41 
f 44/1/41 54/1/41 51/1/41 
f 40/1/43 39/1/43 55/1/44 
f 40/1/43 55/1/44 54/1/45 
f 29/1/46 26/1/46 53/1/46 
f 29/1/46 53/1/46 56/1/46 
f 39/1/47 5/1/47 8/1/47 
f 39/1/47 8/1/47 55/1/47 
f 2/1/48 29/1/49 56/1/48 
f 2/1/48 56/1/48 3/1/48 
f 57/1/50 58/1/51 59/1/52 
f 57/1/50 59/1/52 60/1/51 
f 61/1/53 62/1/53 58/1/53 
f 61/1/53 58/1/53 57/1/53 
f 63/1/54 64/1/54 65/1/54 
f 63/1/54 65/1/54 66/1/54 
f 67/1/55 68/1/55 69/1/55 
f 67/1/55 69/1/55 70/1/55 
f 62/1/56 67/1/56 70/1/56 
f 62/1/56 70/1/56 58/1/56 
f 64/1/57 61/1/57 57/1/57 
f 64/1/57 57/1/57 65/1/57 
f 68/1/58 63/1/58 66/1/58 
f 68/1/58 66/1/58 69/1/58 
f 71/1/59 60/1/59 72/1/59 
f 71/1/59 72/1/59 73/1/59 
f 66/1/60 65/1/60 71/1/60 
f 66/1/60 71/1/60 74/1/60 
f 70/1/61 69/1/62 75/1/61 
f 70/1/61 75/1/61 76/1/61 
f 58/1/63 70/1/63 76/1/64 
f 58/1/63 76/1/64 59/1/64 
f 65/1/65 57/1/65 60/1/65 
f 65/1/65 60/1/65 71/1/65 
f 69/1/66 66/1/66 74/1/66 
f 69/1/66 74/1/66 75/1/66 
f 77/1/67 78/1/67 79/1/67 
f 77/1/67 79/1/67 80/1/67 
f 75/1/68 74/1/69 81/1/69 
f 75/1/68 81/1/69 82/1/69 
f 60/1/70 59/1/70 83/1/70 
f 60/1/70 83/1/70 72/1/70 
f 74/1/71 71/1/72 73/1/71 
f 74/1/71 73/1/71 81/1/72 
f 76/1/73 75/1/74 82/1/74 
f 76/1/73 82/1/74 84/1/74 
f 59/1/75 76/1/76 84/1/75 
f 59/1/75 84/1/75 83/1/76 
f 77/1/77 85/1/77 84/1/77 
f 77/1/77 84/1/77 82/1/77 
f 78/1/77 77/1/77 82/1/77 
f 78/1/77 82/1/77 81/1/77 
f 86/1/77 78/1/77 81/1/77 
f 86/1/77 81/1/77 73/1/77 
f 87/1/77 86/1/77 73/1/77 
f 87/1/77 73/1/77 72/1/77 
f 88/1/77 87/1/77 72/1/77 
f 88/1/77 72/1/77 83/1/77 
f 85/1/77 88/1/77 83/1/77 
f 85/1/77 83/1/77 84/1/77 
f 87/1/78 88/1/78 89/1/78 
f 87/1/78 89/1/78 90/1/78 
f 78/1/79 86/1/79 91/1/79 
f 78/1/79 91/1/79 79/1/79 
f 85/1/80 77/1/80 80/1/80 
f 85/1/80 80/1/80 92/1/80 
f 88/1/81 85/1/81 92/1/81 
f 88/1/81 92/1/81 89/1/81 
f 86/1/82 87/1/82 90/1/82 
f 86/1/82 90/1/82 91/1/82 
f 28/1/83 27/1/83 93/1/83 
f 28/1/84 93/1/84 94/1/84 
f 94/1/85 93/1/85 21/1/85 
f 94/1/86 21/1/86 10/1/86 
f 30/1/87 31/1/87 95/1/87 
f 30/1/88 95/1/88 96/1/88 
f 96/1/89 95/1/90 17/1/90 
f 96/1/89 17/1/90 22/1/91 
f 32/1/92 34/1/92 97/1/92 
f 32/1/93 97/1/93 98/1/93 
f 98/1/94 97/1/94 13/1/94 
f 98/1/95 13/1/95 18/1/95 
f 36/1/96 38/1/96 99/1/96 
f 36/1/97 99/1/97 100/1/97 
f 100/1/98 99/1/98 9/1/98 
f 100/1/99 9/1/99 14/1/99 
f 27/1/100 30/1/100 96/1/100 
f 27/1/101 96/1/101 93/1/101 
f 93/1/102 96/1/102 22/1/102 
f 93/1/103 22/1/103 21/1/103 
f 31/1/104 32/1/104 98/1/104 
f 31/1/105 98/1/105 95/1/105 
f 95/1/106 98/1/106 18/1/106 
f 95/1/107 18/1/107 17/1/107 
f 34/1/108 36/1/108 100/1/108 
f 34/1/109 100/1/109 97/1/109 
f 97/1/110 100/1/110 14/1/110 
f 97/1/111 14/1/111 13/1/111 
f 38/1/112 28/1/112 94/1/112 
f 38/1/113 94/1/113 99/1/113 
f 99/1/114 94/1/114 10/1/114 
f 99/1/115 10/1/115 9/1/115 
f 62/1/116 68/1/116 67/1/116 
f 68/1/116 62/1/116 61/1/116 
f 68/1/116 61/1/116 63/1/116 
f 63/1/116 61/1/116 64/1/116 
f 101/1/22 102/1/22 103/1/22 
f 102/1/22 101/1/22 104/1/22 
f 102/1/22 104/1/22 105/1/22 
f 105/1/22 104/1/22 106/1/22 
f 105/1/22 106/1/22 107/1/22 
f 107/1/22 106/1/22 108/1/22 
f 109/1/23 110/1/23 111/1/23 
f 110/1/23 109/1/23 112/1/23 
f 110/1/23 112/1/23 113/1/23 
f 113/1/23 112/1/23 114/1/23 
f 114/1/23 112/1/23 115/1/23 
f 114/1/23 115/1/23 116/1/23 
f 117/1/77 118/1/77 119/1/77 
f 118/1/77 117/1/77 120/1/77 
f 118/1/77 120/1/77 121/1/77 
f 121/1/77 120/1/77 122/1/77 
# 192 faces

