# 3ds Max Wavefront OBJ Exporter v0.99 - (c)2007 guruware
# File Created: 17.11.2022 12:25:30

mtllib mush1.mtl

#
# object Object_36
#

v  -1.5977 3.8682 1.6224
v  -2.2594 3.8763 0.0247
v  -2.1153 0.6438 0.0084
v  -1.4957 0.6362 1.5041
v  -1.5977 3.8844 -1.5729
v  -2.2534 6.5025 0.0380
v  -1.5934 6.5106 -1.5553
v  1.5977 3.8682 1.6224
v  0.0000 3.8649 2.2841
v  0.0000 0.6331 2.1236
v  1.4957 0.6362 1.5041
v  1.5977 3.8844 -1.5729
v  2.2594 3.8763 0.0247
v  2.1153 0.6438 0.0084
v  1.4957 0.6513 -1.4873
v  -1.4957 0.6513 -1.4873
v  0.0000 3.8878 -2.2347
v  0.0000 0.6545 -2.1069
v  1.5934 6.5106 -1.5553
v  0.0000 6.5139 -2.2153
v  -0.0000 7.6965 -2.1892
v  1.5791 7.6932 -1.5351
v  2.2534 6.5025 0.0380
v  1.5934 6.4945 1.6314
v  0.0000 6.4911 2.2914
v  -1.5934 6.4945 1.6314
v  -2.2332 7.6852 0.0440
v  -1.5791 7.6772 1.6231
v  -1.6337 8.9592 1.6842
v  -2.3104 8.9675 0.0505
v  2.2332 7.6852 0.0440
v  1.5791 7.6772 1.6231
v  -0.0000 7.6739 2.2772
v  -1.5791 7.6932 -1.5351
v  1.6337 8.9758 -1.5832
v  -0.0000 8.9792 -2.2599
v  -0.0000 11.1206 -2.3218
v  1.6852 11.1170 -1.6238
v  -1.6337 8.9758 -1.5832
v  2.3104 8.9675 0.0505
v  1.6337 8.9592 1.6842
v  -0.0000 8.9558 2.3609
v  2.3832 11.1085 0.0614
v  1.6852 11.1000 1.7465
v  -0.0000 11.0964 2.4445
v  -1.6852 11.1000 1.7465
v  -2.3832 11.1085 0.0614
v  -1.6852 11.1170 -1.6238
v  1.5401 0.4274 0.0073
v  1.0890 0.4329 -1.0817
v  -1.0890 0.4329 -1.0817
v  -1.5401 0.4274 0.0073
v  -1.0890 0.4219 1.0963
v  0.0000 0.4196 1.5473
v  1.0890 0.4219 1.0963
v  0.0000 0.4352 -1.5328
v  5.2192 12.3512 -5.1516
v  4.2497 13.6877 -4.1754
v  6.0101 13.6662 0.0743
v  7.3812 12.3248 0.0675
v  -7.9618 10.6202 0.0589
v  -6.2731 10.0555 0.0560
v  -4.4357 10.0331 4.4917
v  -5.6298 10.5917 5.6886
v  7.9617 10.6202 0.0589
v  5.6298 10.6487 -5.5708
v  -0.0000 12.2874 7.4485
v  -0.0000 10.5799 8.0205
v  5.6298 10.5917 5.6886
v  5.2192 12.2983 5.2867
v  -7.3812 12.3248 0.0675
v  -5.2192 12.2983 5.2867
v  -0.0000 12.3621 -7.3135
v  -0.0000 10.6605 -7.9028
v  -5.6298 10.6487 -5.5708
v  -5.2192 12.3512 -5.1516
v  -0.0000 10.0873 -6.2170
v  -4.4357 10.0780 -4.3796
v  4.4357 10.0780 -4.3796
v  4.4357 10.0331 4.4917
v  6.2731 10.0555 0.0560
v  -0.0000 10.0237 6.3290
v  -0.0000 13.6358 6.0843
v  -0.0000 14.5969 5.1058
v  -3.5544 14.6043 3.6335
v  -4.2498 13.6447 4.3240
v  4.2497 13.6447 4.3240
v  -6.0102 13.6662 0.0743
v  -4.2498 13.6877 -4.1754
v  -0.0000 13.6966 -5.9357
v  -0.0000 14.6478 -4.9475
v  -0.0000 15.6598 -3.8815
v  2.8043 15.6539 -2.7199
v  3.5544 14.6403 -3.4752
v  -5.0267 14.6223 0.0792
v  -3.5544 14.6403 -3.4752
v  5.0267 14.6223 0.0792
v  3.5544 14.6043 3.6335
v  2.8043 15.6255 2.8885
v  1.9129 16.4637 2.0014
v  -0.0000 16.4597 2.7938
v  -0.0000 15.6196 4.0501
v  3.9658 15.6397 0.0843
v  -2.8043 15.6255 2.8885
v  -3.9658 15.6397 0.0843
v  -2.8043 15.6539 -2.7199
v  1.9129 16.4830 -1.8244
v  0.8351 17.0334 -0.7438
v  1.1811 17.0291 0.0913
v  2.7053 16.4734 0.0885
v  -1.9129 16.4637 2.0014
v  -2.7053 16.4734 0.0885
v  -1.9129 16.4830 -1.8244
v  -0.0000 16.4871 -2.6167
v  0.8351 17.0249 0.9265
v  -0.0000 17.0232 1.2724
v  -0.8351 17.0249 0.9265
v  -1.1811 17.0291 0.0913
v  -0.8351 17.0334 -0.7438
v  -0.0000 17.0351 -1.0897
# 120 vertices

vn -0.7070 -0.0246 0.7068
vn -0.9998 -0.0210 -0.0001
vn -0.9990 -0.0446 -0.0002
vn -0.7064 -0.0481 0.7062
vn -0.7070 -0.0174 -0.7070
vn -1.0000 0.0097 0.0000
vn -0.7071 0.0132 -0.7070
vn 0.7070 -0.0246 0.7068
vn 0.0000 -0.0261 0.9997
vn 0.0000 -0.0496 0.9988
vn 0.7064 -0.0481 0.7062
vn 0.7070 -0.0174 -0.7070
vn 0.9998 -0.0210 -0.0001
vn 0.9990 -0.0446 -0.0002
vn 0.7064 -0.0410 -0.7066
vn -0.7064 -0.0410 -0.7066
vn 0.0000 -0.0160 -0.9999
vn 0.0000 -0.0395 -0.9992
vn 0.7071 0.0132 -0.7070
vn 0.0000 0.0147 -0.9999
vn -0.0000 -0.0167 -0.9999
vn 0.7069 -0.0182 -0.7070
vn 1.0000 0.0097 0.0000
vn 0.7071 0.0061 0.7071
vn 0.0000 0.0046 1.0000
vn -0.7071 0.0061 0.7071
vn -0.9998 -0.0217 -0.0001
vn -0.7069 -0.0253 0.7068
vn -0.7063 -0.0505 0.7061
vn -0.9989 -0.0469 -0.0002
vn 0.9998 -0.0217 -0.0001
vn 0.7069 -0.0253 0.7068
vn 0.0000 -0.0268 0.9996
vn -0.7069 -0.0182 -0.7070
vn 0.7063 -0.0433 -0.7066
vn -0.0000 -0.0418 -0.9991
vn -0.0000 -0.0289 -0.9996
vn 0.7067 -0.0304 -0.7069
vn -0.7063 -0.0433 -0.7066
vn 0.9989 -0.0469 -0.0002
vn 0.7063 -0.0505 0.7061
vn 0.0000 -0.0519 0.9987
vn 0.9994 -0.0340 -0.0002
vn 0.7067 -0.0375 0.7065
vn 0.0000 -0.0390 0.9992
vn -0.7067 -0.0375 0.7065
vn -0.9994 -0.0340 -0.0002
vn -0.7067 -0.0304 -0.7069
vn 0.2490 -0.9347 -0.2537
vn 0.3521 -0.9359 -0.0047
vn 0.2215 -0.9752 -0.0049
vn 0.1566 -0.9744 -0.1615
vn -0.3521 -0.9359 -0.0047
vn -0.2490 -0.9347 -0.2537
vn -0.1566 -0.9744 -0.1615
vn -0.2215 -0.9752 -0.0049
vn -0.0000 -0.9377 0.3474
vn -0.2490 -0.9372 0.2443
vn -0.1566 -0.9759 0.1517
vn -0.0000 -0.9763 0.2165
vn 0.2490 -0.9372 0.2443
vn 0.1566 -0.9759 0.1517
vn 0.0000 -0.9341 -0.3569
vn 0.0000 -0.9740 -0.2264
vn 0.0000 1.0000 0.0051
vn -0.0000 1.0000 0.0051
vn 0.6087 0.5121 -0.6061
vn 0.4939 0.7182 -0.4902
vn 0.6984 0.7157 0.0036
vn 0.8608 0.5090 0.0026
vn -0.3171 -0.9484 -0.0048
vn -0.1992 -0.9799 -0.0050
vn -0.1409 -0.9807 0.1359
vn -0.2243 -0.9495 0.2195
vn 0.9466 0.3224 0.0016
vn 0.6693 0.3258 -0.6677
vn -0.0000 0.5046 0.8633
vn -0.0000 0.3177 0.9482
vn 0.6693 0.3191 0.6710
vn 0.6087 0.5059 0.6112
vn -0.8608 0.5090 0.0026
vn -0.9466 0.3224 0.0016
vn -0.6693 0.3191 0.6710
vn -0.6087 0.5059 0.6112
vn 0.0000 0.5133 -0.8582
vn 0.0000 0.3272 -0.9449
vn -0.6693 0.3258 -0.6677
vn -0.6087 0.5121 -0.6061
vn 0.0000 -0.9468 -0.3219
vn 0.0000 -0.9789 -0.2042
vn -0.1409 -0.9792 -0.1458
vn -0.2243 -0.9472 -0.2291
vn 0.2243 -0.9472 -0.2291
vn 0.1409 -0.9792 -0.1458
vn 0.2243 -0.9495 0.2195
vn 0.1409 -0.9807 0.1359
vn 0.1992 -0.9799 -0.0050
vn 0.3171 -0.9484 -0.0048
vn -0.0000 -0.9810 0.1942
vn -0.0000 -0.9500 0.3123
vn 0.0000 0.7121 0.7020
vn 0.0000 0.7154 0.6987
vn -0.4915 0.7164 0.4951
vn -0.4939 0.7132 0.4975
vn 0.4939 0.7132 0.4975
vn -0.6984 0.7157 0.0036
vn -0.4939 0.7182 -0.4902
vn 0.0000 0.7192 -0.6948
vn -0.0000 0.7225 -0.6914
vn 0.0000 0.7736 -0.6337
vn 0.4509 0.7726 -0.4470
vn 0.4915 0.7214 -0.4878
vn -0.6951 0.7189 0.0036
vn -0.4915 0.7214 -0.4879
vn 0.6951 0.7189 0.0036
vn 0.4915 0.7164 0.4951
vn 0.4509 0.7680 0.4548
vn 0.3343 0.8795 0.3388
vn 0.0000 0.8788 0.4773
vn 0.0000 0.7671 0.6415
vn 0.6376 0.7703 0.0039
vn -0.4509 0.7680 0.4548
vn -0.6376 0.7703 0.0039
vn -0.4509 0.7726 -0.4470
vn 0.3343 0.8829 -0.3298
vn 0.1523 0.9773 -0.1473
vn 0.2154 0.9765 0.0049
vn 0.4728 0.8812 0.0045
vn -0.3343 0.8795 0.3388
vn -0.4728 0.8812 0.0045
vn -0.3343 0.8829 -0.3298
vn 0.0000 0.8836 -0.4683
vn 0.1523 0.9757 0.1572
vn -0.0000 0.9754 0.2203
vn -0.1523 0.9757 0.1572
vn -0.2154 0.9765 0.0049
vn -0.1523 0.9773 -0.1473
vn 0.0000 0.9776 -0.2104
# 138 vertex normals

vt 0.7204 0.1892 -0.4140
vt 0.7034 0.1853 -0.4140
vt 0.6604 0.0200 -2.6215
vt 0.7491 0.0917 -0.4140
vt 0.6894 0.2090 -0.4140
vt 0.7299 0.2357 -0.4140
vt 0.7239 0.2600 -0.4140
vt 0.7186 0.2312 -0.4140
vt 0.7256 0.2084 -0.4140
vt 0.7767 0.1703 -0.4140
vt 0.7595 0.2336 -0.4140
vt 0.6922 0.2498 -0.4140
vt 0.7051 0.2474 -0.4140
vt 0.7151 0.2668 -0.4140
vt 0.6622 0.2608 -0.4140
vt 0.6122 0.1279 -0.4140
vt 0.6858 0.2354 -0.4140
vt 0.6207 0.2130 -0.4140
vt 0.6980 0.2807 -0.4140
vt 0.7108 0.2798 -0.4140
vt 0.7219 0.3138 -0.4140
vt 0.6937 0.3068 -0.4140
vt 0.6943 0.2654 -0.4140
vt 0.7015 0.2437 -0.4140
vt 0.7148 0.2268 -0.4140
vt 0.7264 0.2231 -0.4140
vt 0.7493 0.2495 -0.4140
vt 0.7351 0.2261 -0.4140
vt 0.7495 0.2170 -0.4140
vt 0.7796 0.2570 -0.4140
vt 0.6811 0.2781 -0.4140
vt 0.6890 0.2457 -0.4140
vt 0.7110 0.2252 -0.4140
vt 0.7451 0.2861 -0.4140
vt 0.6808 0.3460 -0.4140
vt 0.7365 0.3680 -0.4140
vt 0.7781 0.5367 2.6215
vt 0.6229 0.4448 -0.4140
vt 0.7778 0.3182 -0.4140
vt 0.6561 0.2935 -0.4140
vt 0.6681 0.2415 -0.4140
vt 0.7055 0.2120 -0.4140
vt 0.5722 0.3174 -0.4140
vt 0.6043 0.2080 -0.4140
vt 0.6885 0.1499 -0.4140
vt 0.7888 0.1609 -0.4140
vt 0.8657 0.2435 -0.4140
vt 0.8767 0.3820 -0.4140
vt 0.5353 0.7247 -0.0437
vt 0.5512 0.7632 0.0437
vt 0.5354 0.7631 -0.0437
vt 0.5241 0.7358 -0.0437
vt 0.4426 0.7632 0.0437
vt 0.4584 0.7247 -0.0437
vt 0.4695 0.7359 -0.0437
vt 0.4583 0.7633 -0.0437
vt 0.4968 0.8178 -0.0437
vt 0.4584 0.8018 -0.0437
vt 0.4697 0.7907 -0.0437
vt 0.4970 0.8020 -0.0437
vt 0.5353 0.8018 -0.0437
vt 0.5242 0.7906 -0.0437
vt 0.4969 0.7087 -0.0437
vt 0.4967 0.7245 -0.0437
vt 0.4602 0.6751 0.3543
vt 0.5455 0.6751 0.3543
vt 0.5029 0.6928 -0.3543
vt 0.4426 0.6324 -0.3543
vt 0.5632 0.6324 -0.3543
vt 0.5455 0.5898 -0.3543
vt 0.4602 0.5898 -0.3543
vt 0.5029 0.5721 -0.3543
vt 0.4340 0.4361 -1.5116
vt 0.3953 0.3985 -1.5116
vt 0.4421 0.2904 -1.5116
vt 0.4959 0.2896 -1.5116
vt 0.0200 0.7761 1.1497
vt 0.0656 0.7759 -1.1497
vt 0.1115 0.8879 -1.1497
vt 0.0793 0.9202 -1.1497
vt 0.5563 0.2881 1.5116
vt 0.4777 0.4777 -1.5116
vt 0.2896 0.0803 -1.5116
vt 0.2881 0.0200 -1.5116
vt 0.4777 0.0985 -1.5116
vt 0.4361 0.1422 -1.5116
vt 0.0803 0.2866 -1.5116
vt 0.0200 0.2881 1.5116
vt 0.0986 0.0985 -1.5116
vt 0.1423 0.1401 -1.5116
vt 0.2866 0.4958 -1.5116
vt 0.2881 0.5562 -1.5116
vt 0.0986 0.4777 -1.5116
vt 0.1402 0.4339 -1.5116
vt 0.2234 0.5721 -1.1497
vt 0.2237 0.6177 -1.1497
vt 0.1120 0.6641 -1.1497
vt 0.0796 0.6320 -1.1497
vt 0.3673 0.6319 -1.1497
vt 0.3351 0.6642 -1.1497
vt 0.3670 0.9201 -1.1497
vt 0.3346 0.8881 -1.1497
vt 0.3810 0.7762 -1.1497
vt 0.4266 0.7761 1.1497
vt 0.2229 0.9344 -1.1497
vt 0.2232 0.9800 -1.1497
vt 0.2904 0.1342 -1.5116
vt 0.2904 0.1691 -1.5116
vt 0.2056 0.2023 -1.5116
vt 0.1809 0.1776 -1.5116
vt 0.3986 0.1809 -1.5116
vt 0.1342 0.2858 -1.5116
vt 0.1777 0.3953 -1.5116
vt 0.2858 0.4420 -1.5116
vt 0.2858 0.4071 -1.5116
vt 0.2858 0.3729 -1.5116
vt 0.3464 0.3497 -1.5116
vt 0.3706 0.3739 -1.5116
vt 0.1691 0.2858 -1.5116
vt 0.2024 0.3706 -1.5116
vt 0.4071 0.2904 -1.5116
vt 0.3739 0.2056 -1.5116
vt 0.3498 0.2298 -1.5116
vt 0.3273 0.2519 -1.5116
vt 0.2902 0.2348 -1.5116
vt 0.2905 0.2033 -1.5116
vt 0.3729 0.2904 -1.5116
vt 0.2298 0.2264 -1.5116
vt 0.2033 0.2857 -1.5116
vt 0.2265 0.3464 -1.5116
vt 0.3243 0.3272 -1.5116
vt 0.3030 0.3046 -1.5116
vt 0.3103 0.2892 -1.5116
vt 0.3414 0.2902 -1.5116
vt 0.2520 0.2489 -1.5116
vt 0.2349 0.2860 -1.5116
vt 0.2490 0.3243 -1.5116
vt 0.2860 0.3413 -1.5116
vt 0.3046 0.2732 -1.5116
vt 0.2893 0.2658 -1.5116
vt 0.2733 0.2715 -1.5116
vt 0.2660 0.2869 -1.5116
vt 0.2716 0.3030 -1.5116
vt 0.2869 0.3103 -1.5116
# 144 texture coords

o Object_36
g Object_36
usemtl 01___Default
s off
f 1/1/1 2/2/2 3/3/3 
f 1/1/1 3/3/3 4/4/4 
f 5/5/5 2/2/2 6/6/6 
f 5/5/5 6/6/6 7/7/7 
f 8/8/8 9/9/9 10/10/10 
f 8/8/8 10/10/10 11/11/11 
f 12/12/12 13/13/13 14/14/14 
f 12/12/12 14/14/14 15/15/15 
f 2/2/2 5/5/5 16/16/16 
f 2/2/2 16/16/16 3/3/3 
f 9/9/9 1/1/1 4/4/4 
f 9/9/9 4/4/4 10/10/10 
f 13/13/13 8/8/8 11/11/11 
f 13/13/13 11/11/11 14/14/14 
f 17/17/17 12/12/12 15/15/15 
f 17/17/17 15/15/15 18/18/18 
f 5/5/5 17/17/17 18/18/18 
f 5/5/5 18/18/18 16/16/16 
f 19/19/19 20/20/20 21/21/21 
f 19/19/19 21/21/21 22/22/22 
f 13/13/13 12/12/12 19/19/19 
f 13/13/13 19/19/19 23/23/23 
f 9/9/9 8/8/8 24/24/24 
f 9/9/9 24/24/24 25/25/25 
f 2/2/2 1/1/1 26/26/26 
f 2/2/2 26/26/26 6/6/6 
f 17/17/17 5/5/5 7/7/7 
f 17/17/17 7/7/7 20/20/20 
f 12/12/12 17/17/17 20/20/20 
f 12/12/12 20/20/20 19/19/19 
f 8/8/8 13/13/13 23/23/23 
f 8/8/8 23/23/23 24/24/24 
f 1/1/1 9/9/9 25/25/25 
f 1/1/1 25/25/25 26/26/26 
f 27/27/27 28/28/28 29/29/29 
f 27/27/27 29/29/29 30/30/30 
f 24/24/24 23/23/23 31/31/31 
f 24/24/24 31/31/31 32/32/32 
f 26/26/26 25/25/25 33/33/33 
f 26/26/26 33/33/33 28/28/28 
f 7/7/7 6/6/6 27/27/27 
f 7/7/7 27/27/27 34/34/34 
f 23/23/23 19/19/19 22/22/22 
f 23/23/23 22/22/22 31/31/31 
f 25/25/25 24/24/24 32/32/32 
f 25/25/25 32/32/32 33/33/33 
f 6/6/6 26/26/26 28/28/28 
f 6/6/6 28/28/28 27/27/27 
f 20/20/20 7/7/7 34/34/34 
f 20/20/20 34/34/34 21/21/21 
f 35/35/35 36/36/36 37/37/37 
f 35/35/35 37/37/37 38/38/38 
f 21/21/21 34/34/34 39/39/39 
f 21/21/21 39/39/39 36/36/36 
f 22/22/22 21/21/21 36/36/36 
f 22/22/22 36/36/36 35/35/35 
f 32/32/32 31/31/31 40/40/40 
f 32/32/32 40/40/40 41/41/41 
f 28/28/28 33/33/33 42/42/42 
f 28/28/28 42/42/42 29/29/29 
f 34/34/34 27/27/27 30/30/30 
f 34/34/34 30/30/30 39/39/39 
f 31/31/31 22/22/22 35/35/35 
f 31/31/31 35/35/35 40/40/40 
f 33/33/33 32/32/32 41/41/41 
f 33/33/33 41/41/41 42/42/42 
f 41/41/41 40/40/40 43/43/43 
f 41/41/41 43/43/43 44/44/44 
f 29/29/29 42/42/42 45/45/45 
f 29/29/29 45/45/45 46/46/46 
f 39/39/39 30/30/30 47/47/47 
f 39/39/39 47/47/47 48/48/48 
f 40/40/40 35/35/35 38/38/38 
f 40/40/40 38/38/38 43/43/43 
f 42/42/42 41/41/41 44/44/44 
f 42/42/42 44/44/44 45/45/45 
f 30/30/30 29/29/29 46/46/46 
f 30/30/30 46/46/46 47/47/47 
f 36/36/36 39/39/39 48/48/48 
f 36/36/36 48/48/48 37/37/37 
f 15/49/49 14/50/50 49/51/51 
f 15/49/49 49/51/51 50/52/52 
f 3/53/53 16/54/54 51/55/55 
f 3/53/53 51/55/55 52/56/56 
f 10/57/57 4/58/58 53/59/59 
f 10/57/57 53/59/59 54/60/60 
f 14/50/50 11/61/61 55/62/62 
f 14/50/50 55/62/62 49/51/51 
f 18/63/63 15/49/49 50/52/52 
f 18/63/63 50/52/52 56/64/64 
f 16/54/54 18/63/63 56/64/64 
f 16/54/54 56/64/64 51/55/55 
f 4/58/58 3/53/53 52/56/56 
f 4/58/58 52/56/56 53/59/59 
f 11/61/61 10/57/57 54/60/60 
f 11/61/61 54/60/60 55/62/62 
f 48/65/65 38/66/65 37/67/65 
f 38/66/65 48/65/65 47/68/65 
f 38/66/66 47/68/66 43/69/66 
f 43/69/65 47/68/65 44/70/65 
f 44/70/65 47/68/65 46/71/65 
f 44/70/65 46/71/65 45/72/65 
f 50/52/52 51/55/55 56/64/64 
f 51/55/55 50/52/52 52/56/56 
f 52/56/56 50/52/52 49/51/51 
f 52/56/56 49/51/51 55/62/62 
f 52/56/56 55/62/62 53/59/59 
f 53/59/59 55/62/62 54/60/60 
f 57/73/67 58/74/68 59/75/69 
f 57/73/67 59/75/69 60/76/70 
f 61/77/71 62/78/72 63/79/73 
f 61/77/71 63/79/73 64/80/74 
f 60/76/70 65/81/75 66/82/76 
f 60/76/70 66/82/76 57/73/67 
f 67/83/77 68/84/78 69/85/79 
f 67/83/77 69/85/79 70/86/80 
f 71/87/81 61/88/82 64/89/83 
f 71/87/81 64/89/83 72/90/84 
f 73/91/85 74/92/86 75/93/87 
f 73/91/85 75/93/87 76/94/88 
f 57/73/67 66/82/76 74/92/86 
f 57/73/67 74/92/86 73/91/85 
f 70/86/80 69/85/79 65/81/75 
f 70/86/80 65/81/75 60/76/70 
f 72/90/84 64/89/83 68/84/78 
f 72/90/84 68/84/78 67/83/77 
f 76/94/88 75/93/87 61/88/82 
f 76/94/88 61/88/82 71/87/81 
f 74/95/89 77/96/90 78/97/91 
f 74/95/89 78/97/91 75/98/92 
f 66/99/93 79/100/94 77/96/90 
f 66/99/93 77/96/90 74/95/89 
f 69/101/95 80/102/96 81/103/97 
f 69/101/95 81/103/97 65/104/98 
f 64/80/74 63/79/73 82/105/99 
f 64/80/74 82/105/99 68/106/100 
f 75/98/92 78/97/91 62/78/72 
f 75/98/92 62/78/72 61/77/71 
f 65/104/98 81/103/97 79/100/94 
f 65/104/98 79/100/94 66/99/93 
f 68/106/100 82/105/99 80/102/96 
f 68/106/100 80/102/96 69/101/95 
f 83/107/101 84/108/102 85/109/103 
f 83/107/101 85/109/103 86/110/104 
f 70/86/80 87/111/105 83/107/101 
f 70/86/80 83/107/101 67/83/77 
f 72/90/84 86/110/104 88/112/106 
f 72/90/84 88/112/106 71/87/81 
f 76/94/88 89/113/107 90/114/108 
f 76/94/88 90/114/108 73/91/85 
f 73/91/85 90/114/108 58/74/68 
f 73/91/85 58/74/68 57/73/67 
f 60/76/70 59/75/69 87/111/105 
f 60/76/70 87/111/105 70/86/80 
f 67/83/77 83/107/101 86/110/104 
f 67/83/77 86/110/104 72/90/84 
f 71/87/81 88/112/106 89/113/107 
f 71/87/81 89/113/107 76/94/88 
f 91/115/109 92/116/110 93/117/111 
f 91/115/109 93/117/111 94/118/112 
f 88/112/106 95/119/113 96/120/114 
f 88/112/106 96/120/114 89/113/107 
f 58/74/68 94/118/112 97/121/115 
f 58/74/68 97/121/115 59/75/69 
f 87/111/105 98/122/116 84/108/102 
f 87/111/105 84/108/102 83/107/101 
f 86/110/104 85/109/103 95/119/113 
f 86/110/104 95/119/113 88/112/106 
f 89/113/107 96/120/114 91/115/109 
f 89/113/107 91/115/109 90/114/108 
f 90/114/108 91/115/109 94/118/112 
f 90/114/108 94/118/112 58/74/68 
f 59/75/69 97/121/115 98/122/116 
f 59/75/69 98/122/116 87/111/105 
f 99/123/117 100/124/118 101/125/119 
f 99/123/117 101/125/119 102/126/120 
f 97/121/115 103/127/121 99/123/117 
f 97/121/115 99/123/117 98/122/116 
f 84/108/102 102/126/120 104/128/122 
f 84/108/102 104/128/122 85/109/103 
f 95/119/113 105/129/123 106/130/124 
f 95/119/113 106/130/124 96/120/114 
f 94/118/112 93/117/111 103/127/121 
f 94/118/112 103/127/121 97/121/115 
f 98/122/116 99/123/117 102/126/120 
f 98/122/116 102/126/120 84/108/102 
f 85/109/103 104/128/122 105/129/123 
f 85/109/103 105/129/123 95/119/113 
f 96/120/114 106/130/124 92/116/110 
f 96/120/114 92/116/110 91/115/109 
f 107/131/125 108/132/126 109/133/127 
f 107/131/125 109/133/127 110/134/128 
f 104/128/122 111/135/129 112/136/130 
f 104/128/122 112/136/130 105/129/123 
f 106/130/124 113/137/131 114/138/132 
f 106/130/124 114/138/132 92/116/110 
f 92/116/110 114/138/132 107/131/125 
f 92/116/110 107/131/125 93/117/111 
f 103/127/121 110/134/128 100/124/118 
f 103/127/121 100/124/118 99/123/117 
f 102/126/120 101/125/119 111/135/129 
f 102/126/120 111/135/129 104/128/122 
f 105/129/123 112/136/130 113/137/131 
f 105/129/123 113/137/131 106/130/124 
f 93/117/111 107/131/125 110/134/128 
f 93/117/111 110/134/128 103/127/121 
f 100/124/118 115/139/133 116/140/134 
f 100/124/118 116/140/134 101/125/119 
f 111/135/129 117/141/135 118/142/136 
f 111/135/129 118/142/136 112/136/130 
f 113/137/131 119/143/137 120/144/138 
f 113/137/131 120/144/138 114/138/132 
f 114/138/132 120/144/138 108/132/126 
f 114/138/132 108/132/126 107/131/125 
f 110/134/128 109/133/127 115/139/133 
f 110/134/128 115/139/133 100/124/118 
f 101/125/119 116/140/134 117/141/135 
f 101/125/119 117/141/135 111/135/129 
f 112/136/130 118/142/136 119/143/137 
f 112/136/130 119/143/137 113/137/131 
f 79/100/94 78/97/91 77/96/90 
f 78/97/91 79/100/94 81/103/97 
f 78/97/91 81/103/97 62/78/72 
f 62/78/72 81/103/97 80/102/96 
f 62/78/72 80/102/96 63/79/73 
f 63/79/73 80/102/96 82/105/99 
f 119/143/137 108/132/126 120/144/138 
f 108/132/126 119/143/137 118/142/136 
f 108/132/126 118/142/136 109/133/127 
f 109/133/127 118/142/136 115/139/133 
f 115/139/133 118/142/136 117/141/135 
f 115/139/133 117/141/135 116/140/134 
# 232 faces

